SplineFontDB: 3.0
FontName: DorianCLM-BookItalic
FullName: Dorian CLM Book Italic
FamilyName: Dorian CLM
Weight: Book
Copyright: Copyright (c) 2011 by Maxim Iorsh (maxim.iorsh@gmail.com). Distributed under the terms of GNU General Public License version 2(http://www.gnu.org/licenses/gpl-2.0.html). \nAll rights reserved.
UComments: "2003-9-18: Created.+AAoA-Digits avg width 682.5+AAoACgAA-Letters avg width 651+AAoA" 
Version: 2.1
ItalicAngle: -15
UnderlinePosition: -100
UnderlineWidth: 50
Ascent: 800
Descent: 200
LayerCount: 2
Layer: 0 0 "Back"  1
Layer: 1 0 "Fore"  0
NeedsXUIDChange: 1
FSType: 0
OS2Version: 0
OS2_WeightWidthSlopeOnly: 0
OS2_UseTypoMetrics: 1
CreationTime: 1163025789
ModificationTime: 1313530249
PfmFamily: 65
TTFWeight: 400
TTFWidth: 5
LineGap: 90
VLineGap: 0
Panose: 0 0 0 0 0 0 0 0 0 0
OS2TypoAscent: 0
OS2TypoAOffset: 1
OS2TypoDescent: 0
OS2TypoDOffset: 1
OS2TypoLinegap: 0
OS2WinAscent: 900
OS2WinAOffset: 0
OS2WinDescent: 500
OS2WinDOffset: 0
HheadAscent: 0
HheadAOffset: 1
HheadDescent: 0
HheadDOffset: 1
OS2Vendor: 'PfEd'
Lookup: 1 1 0 "InitialGlyph"  {"InitialGlyph"  } ['init' ('DFLT' <'dflt' > 'hebr' <'dflt' > ) ]
Lookup: 1 1 0 "FinalGlyph"  {"FinalGlyph"  } ['fina' ('DFLT' <'dflt' > 'hebr' <'dflt' > ) ]
Lookup: 6 1 0 "ccmpAltAyin"  {"ccmpAltAyin subtable"  } ['ccmp' ('hebr' <'dflt' > ) ]
Lookup: 1 1 0 "Single Substitution lookup 14"  {"Single Substitution lookup 14 subtable"  } []
Lookup: 6 1 0 "ccmpVavHolam"  {"ccmpVavHolam subtable"  } ['ccmp' ('hebr' <'dflt' > ) ]
Lookup: 1 1 0 "salt MiscSAlt"  {"MiscSAlt"  } ['salt' ('hebr' <'dflt' > ) ]
Lookup: 4 1 0 "ccmp AlephLamed2"  {"AlephLamed2"  } ['ccmp' ('hebr' <'JUD ' > ) ]
Lookup: 4 1 0 "dlig AlephLamed"  {"AlephLamed"  } ['dlig' ('hebr' <'dflt' > ) ]
Lookup: 4 1 0 "ccmp CustomPrecomp"  {"CustomPrecomp"  } ['ccmp' ('hebr' <'dflt' > ) ]
Lookup: 1 1 0 "jalt WideLetters"  {"WideLetters"  } ['jalt' ('hebr' <'dflt' > ) ]
Lookup: 1 1 0 "ccmp Yiddish2"  {"Yiddish2"  } ['ccmp' ('hebr' <'JII ' > ) ]

StartChar: .notdef
Encoding: 0 -1 0
AltUni2: 000000.ffffffff.0 000000.ffffffff.0 000000.ffffffff.0 000000.ffffffff.0 000000.ffffffff.0 000000.ffffffff.0 000000.ffffffff.0 000000.ffffffff.0 000000.ffffffff.0 000000.ffffffff.0 000000.ffffffff.0 000000.ffffffff.0 000000.ffffffff.0 000000.ffffffff.0 000000.ffffffff.0 000000.ffffffff.0 000000.ffffffff.0 000000.ffffffff.0 000000.ffffffff.0
Width: 890
Flags: HMW
LayerCount: 2
Fore
SplineSet
319.167 650 m 1
 131.603 -50 l 1
 731.603 -50 l 1
 919.167 650 l 1
 319.167 650 l 1
282.564 700 m 1
 982.564 700 l 1
 768.205 -100 l 1
 68.2051 -100 l 1
 282.564 700 l 1
EndSplineSet
EndChar

StartChar: exclam
Encoding: 33 33 1
Width: 381
Flags: HMW
LayerCount: 2
Back
SplineSet
253.407 274.143 m 1
 374.407 727.289 l 1
147.147 689.289 m 1
 217.858 760 l 1
 232 745.857 l 1
 232 310.711 l 1
 161.29 240 l 1
 147.147 254.143 l 1
 147.147 689.289 l 1
190.711 -43.2715 m 1
 105.15 42.2891 l 1
 190.711 127.85 l 1
 276.271 42.2891 l 1
 190.711 -43.2715 l 1
EndSplineSet
Fore
SplineSet
161.707 240.959 m 5
 151.383 255.704 l 5
 272.384 708.851 l 5
 346.107 760.473 l 5
 356.432 745.729 l 5
 235.431 292.581 l 5
 161.707 240.959 l 5
110.59 -32.0918 m 1
 56.1387 62.2188 l 1
 150.449 116.67 l 1
 204.9 22.3594 l 1
 110.59 -32.0918 l 1
EndSplineSet
EndChar

StartChar: quotedbl
Encoding: 34 34 2
Width: 399
Flags: HMW
LayerCount: 2
Fore
SplineSet
464.397 803.631 m 5
 474.723 788.886 l 5
 491.06 749.533 493.896 700.626 479.699 647.646 c 4
 464.503 590.938 433.639 541.72 392.497 499.988 c 5
 318.773 448.367 l 5
 308.449 463.111 l 5
 349.591 504.843 380.454 554.06 395.65 610.769 c 4
 409.848 663.749 407.012 712.656 390.674 752.009 c 5
 464.397 803.631 l 5
264.397 803.631 m 1
 274.723 788.886 l 1
 291.06 749.533 293.896 700.626 279.699 647.646 c 0
 264.503 590.938 233.639 541.72 192.497 499.988 c 1
 118.773 448.367 l 1
 108.449 463.111 l 1
 149.591 504.843 180.454 554.06 195.65 610.769 c 0
 209.848 663.749 207.012 712.656 190.674 752.009 c 1
 264.397 803.631 l 1
EndSplineSet
EndChar

StartChar: percent
Encoding: 37 37 3
Width: 869
Flags: HMW
LayerCount: 2
Back
SplineSet
827.1 629.753 m 13
 89.0996 -0 l 29
387.833 602 m 4
 387 554 417 514 471 510 c 4
 565.934 502.968 622.255 532.285 705.6 570.106 c 5
534.163 221.583 m 4
 562.513 244.985 599.661 259.5 638.707 259.5 c 4
 716.052 259.5 771.689 202.548 762.9 132.375 c 4
 758.755 99.2803 741.016 69.126 715.314 46.5 c 4
721.657 29.1982 m 4
 693.244 5.54297 655.878 -9.15039 616.593 -9.15039 c 4
 539.249 -9.15039 483.609 47.8018 492.399 117.975 c 4
 496.605 151.551 514.803 182.099 541.109 204.831 c 4
193.356 602.062 m 4
 221.706 625.464 258.854 639.979 297.9 639.979 c 4
 375.245 639.979 430.883 583.026 422.094 512.854 c 4
 417.948 479.759 400.209 449.604 374.508 426.979 c 4
380.851 409.677 m 4
 352.438 386.021 315.071 371.328 275.786 371.328 c 4
 198.442 371.328 142.803 428.28 151.593 498.453 c 4
 155.799 532.029 173.996 562.577 200.303 585.31 c 4
EndSplineSet
Fore
SplineSet
435.507 435.486 m 1
 443.536 424.019 l 1
 440.097 421.154 436.525 418.421 432.835 415.83 c 2
 375.494 375.68 l 1
 374.88 375.25 l 2
 347.854 356.516 315.315 345.52 281.131 345.519 c 0
 235.209 345.518 196.941 365.595 175.264 396.593 c 2
 167.234 408.061 l 2
 152.4 429.273 145.336 455.602 148.907 484.111 c 0
 153.113 517.688 171.312 548.236 197.618 570.969 c 1
 242.052 602.082 l 1
 234.432 598.984 227.077 595.341 220.059 591.207 c 2
 198.701 576.253 l 1
 190.671 587.721 l 1
 194.006 590.475 197.463 593.104 201.031 595.603 c 2
 258.371 635.753 l 2
 285.128 654.488 318.103 665.788 352.556 665.788 c 0
 398.478 665.789 436.745 645.712 458.423 614.714 c 2
 466.453 603.246 l 2
 479.62 584.416 486.667 561.556 485.585 536.715 c 1
 495.238 532.479 506.186 529.743 518.324 528.845 c 0
 613.26 521.814 669.577 551.128 752.924 588.951 c 1
 754.452 586.769 l 1
 796.814 622.917 l 1
 912.726 653.976 l 1
 917.385 636.589 l 1
 179.385 6.83594 l 1
 63.4736 -24.2227 l 1
 58.8145 -6.83594 l 1
 706.622 545.954 l 1
 629.514 510.746 574.12 484.458 483.676 491.155 c 0
 480.706 491.375 477.809 491.704 474.984 492.138 c 1
 466.524 472.96 453.453 455.634 437.193 441.32 c 1
 390.974 408.957 l 1
 398.603 412.021 405.978 415.638 413.032 419.75 c 2
 435.507 435.486 l 1
776.312 55.0078 m 1
 784.343 43.5391 l 1
 780.902 40.6758 777.331 37.9424 773.641 35.3516 c 2
 716.3 -4.79883 l 1
 715.686 -5.22852 l 2
 688.661 -23.9619 656.122 -34.959 621.938 -34.96 c 0
 576.017 -34.9609 537.748 -14.8838 516.07 16.1143 c 2
 508.041 27.583 l 2
 493.207 48.7959 486.143 75.124 489.714 103.634 c 0
 493.919 137.209 512.117 167.758 538.423 190.489 c 1
 582.857 221.603 l 1
 575.237 218.506 567.884 214.861 560.865 210.729 c 2
 539.508 195.773 l 1
 531.478 207.241 l 1
 534.812 209.995 538.27 212.625 541.838 215.123 c 2
 599.179 255.273 l 2
 625.937 274.01 658.908 285.309 693.362 285.31 c 0
 739.284 285.31 777.552 265.233 799.229 234.235 c 2
 807.259 222.767 l 2
 822.093 201.555 829.154 175.225 825.586 146.716 c 0
 821.438 113.619 803.704 83.4688 777.999 60.8408 c 1
 731.781 28.4785 l 1
 739.41 31.5439 746.784 35.1602 753.84 39.2725 c 2
 776.312 55.0078 l 1
257.498 607.492 m 1
 262.988 599.651 l 1
 236.682 576.918 218.483 546.37 214.278 512.794 c 0
 211.017 486.758 216.471 462.94 228.821 442.542 c 1
 250.806 415.104 287.495 397.137 330.441 397.137 c 0
 346.693 397.137 362.59 399.638 377.688 404.262 c 1
 371.822 412.638 l 1
 397.524 435.264 415.26 465.416 419.408 498.513 c 0
 420.442 506.767 420.602 514.797 419.941 522.566 c 0
 418.878 523.887 417.856 525.24 416.878 526.624 c 2
 416.752 526.805 l 2
 416.616 526.996 416.614 527 416.614 527 c 1
 410.305 536.011 l 2
 401.564 548.515 396.259 563.521 394.681 579.812 c 1
 372.379 600.926 340.118 614.171 303.245 614.17 c 0
 287.536 614.17 272.142 611.824 257.498 607.492 c 1
598.303 227.014 m 1
 603.794 219.172 l 1
 577.488 196.44 559.29 165.892 555.085 132.316 c 0
 551.823 106.28 557.277 82.4629 569.628 62.0645 c 1
 591.612 34.624 628.302 16.6582 671.248 16.6592 c 0
 687.5 16.6592 703.396 19.1592 718.493 23.7832 c 1
 712.629 32.1592 l 1
 738.333 54.7871 756.066 84.9365 760.215 118.034 c 0
 763.474 144.068 758.022 167.887 745.672 188.286 c 1
 723.688 215.725 686.998 233.691 644.052 233.69 c 0
 628.342 233.69 612.948 231.346 598.303 227.014 c 1
EndSplineSet
Comment: "circles 70 14 35+AAoA-slash 120 18 15+AAoA-hook 50 11 35" 
EndChar

StartChar: parenleft
Encoding: 40 40 4
Width: 313
Flags: HMW
LayerCount: 2
Back
SplineSet
131.884 -113.184 m 1
 121.559 -98.4385 l 1
 42.9756 174.562 121.98 425.562 329.841 681.562 c 1
 403.564 733.183 l 1
 413.889 718.438 l 5
 206.027 462.438 127.027 211.442 205.607 -61.5615 c 1
 131.884 -113.184 l 1
163.583 -80 m 5
 85 193 164 444 371.865 700 c 5
EndSplineSet
Fore
SplineSet
131.884 -113.184 m 1
 121.559 -98.4385 l 1
 42.9756 174.562 121.98 425.562 329.841 681.562 c 1
 403.564 733.183 l 1
 417.889 712.438 l 5
 210.027 456.438 127.027 211.442 205.607 -61.5615 c 1
 131.884 -113.184 l 1
EndSplineSet
EndChar

StartChar: parenright
Encoding: 41 41 5
Width: 313
Flags: HMW
LayerCount: 2
Back
SplineSet
243.564 723.184 m 1
 253.889 708.438 l 1
 332.459 435.429 253.478 184.443 45.6074 -71.5615 c 1
 -28.1162 -123.184 l 1
 -38.4404 -108.438 l 5
 169.43 147.566 248.411 398.552 169.841 671.562 c 1
 243.564 723.184 l 1
211.865 690 m 5
 290.448 417 211.448 166 3.58301 -90 c 5
EndSplineSet
Fore
SplineSet
243.564 723.184 m 1
 253.889 708.438 l 1
 332.459 435.429 253.478 184.443 45.6074 -71.5615 c 1
 -28.1162 -123.184 l 1
 -42.4404 -102.438 l 5
 165.43 153.566 248.411 398.552 169.841 671.562 c 1
 243.564 723.184 l 1
EndSplineSet
EndChar

StartChar: asterisk
Encoding: 42 42 6
Width: 713
Flags: HMW
LayerCount: 2
Back
SplineSet
165.11 108.5 m 17
 381.355 339.5 l 1
 473.81 108.5 l 9
149.613 415.1 m 17
 381.355 339.5 l 1
 653.613 415.1 l 9
448.879 591.5 m 25
 381.355 339.5 l 25
EndSplineSet
Fore
SplineSet
483.35 621.794 m 1
 492.35 606.205 l 1
 430.062 373.747 l 1
 688.085 445.394 l 1
 697.085 429.806 l 1
 619.143 384.806 l 1
 433.239 333.185 l 1
 517.28 123.206 l 1
 439.338 78.2061 l 1
 430.338 93.7939 l 1
 355.677 280.338 l 1
 208.582 123.206 l 1
 130.64 78.2061 l 1
 121.64 93.7939 l 1
 328.812 315.102 l 1
 115.143 384.806 l 1
 106.143 400.394 l 1
 184.085 445.394 l 1
 355.238 389.56 l 1
 405.407 576.794 l 1
 483.35 621.794 l 1
EndSplineSet
EndChar

StartChar: plus
Encoding: 43 43 7
Width: 820
Flags: HMW
LayerCount: 2
Back
SplineSet
516.987 550 m 29
 383.013 50 l 29
740 300 m 29
 160 300 l 29
EndSplineSet
Fore
SplineSet
548.687 583.184 m 5
 559.012 568.438 l 5
 425.036 68.4385 l 5
 351.312 16.8164 l 5
 340.988 31.5615 l 5
 474.963 531.562 l 5
 548.687 583.184 l 5
777.354 316.39 m 5
 711.822 270.504 l 5
 131.822 270.504 l 5
 122.645 283.61 l 5
 188.177 329.496 l 5
 768.178 329.496 l 5
 777.354 316.39 l 5
EndSplineSet
Substitution2: "MiscSAlt" uniFB29
EndChar

StartChar: two
Encoding: 50 50 8
Width: 694
Flags: HMW
LayerCount: 2
Back
SplineSet
658.906 30.3945 m 1
 585.183 -21.2275 l 1
 417.207 17.6025 254.785 19.4336 80.749 -20.8623 c 0
 59.5996 -25.7598 38.2803 -31.2783 16.7578 -37.4277 c 1
 6.43359 -22.6826 l 1
 80.1572 28.9395 l 1
 125.898 51.0098 l 0
 262.564 117.725 354.393 169.941 418.905 211.787 c 1
 455.706 239.813 481.242 263.113 505.929 285.073 c 0
 603.891 372.218 645.171 439.054 639.974 515.178 c 0
 638.195 541.317 630.792 564.723 619.003 584.127 c 1
 579.977 632.807 507.431 657.574 412.959 657.572 c 0
 363.655 657.571 310.425 646.162 265.563 625.16 c 1
 244.91 603.188 230.696 577.475 225.765 548.004 c 0
 223.189 532.614 227.062 513.825 237.01 496.718 c 1
 260.014 469.003 300.645 446.379 360.077 444.695 c 1
 370.401 429.95 l 1
 296.678 378.328 l 1
 232.205 380.159 189.725 406.727 168.135 437.521 c 0
 157.81 452.266 l 0
 144.011 471.947 138.742 493.353 141.717 511.127 c 0
 148.966 554.449 176.457 589.873 214.247 616.363 c 0
 287.971 667.985 l 0
 339.914 704.398 411.31 723.938 476.358 723.939 c 0
 575.198 723.941 650.173 696.753 687.616 643.555 c 0
 687.731 643.391 l 0
 687.846 643.227 687.582 643.604 687.85 643.223 c 0
 698.174 628.478 l 0
 713.101 607.146 722.008 581.646 724.021 552.055 c 0
 729.22 475.931 687.938 409.095 589.977 321.95 c 0
 558.146 293.636 524.868 263.045 468.267 223.341 c 1
 393.755 171.167 l 0
 349.008 139.851 290.033 103.176 206.591 58.2451 c 1
 357.479 84.8584 500.79 79.3027 648.582 45.1396 c 1
 658.906 30.3945 l 1
616.882 11.9561 m 21
 428.505 55.5117 247.085 52.5117 48.458 -4.24414 c 5
 391.637 159.512 474.881 238.512 547.952 303.512 c 4
 645.919 390.66 687.188 457.486 681.998 533.616 c 4
 674.933 637.296 583.258 690.756 444.659 690.756 c 4
 332.288 690.756 200.956 632.436 183.741 529.565 c 4
 176.112 483.98 222.696 414.512 328.377 411.512 c 4
EndSplineSet
Fore
SplineSet
638.906 30.3945 m 5
 565.183 -21.2275 l 5
 397.207 17.6025 234.785 19.4336 60.749 -20.8623 c 4
 39.5996 -25.7598 18.2803 -31.2783 -3.24219 -37.4277 c 5
 -13.5664 -22.6826 l 5
 60.1572 28.9395 l 5
 105.898 51.0098 l 6
 248.935 120.026 365.071 193.427 482.5 286 c 4
 585.466 367.172 619.974 440 619.974 509.334 c 4
 619.974 535.533 611.532 564.893 598.003 583.127 c 4
 561 633 487.431 657.574 392.959 657.572 c 4
 343.655 657.571 290.425 646.162 245.562 625.16 c 5
 224.91 603.188 211.98 578.579 207.666 549.333 c 4
 204.667 529 208.181 508.872 220 493 c 4
 243.333 461.667 285.333 449 340.077 444.695 c 5
 350.401 429.95 l 5
 276.678 378.328 l 5
 205.726 380.343 166.396 409.014 141.897 444 c 4
 127.806 464.126 121.067 495.494 124.667 517 c 4
 131.916 560.322 156.457 589.873 194.247 616.363 c 4
 267.971 667.985 l 4
 319.914 704.398 391.31 723.938 456.358 723.939 c 4
 563.58 723.941 634.079 693.884 674.607 636 c 4
 690.906 612.722 701.74 585.578 704.021 552.055 c 4
 709.22 475.931 667.938 409.095 569.977 321.95 c 4
 538.146 293.636 504.459 263.622 448.267 223.341 c 4
 362 161.5 293.5 115.5 207 61.5 c 5
 342 83.5 480.79 79.3027 628.582 45.1396 c 5
 638.906 30.3945 l 5
EndSplineSet
EndChar

StartChar: three
Encoding: 51 51 9
Width: 698
Flags: HMW
LayerCount: 2
Back
SplineSet
129.91 581.562 m 1
 203.634 633.184 l 1
 320.63 529.931 526.677 594.236 688.344 633.184 c 1
 698.668 618.438 l 1
 698.668 618.438 550.454 477.99 437.04 378.742 c 1
 502.221 367.723 552.405 340.455 579.354 302.02 c 0
 589.837 287.047 l 1
 591.611 284.499 593.025 282.312 594.516 279.833 c 0
 639.78 204.506 627.116 91.9111 543.646 15.6465 c 0
 534.826 7.58789 525.33 0.0146484 515.259 -7.04199 c 0
 441.535 -58.6641 l 0
 441.146 -58.9346 l 1
 335.854 -132.364 168.902 -149.358 54.332 -73.1758 c 0
 45.2363 -67.1279 37.0518 -58.9492 30.2695 -49.2842 c 0
 19.9453 -34.5391 l 0
 19.6279 -34.0879 19.9268 -34.5137 19.9268 -34.5137 c 1
 19.8125 -34.3496 19.8047 -34.3379 19.6895 -34.1738 c 0
 -2.84277 -1.77246 -9.66504 47.1191 17.5625 88.5098 c 1
 91.2861 140.132 l 1
 101.61 125.387 l 1
 76.3691 87.0156 80.375 42.2676 99.0449 10.082 c 1
 104.409 3.69727 110.938 -2.29199 117.731 -6.80859 c 0
 218.861 -74.0527 360.827 -68.666 465.109 -16.0439 c 1
 543.298 59.8887 554.823 168.886 510.529 242.852 c 1
 479.327 281.506 421.96 308.165 350.05 315.564 c 1
 339.725 330.31 l 1
 427.708 406.594 540.686 512.001 589.839 558.194 c 1
 434.713 519.642 248.924 470.896 140.234 566.817 c 1
 129.91 581.562 l 1
171.934 600 m 17
 288.919 496.741 494.98 561.053 656.644 600 c 1
 656.644 600 497.593 449.188 381.749 348.748 c 1
 462.427 340.445 524.237 308.419 552.491 261.395 c 0
 597.754 186.065 585.094 73.4736 501.622 -2.79199 c 0
 400.854 -94.8623 211.806 -123.624 86.0312 -39.9922 c 0
 46.4482 -13.6709 24.1035 53.0078 59.5859 106.948 c 0
EndSplineSet
Fore
SplineSet
149.91 581.562 m 5
 223.634 633.184 l 5
 340.63 529.931 546.677 594.236 708.344 633.184 c 5
 718.668 618.438 l 5
 718.668 618.438 570.454 477.99 457.04 378.742 c 5
 528.305 366.694 575.579 338.166 605.619 295.5 c 4
 663 214 654.807 98.9385 563.646 15.6465 c 4
 554.826 7.58789 545.33 0.0146484 535.259 -7.04199 c 4
 461.535 -58.6641 l 4
 461.146 -58.9346 l 5
 382.885 -113.513 270.561 -136.913 171 -114.048 c 4
 121.343 -102.645 71.002 -81.3223 43.8193 -42.5 c 4
 20.7637 -9.57227 6.65234 41.5215 37.5625 88.5098 c 5
 111.286 140.132 l 5
 121.61 125.387 l 5
 96.3691 87.0156 97.1133 40.3838 120.045 11.082 c 4
 147.5 -24 209.604 -44.917 259.5 -52.4287 c 4
 336.431 -64.0107 418.465 -49.6729 485.109 -16.0439 c 5
 563.298 59.8887 580 172.5 529.529 241.852 c 4
 500.299 282.017 441.96 308.165 370.05 315.564 c 5
 359.725 330.31 l 5
 447.708 406.594 560.686 512.001 609.839 558.194 c 5
 454.713 519.642 268.924 470.896 160.234 566.817 c 5
 149.91 581.562 l 5
EndSplineSet
EndChar

StartChar: four
Encoding: 52 52 10
Width: 687
Flags: HMW
LayerCount: 2
Back
SplineSet
546.863 680.184 m 1
 557.188 665.438 l 1
 493.657 438.808 381.703 326.135 173.1 172.548 c 1
 308.482 205.456 469.305 212.991 606.822 195.184 c 1
 610.269 190.261 l 1
 660.456 377.562 l 1
 734.18 429.184 l 1
 744.504 414.438 l 1
 637.324 14.4385 l 1
 563.6 -37.1836 l 1
 553.275 -22.4385 l 1
 605.44 172.242 l 1
 543.423 128.817 l 1
 388.9 148.826 204.803 136.815 60.7871 92.8164 c 1
 50.4629 107.562 l 1
 284.643 276.566 405.86 388.555 473.14 628.562 c 5
 546.863 680.184 l 1
702.479 396 m 25
 595.3 -4 l 25
515.164 647 m 17
 447.895 407 326.658 295 92.4863 126 c 1
 236.507 170 420.586 182 575.122 162 c 9
EndSplineSet
Fore
SplineSet
491.863 680.184 m 1
 502.188 665.438 l 1
 438.657 438.808 326.703 326.135 118.1 172.548 c 1
 253.482 205.456 414.305 212.991 551.822 195.184 c 1
 555.269 190.261 l 1
 605.456 377.562 l 1
 679.18 429.184 l 1
 689.504 414.438 l 1
 582.324 14.4385 l 1
 508.6 -37.1836 l 1
 498.275 -22.4385 l 1
 550.44 172.242 l 1
 488.423 128.817 l 1
 333.9 148.826 149.803 136.815 5.78711 92.8164 c 1
 -4.53711 107.562 l 1
 183.5 250 317.22 364.993 384.5 605 c 1
 491.863 680.184 l 1
EndSplineSet
EndChar

StartChar: five
Encoding: 53 53 11
Width: 678
Flags: HMW
LayerCount: 2
Back
SplineSet
680.956 618.575 m 1
 607.232 566.953 l 1
 467.371 534.536 360.855 519.429 264.979 545.77 c 1
 247.138 484.893 218.058 416.827 177.78 355.974 c 1
 307.397 390.012 461.058 373.743 532.147 304.627 c 0
 541.562 295.413 549.693 285.812 556.612 275.931 c 0
 566.937 261.187 l 0
 567.33 260.624 566.993 261.105 566.993 261.105 c 1
 567.288 260.684 l 0
 629.09 171.846 593.238 60.5205 511.49 3.35938 c 0
 437.766 -48.2627 l 0
 435.529 -49.8271 433.258 -51.3506 430.954 -52.832 c 0
 317.478 -125.781 117.516 -162.697 20.2783 -67.9482 c 0
 13.1895 -61.0439 6.5791 -53.3584 0.792969 -45.0889 c 0
 -9.53125 -30.3447 l 0
 -31.8027 1.47754 -41.8828 41.9307 -20.1836 79.6406 c 1
 53.54 131.263 l 1
 63.8643 116.518 l 1
 43.8047 81.6562 50.8555 44.5996 69.6367 13.9678 c 1
 73.7939 8.71875 78.7646 3.2041 83.6777 -1.58203 c 0
 171.373 -87.0322 342.501 -65.4482 458.717 -6.76465 c 1
 515.101 51.8457 535.391 141.372 487.859 216.837 c 1
 482.643 223.595 475.758 231.4 468.748 238.26 c 0
 392.836 312.065 222.261 325.544 88.5391 282.017 c 1
 78.2148 296.762 l 1
 145.836 389.463 184.09 499.699 197.857 581.698 c 1
 271.581 633.32 l 1
 382.851 580.306 502.617 594.378 670.631 633.32 c 1
 680.956 618.575 l 1
638.932 600.137 m 1
 470.914 561.193 351.16 547.128 239.882 600.137 c 1
 226.115 518.139 187.858 407.9 120.239 315.2 c 1
 253.961 358.728 424.534 345.248 500.448 271.443 c 0
 596.898 177.034 558.722 42.1085 462.653 -19.6484 c 0
 349.178 -92.5977 149.215 -129.515 51.9785 -34.7646 c 0
 17.6064 -1.29102 -5.49707 50.5703 21.8398 98.0791 c 1
EndSplineSet
Fore
SplineSet
710.956 618.575 m 1
 637.232 566.953 l 1
 497.371 534.536 374.5 517.5 284 549.5 c 1
 259 484.5 229.5 417.5 177 346 c 1
 229 365.5 297.231 373.122 342 373.15 c 0
 456.776 373.219 545 340 593.516 268.5 c 0
 614.449 237.649 628.472 199.478 628.512 163 c 0
 628.58 100.925 594.79 40.6289 541.49 3.35938 c 0
 467.766 -48.2627 l 0
 465.529 -49.8271 463.258 -51.3506 460.954 -52.832 c 0
 394.85 -95.3271 299.398 -125.595 212 -124.73 c 0
 130.371 -123.923 64 -95.5 24.4795 -38.5 c 0
 1.53125 -5.40234 -14.5059 37.373 9.81641 79.6406 c 1
 83.54 131.263 l 1
 93.8643 116.518 l 1
 73.8047 81.6562 79.9033 44.3135 100.637 14.9678 c 0
 137 -36.5 207.567 -58.7754 281 -58.3916 c 0
 352.06 -58.0205 427.906 -37.4717 488.717 -6.76465 c 1
 523.632 29.5283 544.706 77.6768 544.407 127 c 0
 544.223 157.329 537.104 186.913 516.859 215.837 c 0
 473 278.5 381.961 306.902 278 306.761 c 0
 224.297 306.688 168.813 298.381 118.539 282.017 c 1
 108.215 296.762 l 1
 175.836 389.463 214.09 499.699 227.857 581.698 c 1
 301.581 633.32 l 1
 412.851 580.306 532.617 594.378 700.631 633.32 c 1
 710.956 618.575 l 1
EndSplineSet
EndChar

StartChar: six
Encoding: 54 54 12
Width: 733
Flags: HMW
LayerCount: 2
Back
SplineSet
121.33 45.8916 m 2
 121.315 45.9082 121.643 45.5215 121.51 45.6787 c 0
 117.876 50.0254 114.289 54.7139 110.813 59.6787 c 0
 100.489 74.4229 l 0
 97.5928 78.5605 94.7734 82.8906 92.0684 87.377 c 0
 36.4277 179.637 50.8037 306.726 120.669 414.044 c 0
 163.354 479.608 216.587 537.602 277.149 579.988 c 0
 350.873 631.609 l 0
 354.146 633.9 359.443 637.485 361.467 638.815 c 1
 453.33 699.034 556.948 722.013 664.668 683.795 c 0
 680.135 678.304 693.634 669.087 703.309 657.537 c 0
 704.688 655.892 705.989 654.198 707.208 652.463 c 0
 717.532 637.718 l 0
 717.885 637.216 717.561 637.679 717.561 637.679 c 1
 717.823 637.301 l 0
 734.456 613.252 735.209 581.039 706.031 551.376 c 1
 632.308 499.754 l 1
 621.983 514.499 l 1
 648.361 541.316 650.311 569.959 638.169 593.177 c 1
 628.868 603.526 615.762 612.283 601.269 617.428 c 0
 503.67 652.056 408.768 635.995 324.68 588.71 c 1
 279.984 550.961 238.717 503.146 204.717 450.921 c 0
 134.852 343.603 120.477 216.514 176.116 124.254 c 0
 177.25 122.374 178.19 120.858 179.496 118.821 c 1
 181.059 116.776 183.132 114.172 184.909 112.045 c 0
 185.133 111.78 l 0
 185.191 111.71 185.338 111.537 184.667 112.332 c 2
 185.265 111.627 l 0
 237.994 48.8965 319.333 27 410.959 33.9814 c 0
 455.566 37.3799 496.93 48.3721 534.783 66.8555 c 1
 547.594 79.3076 560.689 94.8291 571.367 110.962 c 0
 614.838 176.651 626.817 255.471 592.163 312.943 c 1
 591.765 313.436 591.121 314.222 590.615 314.826 c 0
 585.962 320.381 580.779 325.664 575.043 330.627 c 0
 483.638 409.714 370.294 400.282 268.321 340.979 c 1
 257.997 355.723 l 1
 331.721 407.345 l 1
 433.692 466.649 547.037 476.08 638.442 396.994 c 0
 644.179 392.03 649.361 386.748 654.015 381.192 c 0
 656.51 378.213 658.851 375.153 661.04 372.021 c 0
 671.365 357.275 l 0
 711.827 299.377 700.786 216.4 655.415 147.839 c 0
 636.493 119.249 612.515 94.9746 584.195 75.1455 c 0
 510.471 23.5234 l 0
 509.636 22.9404 l 1
 507.139 21.209 505.819 20.3193 503.706 18.9258 c 1
 458.769 -10.5293 405.633 -27.9609 347.56 -32.3857 c 0
 255.934 -39.3672 174.598 -17.4688 121.865 45.2607 c 0
 121.295 45.9326 l 2
 121.334 45.8867 121.33 45.8916 121.33 45.8916 c 2
300.021 374.162 m 1
 402.001 433.47 515.326 442.891 606.742 363.811 c 0
 612.479 358.847 617.662 353.565 622.315 348.01 c 0
 670.904 289.969 661.22 201.672 613.391 129.4 c 0
 592.983 98.5664 566.699 72.7568 535.428 52.123 c 1
 534.866 51.7549 l 0
 490.944 22.9668 437.299 5.22168 379.26 0.797852 c 0
 287.629 -6.1875 206.297 15.7148 153.564 78.4434 c 0
 153.215 78.8564 l 1
 153.215 78.8564 153.673 78.3115 153.21 78.8623 c 0
 146.548 86.8311 140.043 95.9463 134.092 105.815 c 0
 78.4531 198.075 92.8252 325.163 162.692 432.482 c 0
 208.033 502.124 265.267 563.217 330.549 606.146 c 1
 330.972 606.422 l 0
 420.6 665.175 525.285 688.824 632.969 650.611 c 0
 648.437 645.121 661.933 635.902 671.609 624.354 c 0
 692.131 599.87 695.469 564.923 664.008 532.938 c 1
EndSplineSet
Fore
SplineSet
104.337 66.5 m 4
 37.8516 160.04 43.0684 294.844 120.669 414.044 c 4
 163.354 479.608 216.587 537.602 277.149 579.988 c 4
 350.873 631.609 l 4
 354.146 633.9 359.443 637.485 361.467 638.815 c 5
 453.33 699.034 563.5 725 665 683.5 c 4
 686.434 674.736 702.96 662.624 713.434 646 c 4
 729.5 620.5 731 579 706.031 551.376 c 5
 632.308 499.754 l 5
 621.983 514.499 l 5
 644 537.5 650.5 568 637.169 592.177 c 4
 630.45 604.362 617.308 613.861 603 619.5 c 4
 518 653 408.768 635.995 324.68 588.71 c 5
 279.984 550.961 238.717 503.146 204.717 450.921 c 4
 133.229 341.109 119.518 210.693 180.496 119.821 c 4
 225 53.5 314.65 26.6436 410.959 33.9814 c 4
 455.566 37.3799 496.93 48.3721 534.783 66.8555 c 5
 547.594 79.3076 560.689 94.8291 571.367 110.962 c 4
 614.838 176.651 624.186 262.108 590.163 310.943 c 4
 521.5 409.5 375.22 403.147 268.321 340.979 c 5
 257.997 355.723 l 5
 331.721 407.345 l 5
 448.382 475.192 594.5 473.5 666.306 364.5 c 4
 706.921 302.846 704.907 222.627 655.415 147.839 c 4
 636.493 119.249 612.515 94.9746 584.195 75.1455 c 4
 510.471 23.5234 l 4
 509.636 22.9404 l 5
 507.139 21.209 505.819 20.3193 503.706 18.9258 c 5
 458.769 -10.5293 405.633 -27.9609 347.56 -32.3857 c 4
 240.904 -40.5127 158 -9 104.337 66.5 c 4
EndSplineSet
EndChar

StartChar: seven
Encoding: 55 55 13
Width: 644
Flags: HMW
LayerCount: 2
Back
SplineSet
283.632 270 m 17
 368.632 290 453.632 290 520.632 267 c 9
110 600 m 0
 222 564 582 546 717 600 c 1
 499.632 471 389.632 244 331.632 -4 c 0
EndSplineSet
Fore
SplineSet
62.9766 581.562 m 1
 136.7 633.184 l 1
 248.698 597.182 608.701 579.186 743.699 633.184 c 1
 754.023 618.438 l 1
 680.3 566.816 l 2
 678.604 565.81 675.757 564.098 674.827 563.534 c 0
 590.508 495.697 525.903 410.844 476.124 315.507 c 1
 501.375 312.809 525.324 307.736 547.332 300.184 c 1
 557.656 285.438 l 1
 483.933 233.817 l 1
 470.798 238.325 456.973 241.949 442.592 244.712 c 1
 411.332 171.84 387.317 94.2402 368.655 14.4385 c 1
 294.932 -37.1836 l 1
 284.607 -22.4385 l 1
 307.031 73.4521 337.204 166.184 378.373 251.339 c 1
 336.303 252.317 291.619 247.331 246.932 236.816 c 1
 236.607 251.562 l 1
 310.331 303.184 l 1
 345.152 311.377 379.971 316.212 413.553 317.486 c 1
 466.539 408.144 534.445 487.794 621.854 550.2 c 1
 461.744 517.609 171.675 535.193 73.3008 566.816 c 1
 62.9766 581.562 l 1
EndSplineSet
EndChar

StartChar: eight
Encoding: 56 56 14
Width: 748
Flags: HMW
LayerCount: 2
Back
SplineSet
292.759 382.645 m 1
 279.043 392.834 267.287 404.211 258.236 417.115 c 2
 247.912 431.86 l 2
 242.053 440.228 237.288 449.252 233.807 459.062 c 0
 218.651 501.769 233.911 535.168 268.26 559.266 c 2
 341.983 610.888 l 2
 347.182 614.528 352.811 617.964 358.841 621.184 c 1
 369.164 606.438 l 1
 338.464 584.941 l 1
 313.952 561.785 304.946 532.319 317.854 495.938 c 0
 320.307 489.027 323.514 482.304 327.076 476.293 c 1
 338.135 462.729 351.893 451.245 367.991 440.823 c 0
 411.204 412.848 470.047 393.822 528.527 373.048 c 1
 545.9 385.213 l 2
 551.602 388.545 560.044 393.604 564.207 396.15 c 0
 569.726 400.793 573.743 404.374 578.177 408.591 c 0
 619.174 447.59 647.84 486.593 654.976 542.562 c 0
 657.57 562.912 653.299 583.047 643.12 600.693 c 1
 615.438 633.899 563.84 656.818 493.107 656.816 c 0
 411.666 656.815 339.748 634.818 255.969 584.816 c 1
 245.644 599.562 l 1
 319.367 651.184 l 1
 403.148 701.186 475.065 723.182 556.507 723.184 c 0
 632.213 723.185 686.09 696.858 712.006 659.895 c 2
 722.33 645.149 l 2
 736.114 625.463 742 602.779 739.024 579.438 c 0
 731.889 523.47 703.223 484.467 662.225 445.468 c 0
 649.099 432.982 633.839 420.975 616.239 408.591 c 0
 616.236 408.591 615.612 408.177 615.106 407.823 c 2
 552.872 364.246 l 1
 567.644 358.684 l 2
 621.683 337.921 661.746 307.658 685.41 273.865 c 2
 695.735 259.121 l 2
 726.188 215.575 729.354 166.124 699.93 123.438 c 0
 685.858 103.027 668.18 85.6367 647.401 71.0859 c 2
 573.678 19.4648 l 1
 573.248 19.1641 l 2
 514.868 -21.4531 432.899 -39.6816 337.884 -39.6836 c 0
 226.878 -39.6855 124.442 -13.5576 81.8701 47.2441 c 2
 71.5459 61.9893 l 2
 63.5439 73.4316 57.6641 86.1035 54.2461 100.062 c 0
 34.2207 181.845 85.1113 240.212 163.269 294.938 c 2
 236.992 346.561 l 2
 249.623 355.404 262.967 364.152 276.838 372.888 c 0
 281.838 376.037 287.363 379.418 292.759 382.645 c 1
317.253 366.755 m 1
 299.49 354.316 l 1
 269.756 339.512 241.519 324.119 214.564 307.229 c 1
 156.331 259.905 121.179 206.851 138.295 136.938 c 0
 140.981 125.965 145.271 115.625 150.792 106.314 c 1
 196.143 50.8682 294.854 26.6816 401.283 26.6836 c 0
 476.209 26.6855 543.031 38.0479 596.568 62.7324 c 1
 603.053 69.582 610.061 78.1182 615.882 86.5615 c 0
 643.741 126.977 642.488 172.924 616.535 214.891 c 1
 592.71 245.323 554.256 273.102 504.244 292.316 c 0
 439.327 317.258 369.282 336.972 317.253 366.755 c 1
327.141 588 m 4
 281.25 563.5 258.382 526.666 275.831 477.5 c 4
 305.468 394 427.692 367.086 535.944 325.5 c 4
 659.59 278 710.178 180.827 657.905 105 c 4
 604.479 27.5 498.994 -6.5 369.583 -6.5 c 4
 237.698 -6.5 117.854 30.3438 96.2715 118.5 c 4
 73.0098 213.5 145.43 276.908 245.139 339.705 c 4
 271.804 356.5 301.062 372.5 331.189 387.5 c 4
514.2 352.029 m 5
 550.991 373.529 592.017 400.221 620.2 427.029 c 4
 661.2 466.03 689.862 505.029 697 561 c 4
 705.568 628.186 640.812 690 524.808 690 c 4
 443.367 690 371.447 668 287.668 618 c 4
EndSplineSet
Fore
SplineSet
292.759 382.645 m 1
 267.918 401.098 242.429 426.176 232.807 458.062 c 0
 220 500.5 233.911 535.168 268.26 559.266 c 2
 341.983 610.888 l 2
 347.182 614.528 352.811 617.964 358.841 621.184 c 1
 369.164 606.438 l 1
 338.464 584.941 l 1
 313.952 561.785 304.594 529.034 316.854 494.938 c 0
 326 469.5 345.716 455.244 367.991 440.823 c 0
 411.204 412.848 470.047 393.822 528.527 373.048 c 1
 545.9 385.213 l 2
 551.602 388.545 560.044 393.604 564.207 396.15 c 0
 569.726 400.793 573.743 404.374 578.177 408.591 c 0
 619.174 447.59 649.5 486 656 539 c 0
 658.972 563.237 654.499 586.976 641 602.5 c 0
 611 637 558 656.816 493.107 656.816 c 0
 411.666 656.816 339.748 634.818 255.969 584.816 c 1
 245.644 599.562 l 1
 319.367 651.184 l 1
 403.148 701.186 475.065 723.182 556.507 723.184 c 0
 638.685 723.185 688.667 696 718.833 655 c 0
 734.152 634.179 742.725 607.486 739.024 579.438 c 0
 732.5 530 703.223 484.467 662.225 445.468 c 0
 649.099 432.982 633.839 420.975 616.239 408.591 c 0
 616.236 408.591 615.612 408.177 615.106 407.823 c 2
 552.872 364.246 l 1
 567.644 358.684 l 2
 626.325 336.137 664.146 305.478 691.218 268 c 0
 723 224 733.084 171.536 699.93 123.438 c 0
 685.858 103.027 668.18 85.6367 647.401 71.0859 c 2
 573.678 19.4648 l 1
 573.248 19.1641 l 2
 514.868 -21.4531 432.899 -39.6816 337.884 -39.6836 c 0
 217.495 -39.6855 121.063 -11.1611 74.7393 55 c 0
 65.5303 68.1533 58.3428 83.3301 54.2461 100.062 c 0
 34.2207 181.845 85.1113 240.212 163.269 294.938 c 2
 236.992 346.561 l 2
 249.623 355.404 262.967 364.152 276.838 372.888 c 0
 281.838 376.037 287.363 379.418 292.759 382.645 c 1
317.253 366.755 m 1
 299.49 354.316 l 1
 269.756 339.512 241.519 324.119 214.564 307.229 c 1
 156.331 259.905 121.179 206.851 138.295 136.938 c 0
 159.29 51.168 288.613 26.6816 401.283 26.6836 c 0
 476.209 26.6855 543.031 38.0479 596.568 62.7324 c 1
 603.053 69.582 610.061 78.1182 615.882 86.5615 c 0
 643.741 126.977 642.667 173.333 615.535 213.891 c 0
 594.045 246.015 554.256 273.102 504.244 292.316 c 0
 439.327 317.258 369.282 336.972 317.253 366.755 c 1
EndSplineSet
EndChar

StartChar: nine
Encoding: 57 57 15
Width: 708
Flags: HMW
LayerCount: 2
Back
SplineSet
520.819 263.493 m 1
 447.096 211.871 l 1
 400.67 183.655 347.831 167.912 300.712 167.912 c 0
 228.875 167.91 163.938 200.033 128.223 251.039 c 0
 117.898 265.783 l 0
 82.4385 316.426 75.7939 385.688 119.819 460.613 c 0
 135.978 488.11 158.878 513.084 187.714 533.293 c 0
 261.438 584.915 l 0
 261.914 585.248 l 1
 300.929 612.418 350.168 630.729 408.254 635.184 c 0
 508.39 642.86 597.053 610.625 648.176 537.567 c 0
 658.5 522.823 l 0
 659.145 521.901 659.783 520.974 660.416 520.039 c 0
 720.153 431.836 697.788 284.155 647.37 178.533 c 0
 614.426 109.532 566.134 49.5342 498.234 -2.4668 c 0
 494.285 -5.49219 490.269 -8.43262 486.19 -11.2852 c 0
 412.467 -62.9072 l 0
 326.816 -122.821 213.669 -144.259 112.839 -102.672 c 0
 87.4434 -92.1973 65.8828 -76.252 51.8584 -56.1914 c 0
 41.5342 -41.4473 l 0
 32.0166 -27.833 25.9697 -12.3242 24.5518 4.65625 c 1
 98.2754 56.2783 l 1
 108.6 41.5332 l 1
 109.768 27.5508 113.996 14.7422 120.832 2.88574 c 1
 134.486 -13.498 154.051 -27.1533 176.238 -36.3047 c 0
 263.4 -72.2549 359.812 -61.0859 439.582 -18.7422 c 1
 493.845 27.959 534.572 81.4404 563.322 141.656 c 0
 612.883 245.481 635.332 390.141 579.294 478.692 c 1
 527.617 546.212 441.408 576.22 344.854 568.816 c 0
 304.793 565.745 268.783 556 237.753 541.467 c 1
 224.724 528.23 213.068 513.149 203.867 497.491 c 0
 161.933 426.125 165.881 360.229 197.003 310.144 c 1
 233.465 263.613 295.829 234.277 364.111 234.278 c 0
 411.23 234.279 464.069 250.022 510.495 278.238 c 1
 520.819 263.493 l 1
478.795 245.055 m 0
 432.371 216.84 379.529 201.095 332.411 201.095 c 0
 189.254 201.095 73.4746 328.663 161.844 479.053 c 0
 199.76 543.576 274.801 594.199 376.555 602 c 0
 477.953 609.773 567.584 576.62 618.393 501.601 c 0
 678.13 413.398 655.771 265.72 605.346 160.095 c 0
 572.403 91.0947 524.108 31.0947 456.211 -20.9053 c 0
 369.319 -87.4531 250.171 -113.056 144.538 -69.4883 c 0
 101.908 -51.9053 70.083 -18.9053 66.5752 23.0947 c 0
EndSplineSet
Fore
SplineSet
525.819 263.493 m 1
 452.096 211.871 l 1
 405.67 183.655 352.831 167.912 305.712 167.912 c 0
 227.474 167.91 164.608 203.792 126.648 258 c 0
 89.7461 310.695 77.5176 380.112 124.819 460.613 c 0
 140.978 488.11 163.878 513.084 192.714 533.293 c 0
 266.438 584.915 l 0
 266.914 585.248 l 1
 305.929 612.418 355.168 630.729 413.254 635.184 c 0
 519.936 643.362 604.874 607.41 659.475 531 c 0
 724.5 440 706.922 292.815 652.37 178.533 c 0
 619.426 109.532 571.134 49.5342 503.234 -2.4668 c 0
 499.285 -5.49219 495.269 -8.43262 491.19 -11.2852 c 0
 417.467 -62.9072 l 0
 331.816 -122.821 218.669 -144.259 117.839 -102.672 c 0
 88.3271 -90.5 67.252 -73.4629 50.8232 -50 c 0
 40.0137 -34.5635 31.2998 -16.2803 29.5518 4.65625 c 1
 103.275 56.2783 l 1
 113.6 41.5332 l 1
 114.768 27.5508 118.977 15.0928 126.832 3.88574 c 0
 138.667 -13 159.051 -27.1533 181.238 -36.3047 c 0
 268.4 -72.2549 364.812 -61.0859 444.582 -18.7422 c 1
 498.845 27.959 539.572 81.4404 568.322 141.656 c 0
 617.883 245.481 640.5 396.5 583.294 477.692 c 0
 534.322 547.199 446.408 576.22 349.854 568.816 c 0
 309.793 565.745 273.783 556 242.753 541.467 c 1
 229.724 528.23 218.068 513.149 208.867 497.491 c 0
 166.933 426.125 170.5 357 203.003 311.144 c 0
 237.187 262.915 300.829 234.277 369.111 234.278 c 0
 416.23 234.279 469.069 250.022 515.495 278.238 c 1
 525.819 263.493 l 1
EndSplineSet
EndChar

StartChar: colon
Encoding: 58 58 16
Width: 341
Flags: HMW
LayerCount: 2
Back
SplineSet
170.561 -43.2715 m 1
 85 42.2891 l 1
 170.561 127.85 l 1
 256.121 42.2891 l 1
 170.561 -43.2715 l 1
170.561 343.95 m 1
 85 429.511 l 1
 170.561 515.071 l 1
 256.121 429.511 l 1
 170.561 343.95 l 1
EndSplineSet
Fore
SplineSet
212.451 356.134 m 1
 158 450.443 l 1
 252.311 504.896 l 1
 306.762 410.584 l 1
 212.451 356.134 l 1
110.631 -32.0918 m 1
 56.1797 62.2188 l 1
 150.49 116.67 l 1
 204.941 22.3594 l 1
 110.631 -32.0918 l 1
EndSplineSet
EndChar

StartChar: semicolon
Encoding: 59 59 17
Width: 341
Flags: HMW
LayerCount: 2
Back
SplineSet
202.451 356.134 m 5
 148 450.443 l 5
 242.311 504.896 l 5
 296.762 410.584 l 5
 202.451 356.134 l 5
100.631 -32.0918 m 5
 46.1797 62.2188 l 5
 140.49 116.67 l 5
 194.941 22.3594 l 5
 100.631 -32.0918 l 5
EndSplineSet
Fore
SplineSet
5.55078 -234.488 m 1
 -4.77441 -219.744 l 1
 36.2285 -182.824 68.9561 -136.018 83.8945 -80.2676 c 0
 96.9199 -31.6543 92.8584 13.2246 75.3984 49.334 c 1
 155.676 105.543 l 1
 166 90.7988 l 1
 183.461 54.6914 187.521 9.81055 174.496 -38.8008 c 0
 159.559 -94.5508 126.829 -141.359 85.8271 -178.277 c 1
 5.55078 -234.488 l 1
212.451 356.134 m 1
 158 450.443 l 1
 252.311 504.896 l 1
 306.762 410.584 l 1
 212.451 356.134 l 1
EndSplineSet
EndChar

StartChar: less
Encoding: 60 60 18
Width: 584
Flags: HMW
LayerCount: 2
Fore
SplineSet
474.594 75.4561 m 1
 410.954 11.8164 l 1
 77.9414 261.816 l 1
 65.2139 274.545 l 1
 128.854 338.184 l 1
 595.841 588.184 l 1
 608.568 575.456 l 1
 544.929 511.816 l 1
 167.041 309.516 l 1
 461.866 88.1836 l 1
 474.594 75.4561 l 1
EndSplineSet
EndChar

StartChar: equal
Encoding: 61 61 19
Width: 820
Flags: HMW
LayerCount: 2
Back
SplineSet
715.885 210 m 29
 135.885 210 l 29
764.115 390 m 25
 184.115 390 l 25
EndSplineSet
Fore
SplineSet
757.909 228.438 m 1
 684.186 176.816 l 1
 104.186 176.816 l 1
 93.8613 191.562 l 1
 167.585 243.184 l 1
 747.585 243.184 l 1
 757.909 228.438 l 1
806.139 408.438 m 1
 732.415 356.816 l 1
 152.415 356.816 l 1
 142.091 371.562 l 1
 215.814 423.184 l 1
 795.814 423.184 l 1
 806.139 408.438 l 1
EndSplineSet
EndChar

StartChar: greater
Encoding: 62 62 20
Width: 584
Flags: HMW
LayerCount: 2
Back
SplineSet
217.372 550 m 29
 550.385 300 l 29
 83.3975 50 l 29
EndSplineSet
Fore
SplineSet
179.188 524.544 m 1
 242.828 588.184 l 1
 575.841 338.184 l 1
 588.568 325.455 l 1
 524.929 261.816 l 1
 57.9414 11.8164 l 1
 45.2139 24.5439 l 1
 108.854 88.1836 l 1
 486.741 290.484 l 1
 191.916 511.816 l 1
 179.188 524.544 l 1
EndSplineSet
EndChar

StartChar: bracketright
Encoding: 93 93 21
Width: 384
Flags: HMW
LayerCount: 2
Fore
SplineSet
-85.6855 -111.28 m 5
 12.6133 -42.4512 l 5
 170.693 -42.4512 l 1
 355.589 649.975 l 1
 136.85 649.975 l 1
 126.525 664.72 l 1
 224.823 733.549 l 1
 412.824 733.549 l 1
 423.148 718.804 l 1
 215.937 -57.1963 l 1
 117.639 -126.025 l 1
 -75.3613 -126.025 l 5
 -85.6855 -111.28 l 5
EndSplineSet
EndChar

StartChar: grave
Encoding: 96 96 22
Width: 199
Flags: HMW
LayerCount: 2
Back
SplineSet
264.397 803.631 m 5
 274.723 788.886 l 5
 291.06 749.533 293.896 700.626 279.699 647.646 c 4
 264.503 590.938 233.639 541.72 192.497 499.988 c 5
 118.773 448.367 l 5
 108.449 463.111 l 5
 149.591 504.843 180.454 554.06 195.65 610.769 c 4
 209.848 663.749 207.012 712.656 190.674 752.009 c 5
 264.397 803.631 l 5
EndSplineSet
Fore
SplineSet
163.6 448.367 m 1
 153.273 463.112 l 1
 136.937 502.465 134.101 551.372 148.298 604.352 c 0
 163.493 661.061 194.357 710.278 235.5 752.01 c 1
 309.224 803.631 l 1
 319.548 788.887 l 1
 278.405 747.155 247.543 697.938 232.347 641.229 c 0
 218.148 588.249 220.984 539.342 237.322 499.989 c 1
 163.6 448.367 l 1
EndSplineSet
EndChar

StartChar: afii57690
Encoding: 1514 1514 23
Width: 912
Flags: HMW
AnchorPoint: "DiaToBaseD" 554 0 basechar 0
AnchorPoint: "DiaToBaseO" 220 0 basechar 0
AnchorPoint: "DiaToBaseU" 430 0 basechar 0
AnchorPoint: "DiaToBase3" 390 0 basechar 0
AnchorPoint: "DiaToBase2" 420 0 basechar 0
AnchorPoint: "DiaToBase1" 410 0 basechar 0
LayerCount: 2
Back
SplineSet
666.126 -37.1836 m 1
 655.802 -22.4385 l 1
 702.727 38.5625 744.31 102.562 772.225 176.062 c 0
 788.487 218.884 801.228 270.564 801.225 326.062 c 0
 801.221 374.738 788.002 424.284 760.944 466.188 c 1
 714.269 527.715 634.929 570.979 517.935 570.977 c 0
 414.836 570.975 304.183 547.202 208.194 487.52 c 1
 163.809 456.439 l 1
 153.484 471.185 l 1
 160.562 476.74 167.743 482.064 175.019 487.164 c 0
 248.742 538.786 l 0
 350.315 609.983 470.241 637.341 581.333 637.344 c 0
 702.822 637.346 783.996 590.471 829.626 525.306 c 0
 839.95 510.561 l 0
 870.646 466.723 885.269 414.615 885.272 362.938 c 0
 885.275 307.441 872.535 255.761 856.272 212.938 c 0
 828.357 139.438 786.769 75.4375 739.85 14.4385 c 1
 666.126 -37.1836 l 1
-37.9424 75.8359 m 1
 -33.4346 69.3975 l 1
 -32.334 68.2305 -31.2373 67.2246 -29.9629 66.1914 c 0
 -11.3984 51.1445 20.8398 40.4619 58.8398 40.4629 c 0
 81.2197 40.4629 105.243 46.4385 124.24 53.8877 c 1
 155.546 89.0586 179.4 137.524 196.256 200.838 c 0
 222.161 298.146 240.979 389.563 252.946 471.86 c 1
 326.67 523.482 l 1
 336.995 508.737 l 1
 325.027 426.44 306.21 335.023 280.304 237.715 c 0
 257.639 152.582 221.743 93.5547 174.151 60.1816 c 0
 100.428 8.55957 l 0
 95.668 5.22266 90.792 2.1416 85.8008 -0.683594 c 0
 62.252 -14.0029 27.9414 -25.9043 -4.55957 -25.9043 c 0
 -42.5596 -25.9043 -74.7979 -15.2217 -93.3613 -0.175781 c 0
 -95.7578 1.76562 -97.7744 3.86035 -99.3652 6.12305 c 0
 -109.689 20.8672 l 0
 -110.446 21.9443 -111.107 23.0596 -111.666 24.2139 c 1
 -37.9424 75.8359 l 1
697.826 -4 m 4
 744.748 57 786.334 121 814.248 194.5 c 4
 830.511 237.322 843.248 289 843.248 344.5 c 4
 843.248 473 752.848 604.16 549.634 604.16 c 4
 430.587 604.16 301.388 572.738 195.508 489.623 c 4
-69.6426 42.6523 m 1
 -67.9102 39.0732 -65.1982 35.874 -61.6621 33.0078 c 0
 -43.0986 17.9609 -10.8594 7.2793 27.1406 7.2793 c 0
 59.6406 7.2793 93.9512 19.1807 117.5 32.5 c 0
 172.407 63.5723 213.349 125.63 238.28 219.276 c 0
 264.188 316.586 283 408 294.971 490.299 c 1
EndSplineSet
Fore
SplineSet
681.126 -37.1836 m 1
 670.802 -22.4385 l 1
 717.727 38.5625 759.31 102.562 787.225 176.062 c 0
 803.487 218.884 816.229 270.564 816.225 326.062 c 0
 816.221 374.738 803.002 424.284 775.944 466.188 c 1
 729.269 527.715 649.929 570.979 532.935 570.977 c 0
 429.836 570.975 319.183 547.202 223.194 487.52 c 1
 178.809 456.439 l 1
 168.484 471.185 l 1
 175.562 476.74 182.743 482.064 190.019 487.164 c 0
 263.742 538.786 l 0
 365.315 609.983 485.241 637.341 596.333 637.344 c 0
 717.822 637.346 798.996 590.471 844.626 525.306 c 0
 854.95 510.561 l 0
 885.646 466.723 900.269 414.615 900.271 362.938 c 0
 900.275 307.441 887.535 255.761 871.271 212.938 c 0
 843.357 139.438 801.769 75.4375 754.85 14.4385 c 1
 681.126 -37.1836 l 1
-22.9424 75.8359 m 1
 -18.4346 69.3975 l 1
 0.333008 48.667 34.666 40.4619 73.8398 40.4629 c 0
 96.2197 40.4629 120.243 46.4385 139.24 53.8877 c 1
 170.546 89.0586 194.4 137.524 211.256 200.838 c 0
 237.161 298.146 255.979 389.562 267.946 471.86 c 1
 341.67 523.482 l 1
 351.995 508.737 l 1
 340.027 426.44 321.21 335.023 295.304 237.715 c 0
 272.639 152.582 236.743 93.5547 189.151 60.1816 c 0
 115.428 8.55957 l 0
 110.668 5.22266 105.792 2.1416 100.801 -0.683594 c 0
 77.252 -14.0029 42.9414 -25.9043 10.4404 -25.9043 c 0
 -29.2744 -25.9043 -63 -17.667 -84.3652 6.12305 c 9
 -96.666 24.2139 l 17
 -22.9424 75.8359 l 1
EndSplineSet
Substitution2: "TAV_LONGTAIL subtable" tav.longtail
Substitution2: "WideLetters" uniFB28
Substitution2: "FinalGlyph" tav.longtail
Comment: "%DiaToBase1+AD0A-410+AAoA%DiaToBase2+AD0A-420+AAoA%DiaToBaseU+AD0A-430+AAoA%DiaToBase3+AD0A-390+AAoA%DiaToBaseO+AD0A-220+AAoA" 
EndChar

StartChar: quotesingle
Encoding: 39 39 25
Width: 199
Flags: HMW
LayerCount: 2
Back
SplineSet
232.698 770.447 m 1
 249.04 731.098 251.87 682.186 237.675 629.207 c 0
 222.48 572.5 191.614 523.28 150.473 481.55 c 1
87.501 760.997 m 1
 112.627 724.222 127.521 678.51 127.521 628.997 c 0
 127.521 576 111 530 83 491 c 1
EndSplineSet
Fore
SplineSet
264.397 803.631 m 1
 274.723 788.886 l 1
 291.06 749.533 293.896 700.626 279.699 647.646 c 0
 264.503 590.938 233.639 541.72 192.497 499.988 c 1
 118.773 448.367 l 1
 108.449 463.111 l 1
 149.591 504.843 180.454 554.06 195.65 610.769 c 0
 209.848 663.749 207.012 712.656 190.674 752.009 c 1
 264.397 803.631 l 1
EndSplineSet
EndChar

StartChar: comma
Encoding: 44 44 26
Width: 302
Flags: HMW
LayerCount: 2
Back
SplineSet
84.375 -199.012 m 5
 125.377 -162.092 158.105 -115.286 173.044 -59.5342 c 4
 186.069 -10.9219 182.008 33.957 164.548 70.0654 c 5
EndSplineSet
Fore
SplineSet
-10.6006 -234.489 m 1
 -20.9258 -219.744 l 1
 20.0771 -182.825 52.8047 -136.019 67.7432 -80.2676 c 0
 80.7686 -31.6543 76.707 13.2236 59.2471 49.333 c 1
 139.524 105.543 l 1
 149.849 90.7979 l 1
 167.31 54.6904 171.369 9.81055 158.345 -38.8018 c 0
 143.407 -94.5518 110.678 -141.359 69.6758 -178.278 c 1
 -10.6006 -234.489 l 1
EndSplineSet
EndChar

StartChar: hyphen
Encoding: 45 45 27
Width: 565
Flags: HMW
LayerCount: 2
Back
SplineSet
468.05 299 m 25
 139.5 299 l 25
EndSplineSet
Fore
SplineSet
510.074 317.438 m 1
 436.351 265.816 l 1
 107.801 265.816 l 1
 97.4766 280.562 l 1
 171.2 332.184 l 1
 499.75 332.184 l 1
 510.074 317.438 l 1
EndSplineSet
EndChar

StartChar: period
Encoding: 46 46 28
Width: 341
Flags: HMW
LayerCount: 2
Back
SplineSet
170.561 -43.2715 m 5
 85 42.2891 l 5
 170.561 127.85 l 5
 256.121 42.2891 l 5
 170.561 -43.2715 l 5
EndSplineSet
Fore
SplineSet
120.631 -32.0918 m 5
 66.1797 62.2188 l 5
 160.49 116.67 l 5
 214.941 22.3594 l 5
 120.631 -32.0918 l 5
EndSplineSet
EndChar

StartChar: slash
Encoding: 47 47 29
Width: 516
Flags: HMW
LayerCount: 2
Back
SplineSet
-34.2998 -111.937 m 1
 577 704.021 l 1
EndSplineSet
Fore
SplineSet
-35.8115 -141.225 m 1
 -43.4189 -124.91 l 1
 567.881 691.047 l 1
 658.512 733.309 l 1
 666.119 716.995 l 1
 54.8193 -98.9619 l 1
 -35.8115 -141.225 l 1
EndSplineSet
EndChar

StartChar: zero
Encoding: 48 48 30
Width: 749
Flags: HMW
LayerCount: 2
Back
SplineSet
207.561 525.741 m 4
 270.559 577.746 353.113 610 439.881 610 c 4
 611.757 610 735.398 483.44 715.865 327.5 c 4
 706.654 253.956 667.234 186.947 610.119 136.667 c 4
624.214 98.2188 m 4
 561.075 45.6514 478.038 13 390.737 13 c 4
 218.862 13 95.2197 139.56 114.752 295.5 c 4
 124.099 370.112 164.537 437.998 222.998 488.513 c 4
EndSplineSet
Fore
SplineSet
160.86 492.558 m 1
 150.536 507.303 l 1
 157.947 513.421 165.63 519.266 173.558 524.816 c 0
 247.281 576.438 l 0
 306.742 618.073 380.02 643.182 456.58 643.184 c 0
 558.527 643.186 643.51 598.663 691.698 529.888 c 0
 702.146 514.967 l 0
 702.41 514.59 702.167 514.938 702.271 514.785 c 1
 702.392 514.615 l 0
 735.206 467.537 750.812 409.152 742.89 345.938 c 0
 733.685 272.399 694.255 205.383 637.143 155.105 c 1
 563.419 103.483 l 1
 553.095 118.229 l 1
 610.207 168.506 649.637 235.522 658.842 309.062 c 0
 666.371 369.132 652.549 425.068 623.049 470.725 c 1
 574.178 535.188 491.466 576.818 393.182 576.816 c 0
 326.822 576.815 262.994 557.985 208.323 525.791 c 1
 160.86 492.558 l 1
640.914 131.402 m 1
 651.238 116.657 l 1
 643.473 110.192 635.407 104.028 627.069 98.1895 c 0
 553.346 46.5684 l 0
 552.73 46.1387 l 1
 493.034 4.57715 420.26 -20.1816 344.037 -20.1836 c 0
 242.091 -20.1855 157.114 24.3408 108.92 93.1133 c 0
 98.2275 108.385 l 0
 65.4189 155.469 49.8105 213.851 57.7275 277.062 c 0
 67.0732 351.674 107.515 419.56 165.975 470.074 c 1
 239.698 521.696 l 1
 250.022 506.951 l 1
 191.562 456.438 151.122 388.551 141.776 313.938 c 0
 134.252 253.872 148.069 197.932 177.569 152.275 c 1
 226.437 87.8096 309.152 46.1807 407.438 46.1826 c 0
 473.27 46.1846 536.639 64.7305 590.975 96.4336 c 1
 640.914 131.402 l 1
EndSplineSet
EndChar

StartChar: one
Encoding: 49 49 31
Width: 486
Flags: HMW
LayerCount: 2
Back
SplineSet
73.9072 395.562 m 1
 147.631 447.184 l 5
 239.299 468.35 317.265 506.428 394.268 556.733 c 1
 405.613 565.135 417.302 573.971 428.979 582.935 c 0
 433.545 586.44 438.134 589.983 442.746 593.562 c 1
 516.47 645.184 l 1
 526.794 630.438 l 1
 362.023 14.4385 l 1
 288.3 -37.1836 l 1
 277.976 -22.4385 l 1
 434.299 561.984 l 1
 366.324 514.388 l 0
 276.393 451.424 189.563 405.139 84.2314 380.816 c 1
 73.9072 395.562 l 1
115.931 414 m 17
 254.505 446 361.047 516 484.77 612 c 1
 320 -4 l 9
EndSplineSet
Fore
SplineSet
48.9072 380.58 m 1
 119.5 467 l 1
 235.873 493.87 329.372 531.682 417.746 593.562 c 10
 491.47 645.184 l 1
 501.794 630.438 l 1
 337.023 14.4385 l 1
 263.3 -37.1836 l 1
 252.976 -22.4385 l 1
 408 557.5 l 1
 340.025 509.904 l 0
 250.094 446.94 161.4 394.58 59.2314 365.834 c 1
 48.9072 380.58 l 1
EndSplineSet
EndChar

StartChar: question
Encoding: 63 63 32
Width: 574
Flags: HMW
LayerCount: 2
Back
SplineSet
228.141 -32.0918 m 1
 173.689 62.2188 l 1
 268 116.67 l 1
 322.451 22.3594 l 1
 228.141 -32.0918 l 1
298 217.7 m 0
 285.898 227.238 280.368 244.791 290 271 c 0
 333 388 501 390 501 521 c 0
 501 594 427 650 287.2 650 c 0
 174.829 650 85.2148 600.871 68 498 c 0
 62.6592 466.087 71.5195 443.663 87.2646 425.191 c 0
EndSplineSet
Fore
SplineSet
228.141 -32.0918 m 1
 173.689 62.2188 l 1
 268 116.67 l 1
 322.451 22.3594 l 1
 228.141 -32.0918 l 1
340.023 236.139 m 1
 266.3 184.517 l 1
 263.781 186.502 261.547 188.835 259.675 191.521 c 0
 249.351 206.266 l 0
 242.229 216.482 240.349 231.809 247.976 252.562 c 0
 263.07 293.634 293.571 320.535 326.799 343.819 c 0
 400.522 395.441 l 0
 401.12 395.859 l 1
 404.04 397.898 406.889 399.845 409.023 401.291 c 1
 438.265 426.38 458.979 456.381 458.976 502.562 c 0
 458.975 520.589 454.393 537.679 445.533 552.995 c 1
 413.514 591.57 349.264 616.818 255.5 616.816 c 0
 215.451 616.815 177.933 610.406 146.411 597.941 c 1
 127.913 575.746 115.453 548.883 110.024 516.438 c 0
 106.067 492.794 110.062 474.06 118.619 458.782 c 1
 118.892 458.461 118.825 458.538 118.965 458.375 c 1
 129.289 443.63 l 1
 55.5654 392.008 l 1
 53.4424 394.499 51.4443 397.062 49.5898 399.709 c 0
 39.2656 414.454 l 0
 27.3652 431.444 21.3564 451.952 25.9766 479.562 c 0
 34.1934 528.668 58.9111 565.531 94.7256 590.646 c 0
 168.449 642.268 l 0
 207.662 669.765 260.168 683.182 318.899 683.184 c 0
 418.348 683.186 484.49 654.844 514.398 612.212 c 0
 524.724 597.468 l 0
 536.86 580.168 543.022 560.51 543.024 539.438 c 0
 543.028 480.81 509.53 448.129 468.146 419.061 c 1
 467.567 418.654 l 0
 393.844 367.032 l 0
 390.863 364.946 387.422 362.595 384.641 360.722 c 1
 362.318 341.809 343.047 319.433 332.023 289.438 c 0
 326.179 273.533 325.887 261.026 329.299 251.204 c 1
 329.299 251.204 329.444 251.084 329.699 250.883 c 1
 340.023 236.139 l 1
EndSplineSet
EndChar

StartChar: bracketleft
Encoding: 91 91 33
Width: 384
Flags: HMW
LayerCount: 2
Back
SplineSet
498.837 691.762 m 25
 310.837 691.762 l 25
 103.626 -84.2383 l 29
 291.626 -84.2383 l 29
EndSplineSet
Fore
SplineSet
558.148 718.804 m 5
 459.85 649.975 l 5
 301.77 649.975 l 1
 116.874 -42.4512 l 1
 335.613 -42.4512 l 1
 345.938 -57.1963 l 1
 247.64 -126.025 l 1
 59.6387 -126.025 l 1
 49.3145 -111.28 l 1
 256.526 664.72 l 1
 354.824 733.549 l 1
 547.824 733.549 l 5
 558.148 718.804 l 5
EndSplineSet
EndChar

StartChar: backslash
Encoding: 92 92 34
Width: 420
Flags: HMW
LayerCount: 2
Back
SplineSet
129 711 m 1
 372 -100 l 9
EndSplineSet
Fore
SplineSet
153.655 736.81 m 1
 161.686 725.341 l 1
 404.686 -85.6582 l 1
 347.345 -125.809 l 1
 339.314 -114.341 l 1
 96.3145 696.659 l 1
 153.655 736.81 l 1
EndSplineSet
EndChar

StartChar: afii57664
Encoding: 1488 1488 35
Width: 710
Flags: HMW
AnchorPoint: "DiaToBaseD" 437 0 basechar 0
AnchorPoint: "DiaToBaseO" 60 0 basechar 0
AnchorPoint: "DiaToBaseU" 340 0 basechar 0
AnchorPoint: "DiaToBase3" 320 0 basechar 0
AnchorPoint: "DiaToBase2" 340 0 basechar 0
AnchorPoint: "DiaToBase1" 340 0 basechar 0
LayerCount: 2
Back
SplineSet
315.511 840.063 m 1
 325.836 825.318 l 1
 231.162 466.351 l 1
 237.308 471.215 243.622 475.917 250.092 480.449 c 2
 323.815 532.07 l 1
 324.192 532.335 l 2
 391.161 579.103 474.354 607.542 560.301 607.544 c 0
 631.622 607.545 694.187 587.909 742.182 554.583 c 1
 752.507 539.838 l 1
 678.783 488.216 l 1
 630.787 521.543 568.223 541.178 496.901 541.177 c 0
 426.652 541.175 358.246 522.165 299.011 489.691 c 1
 243.758 440.901 204.364 378.121 192.302 309.7 c 0
 181.605 249.026 193.845 192.841 223.472 146.711 c 1
 272.201 82.7002 357.326 41.3451 460.466 41.3467 c 0
 544.755 41.348 626.488 68.7627 692.599 113.812 c 1
 702.923 99.0664 l 1
 629.199 47.4453 l 1
 563.089 2.39648 481.355 -25.0186 397.067 -25.0205 c 0
 289.97 -25.0225 202.627 19.2626 154.709 87.6934 c 2
 144.384 102.438 l 2
 142.102 105.7 139.909 109.017 137.808 112.387 c 1
 111.976 14.4385 l 1
 38.252 -37.1836 l 1
 27.9277 -22.4385 l 1
 241.787 788.441 l 1
 315.511 840.063 l 1
660.898 80.6279 m 5
 594.79 35.5811 513.054 8.16309 428.767 8.16309 c 4
 247.487 8.16309 122.722 134.991 150.277 291.262 c 4
 177.834 447.532 347.32 574.36 528.602 574.36 c 4
 599.92 574.36 662.492 554.729 710.482 521.399 c 5
283.812 806.88 m 25
 69.9521 -4 l 25
EndSplineSet
Fore
SplineSet
295.511 840.062 m 1
 305.836 825.318 l 1
 211.162 466.351 l 1
 217.308 471.215 223.622 475.917 230.092 480.449 c 2
 303.815 532.07 l 1
 304.192 532.335 l 2
 371.161 579.104 454.354 607.542 540.301 607.544 c 0
 611.622 607.545 674.188 587.909 722.182 554.583 c 1
 732.507 539.838 l 1
 658.783 488.216 l 1
 610.787 521.543 548.223 541.178 476.901 541.177 c 0
 406.652 541.175 338.246 522.165 279.011 489.691 c 1
 223.758 440.901 184.364 378.121 172.302 309.7 c 0
 161.605 249.026 173.845 192.841 203.472 146.711 c 1
 252.201 82.7002 337.326 41.3447 440.466 41.3467 c 0
 524.755 41.3477 606.488 68.7627 672.599 113.812 c 1
 682.923 99.0664 l 1
 609.199 47.4453 l 1
 543.089 2.39648 461.355 -25.0205 377.067 -25.0205 c 0
 248.749 -25.0205 163.749 32.0918 123.749 134.092 c 5
 91.9756 14.4385 l 1
 18.252 -37.1836 l 1
 7.92773 -22.4385 l 1
 221.787 788.441 l 1
 295.511 840.062 l 1
EndSplineSet
Substitution2: "WideLetters" uniFB21
Comment: "%DiaToBase1+AD0A-340+AAoA%DiaToBase2+AD0A-340+AAoA%DiaToBaseU+AD0A-340+AAoA%DiaToBase3+AD0A-320+AAoA%DiaToBaseO+AD0A-60+AAoA" 
EndChar

StartChar: afii57665
Encoding: 1489 1489 36
Width: 774
Flags: HMW
AnchorPoint: "DiaToBaseD" 418 0 basechar 0
AnchorPoint: "DiaToBaseO" 190 0 basechar 0
AnchorPoint: "DiaToBaseU" 320 0 basechar 0
AnchorPoint: "DiaToBase3" 310 0 basechar 0
AnchorPoint: "DiaToBase2" 350 0 basechar 0
AnchorPoint: "DiaToBase1" 330 0 basechar 0
LayerCount: 2
Back
SplineSet
11.6475 -37.1836 m 1
 1.32324 -22.4385 l 1
 21.7822 22.1094 45.6758 51.8242 72.1533 70.374 c 0
 145.877 121.996 l 0
 146.141 122.181 l 1
 260.041 201.483 421.646 75.1162 563.123 33.6816 c 1
 614.523 96.7266 658.26 187.576 666.495 281.642 c 0
 672.403 349.116 655.572 412.002 622.897 462.134 c 1
 572.666 528.896 493.01 570.979 399.344 570.977 c 0
 346.729 570.976 296.06 557.532 250.961 534.121 c 1
 190.793 479.098 149.753 402.771 142.384 318.519 c 1
 68.6602 266.896 l 1
 58.3359 281.642 l 1
 67.0664 381.408 122.938 470.001 202.079 525.459 c 0
 275.803 577.081 l 0
 329.814 614.93 394.653 637.342 462.743 637.344 c 0
 559.47 637.346 641.746 592.112 691.277 521.648 c 0
 691.392 521.485 l 0
 691.647 521.121 691.118 521.877 691.526 521.295 c 0
 701.975 506.373 l 0
 738.166 454.651 756.75 389.404 750.543 318.519 c 0
 740.06 198.779 672.161 84.4062 603.806 25.4707 c 0
 599.249 21.542 594.689 17.8594 590.146 14.4385 c 1
 516.423 -37.1836 l 1
 386.22 -5.28613 236.807 109.836 121.973 74.9316 c 1
 109.109 59.1514 96.5977 38.8828 85.3721 14.4385 c 1
 11.6475 -37.1836 l 1
43.3477 -4 m 21
 155.215 239.583 369.75 39.6895 548.122 -4 c 5
 620.821 50.7344 697.347 172.366 708.52 300.08 c 4
 723.205 467.933 598.896 604.16 431.043 604.16 c 4
 263.19 604.16 115.045 467.933 100.36 300.08 c 4
EndSplineSet
Fore
SplineSet
28 -37.1836 m 1
 11 -13.5 l 1
 27 21 50.6758 51.8242 77.1533 70.374 c 0
 150.877 121.996 l 0
 151.141 122.181 l 1
 265.041 201.483 426.646 75.1162 568.123 33.6816 c 1
 619.523 96.7266 663.26 187.576 671.495 281.642 c 0
 677.403 349.116 660.572 412.002 627.896 462.134 c 1
 577.666 528.896 498.01 570.979 404.344 570.977 c 0
 351.729 570.976 301.06 557.532 255.961 534.121 c 1
 195.793 479.098 154.753 402.771 147.384 318.519 c 1
 73.6602 266.896 l 1
 63.3359 281.642 l 1
 72.0664 381.408 127.938 470.001 207.079 525.459 c 0
 280.803 577.081 l 0
 334.814 614.93 399.653 637.342 467.743 637.344 c 0
 564.47 637.346 646.746 592.112 696.277 521.648 c 0
 696.392 521.485 l 0
 696.646 521.121 696.118 521.877 696.526 521.295 c 0
 706.975 506.373 l 0
 743.166 454.651 761.75 389.404 755.543 318.519 c 0
 745.06 198.779 677.161 84.4062 608.806 25.4707 c 0
 604.249 21.542 599.689 17.8594 595.146 14.4385 c 1
 521.423 -37.1836 l 1
 391.22 -5.28613 247.5 106.5 131 76 c 1
 118.137 60.2197 107.5 37 101.725 14.4385 c 1
 28 -37.1836 l 1
EndSplineSet
Comment: "%DiaToBase1+AD0A-330+AAoA%DiaToBase2+AD0A-350+AAoA%DiaToBaseU+AD0A-320+AAoA%DiaToBase3+AD0A-310+AAoA%DiaToBaseO+AD0A-190+AAoA" 
EndChar

StartChar: afii57666
Encoding: 1490 1490 37
Width: 646
Flags: HMW
AnchorPoint: "DiaToBaseD" 370 -96 basechar 0
AnchorPoint: "DiaToBaseO" 170 0 basechar 0
AnchorPoint: "CustomDiaU" 289.5 -78.5833 basechar 0
AnchorPoint: "CustomDia3" 285.167 -103.667 basechar 0
AnchorPoint: "CustomDia2" 274.333 -103.167 basechar 0
AnchorPoint: "CustomDia1" 270 -110 basechar 0
LayerCount: 2
Back
SplineSet
401.678 793.438 m 1
 412.002 778.692 l 1
 416.031 724.285 429.719 680.137 451.355 646.084 c 1
 483.555 604.277 529.997 578.755 588.343 566.532 c 0
 599.601 564.364 l 1
 609.925 549.619 l 1
 536.201 497.998 l 1
 449.037 500.029 343.131 471.773 282.801 437.182 c 0
 276.147 433.366 269.231 429.261 263.022 425.461 c 1
 135.824 323.297 70.5977 190.694 127.008 57.2725 c 0
 130.978 47.8828 135.909 38.541 141.131 30.2695 c 1
 198.853 -44.333 311.065 -77.1006 424.817 -43.5332 c 0
 488.412 -24.7676 556.419 7.49414 616.402 44.8643 c 1
 622.405 49.6035 627.799 54.001 633.319 58.6494 c 1
 707.043 110.271 l 1
 717.367 95.5264 l 1
 701.178 81.8926 683.642 68.4688 665.136 55.5029 c 0
 591.412 3.88086 l 0
 521.866 -44.8457 438.604 -87.123 361.418 -109.9 c 0
 244.275 -144.468 128.416 -108.501 72.6133 -29.1582 c 0
 72.3535 -28.7881 l 1
 72.3535 -28.7881 72.6875 -29.2656 72.3418 -28.7715 c 0
 62.0176 -14.0264 l 0
 54.5254 -3.31738 48.124 8.17871 42.959 20.3955 c 0
 -18.4609 165.67 64.3848 310.024 214.219 415.005 c 0
 287.942 466.627 l 0
 306.394 479.555 325.861 491.887 346.2 503.548 c 0
 369.119 516.689 398.154 528.745 430.887 538.83 c 1
 412.53 551.643 396.142 567.737 382.834 586.68 c 0
 372.277 601.757 l 0
 347.504 637.159 332.281 683.341 327.954 741.815 c 1
 401.678 793.438 l 1
369.978 760.254 m 17
 380.285 621.071 452.307 551.537 567.901 531.181 c 1
 480.731 533.208 374.835 504.96 314.501 470.365 c 0
 129 364 16 202 84.9834 38.834 c 0
 128.542 -64.1948 260 -116 393.118 -76.7168 c 0
 490.844 -47.8778 598.31 12.2178 675.343 77.0879 c 0
EndSplineSet
Fore
SplineSet
396.678 793.438 m 1
 407.002 778.692 l 1
 410 733.5 417.673 688.624 447.355 647.084 c 0
 481 600 533 576.5 583.343 566.532 c 0
 594.601 564.364 l 1
 604.925 549.619 l 1
 531.201 497.998 l 1
 444.037 500.029 338.131 471.773 277.801 437.182 c 0
 271.147 433.366 264.231 429.261 258.022 425.461 c 0
 125.794 319.257 50.9219 150.256 135.131 29.2695 c 0
 191 -51 306.065 -77.1006 419.817 -43.5332 c 0
 483.412 -24.7676 551.419 7.49414 611.402 44.8643 c 1
 617.405 49.6035 622.799 54.001 628.319 58.6494 c 1
 702.043 110.271 l 1
 712.367 95.5264 l 1
 696.178 81.8926 678.642 68.4688 660.136 55.5029 c 0
 586.412 3.88086 l 0
 516.866 -44.8457 433.604 -87.123 356.418 -109.9 c 0
 232.29 -146.529 115.749 -108.17 59.25 -24.5 c 0
 -39 121 46.4883 300.988 209.219 415.005 c 2
 282.942 466.627 l 0
 301.394 479.555 320.861 491.887 341.2 503.548 c 0
 364.119 516.689 393.154 528.745 425.887 538.83 c 1
 404.799 553.549 386.866 571.354 371.709 593 c 0
 344.7 631.572 327.688 677.846 322.954 741.815 c 1
 396.678 793.438 l 1
EndSplineSet
Comment: "%DiaToBaseO+AD0A-170+AAoA" 
EndChar

StartChar: afii57667
Encoding: 1491 1491 38
Width: 684
Flags: HMW
AnchorPoint: "DiaToBaseD" 335 115 basechar 0
AnchorPoint: "DiaToBaseO" 150 0 basechar 0
AnchorPoint: "DiaToBaseU" 420 0 basechar 0
AnchorPoint: "DiaToBase3" 380 0 basechar 0
AnchorPoint: "DiaToBase2" 420 0 basechar 0
AnchorPoint: "DiaToBase1" 460 0 basechar 0
LayerCount: 2
Back
SplineSet
335.049 253.261 m 1
 408.773 304.883 l 1
 444.628 304.5 476.834 297.199 503.509 284.101 c 1
 537.769 308.729 l 2
 587.079 344.175 612.486 385.909 612.483 437.361 c 0
 612.482 461.436 606.343 482.527 595.312 500.985 c 1
 558.072 546.919 487.142 571.053 413.188 571.051 c 0
 326.482 571.049 247.992 546.13 184.23 510.141 c 1
 144.222 475.623 115.127 437.301 101.354 403.154 c 1
 27.6299 351.532 l 1
 17.3057 366.277 l 1
 34.7617 409.554 76.498 459.368 135.352 500.596 c 2
 209.075 552.218 l 1
 209.539 552.542 l 2
 279.04 601.062 371.76 637.416 476.588 637.418 c 0
 554.362 637.419 628.504 611.017 664.141 560.155 c 2
 674.429 545.462 l 1
 674.706 545.064 l 2
 688.562 525.147 696.53 501.501 696.531 474.238 c 0
 696.534 422.786 671.127 381.053 621.816 345.605 c 2
 572.15 309.903 l 1
 521.058 274.128 l 1
 536.391 264.1 549.295 251.815 559.278 237.566 c 2
 569.58 222.822 l 1
 569.842 222.479 l 1
 584.852 200.917 593.193 174.882 593.195 145.385 c 0
 593.198 98.0625 570.623 50.8398 536.781 14.4385 c 1
 463.058 -37.1836 l 1
 452.733 -22.4385 l 1
 486.575 13.9629 509.148 61.1855 509.147 108.508 c 0
 509.147 134.841 502.661 158.021 490.48 178.363 c 1
 460.443 215.48 408.365 237.844 345.374 238.516 c 1
 335.049 253.261 l 1
59.3291 384.716 m 4
 97.3477 478.964 250.521 604.234 444.889 604.234 c 4
 553.225 604.234 654.508 553.001 654.508 455.8 c 4
 654.508 404.346 629.105 362.615 579.793 327.167 c 6
 530.126 291.465 l 29
377.073 271.699 m 4
 478.826 270.616 551.172 213.798 551.172 126.946 c 4
 551.172 79.6221 528.6 32.4023 494.758 -4 c 4
EndSplineSet
Fore
SplineSet
350.049 253.261 m 1
 423.773 304.883 l 1
 459.628 304.5 491.834 297.199 518.509 284.101 c 1
 554 312 l 2
 589.789 340.133 616.128 370.324 625.5 405 c 0
 635.5 442 629 474.5 609.312 499.985 c 0
 572.735 547.334 502.142 571.053 428.188 571.051 c 0
 341.482 571.049 262.992 546.13 199.23 510.141 c 1
 159.222 475.623 130.127 437.301 116.354 403.154 c 1
 42.6299 351.532 l 1
 32.3057 366.277 l 1
 49.7617 409.554 91.498 459.368 150.352 500.596 c 2
 224.075 552.218 l 1
 224.539 552.542 l 2
 294.04 601.062 386.76 637.416 491.588 637.418 c 0
 576.446 637.419 647.262 608.112 685.501 553.5 c 0
 700.683 531.818 711.53 505.938 711.531 474.238 c 0
 711.534 422.786 686.127 381.053 636.816 345.605 c 2
 587.15 309.903 l 1
 536.058 274.128 l 1
 553.949 262.427 567.769 249.313 579.517 232.5 c 0
 596.119 208.738 608.193 180.378 608.195 145.385 c 0
 608.198 98.0625 585.623 50.8398 551.781 14.4385 c 1
 478.058 -37.1836 l 1
 467.733 -22.4385 l 1
 501.575 13.9629 524.148 61.1855 524.146 108.508 c 0
 524.146 134.841 518.863 157.141 504.48 177.363 c 0
 477 216 423.365 237.844 360.374 238.516 c 1
 350.049 253.261 l 1
EndSplineSet
Substitution2: "WideLetters" uniFB22
Comment: "%DiaToBase1+AD0A-460+AAoA%DiaToBase2+AD0A-420+AAoA%DiaToBaseU+AD0A-420+AAoA%DiaToBase3+AD0A-380+AAoA%DiaToBaseO+AD0A-150+AAoA" 
EndChar

StartChar: afii57668
Encoding: 1492 1492 39
Width: 767
Flags: HMW
AnchorPoint: "DiaToBaseD" 461 0 basechar 0
AnchorPoint: "DiaToBaseO" 100 0 basechar 0
AnchorPoint: "DiaToBaseU" 370 0 basechar 0
AnchorPoint: "DiaToBase3" 340 0 basechar 0
AnchorPoint: "DiaToBase2" 350 0 basechar 0
AnchorPoint: "DiaToBase1" 360 0 basechar 0
LayerCount: 2
Back
SplineSet
71.5137 195.485 m 1
 145.237 247.107 l 1
 186.794 272.447 237.475 279.543 265.854 243.053 c 0
 266.354 242.409 266.839 241.755 267.307 241.088 c 0
 277.631 226.344 l 0
 277.984 225.842 277.647 226.32 277.647 226.32 c 1
 277.91 225.942 l 0
 310.775 178.173 263.01 72.2549 203.2 14.4385 c 1
 129.477 -37.1836 l 1
 119.152 -22.4385 l 1
 176.116 32.627 222.152 131.277 198.018 181.854 c 1
 169.047 212.229 121.421 204.877 81.8379 180.741 c 1
 71.5137 195.485 l 1
103.854 505.301 m 1
 177.578 556.922 l 1
 264.729 611.643 350.55 637.342 462.086 637.344 c 0
 583.575 637.346 664.749 590.471 710.378 525.306 c 0
 720.703 510.561 l 0
 721.085 510.015 720.595 510.715 720.824 510.387 c 0
 720.938 510.223 l 0
 751.481 466.461 766.021 414.482 766.024 362.938 c 0
 766.027 307.441 753.287 255.761 737.023 212.938 c 0
 709.109 139.438 667.527 75.4395 620.603 14.4385 c 1
 546.879 -37.1836 l 1
 536.555 -22.4385 l 1
 583.479 38.5625 625.062 102.562 652.976 176.062 c 0
 669.239 218.884 681.979 270.564 681.976 326.062 c 0
 681.973 374.829 668.97 423.95 641.696 466.189 c 1
 595.264 527.396 515.593 570.979 398.687 570.977 c 0
 287.15 570.975 201.33 545.275 114.18 490.556 c 1
 103.854 505.301 l 1
113.537 213.924 m 17
 155.095 239.264 205.774 246.359 234.155 209.869 c 0
 270.361 163.32 221.992 54.7891 161.176 -4 c 9
145.879 523.739 m 0
 233.027 578.458 318.854 604.16 430.386 604.16 c 4
 633.6 604.16 724 473 724 344.5 c 4
 724 289 711.263 237.322 695 194.5 c 4
 667.086 121 625.5 57 578.578 -4 c 4
EndSplineSet
Fore
SplineSet
61.4893 195.485 m 1
 135.213 247.107 l 1
 181.976 276.5 233.403 275.635 262.896 235.5 c 0
 301.476 183 260.371 79.3936 193.176 14.4385 c 1
 119.453 -37.1836 l 1
 109.128 -22.4385 l 1
 183.976 50 216.976 138.5 186.994 180.854 c 0
 164.787 212.223 110.559 206.136 70.9756 182 c 1
 61.4893 195.485 l 1
93.8301 505.301 m 1
 167.554 556.922 l 1
 254.705 611.643 340.526 637.342 452.062 637.344 c 0
 573.551 637.346 654.725 590.471 700.354 525.306 c 0
 710.679 510.561 l 0
 711.061 510.015 710.571 510.715 710.8 510.387 c 0
 710.914 510.223 l 0
 741.457 466.461 755.997 414.482 756 362.938 c 0
 756.003 307.441 743.263 255.761 726.999 212.938 c 0
 699.085 139.438 657.503 75.4395 610.579 14.4385 c 1
 536.855 -37.1836 l 1
 526.531 -22.4385 l 1
 573.455 38.5625 615.038 102.562 642.952 176.062 c 0
 659.215 218.884 671.955 270.564 671.952 326.062 c 0
 671.949 374.829 658.946 423.95 631.672 466.189 c 1
 585.24 527.396 505.569 570.979 388.663 570.977 c 0
 277.126 570.975 191.306 545.275 104.156 490.556 c 1
 93.8301 505.301 l 1
EndSplineSet
Substitution2: "WideLetters" uniFB23
Comment: "%DiaToBase1+AD0A-360+AAoA%DiaToBase2+AD0A-350+AAoA%DiaToBaseU+AD0A-370+AAoA%DiaToBase3+AD0A-340+AAoA%DiaToBaseO+AD0A-100+AAoA" 
EndChar

StartChar: afii57669
Encoding: 1493 1493 40
Width: 291
Flags: HMW
AnchorPoint: "DiaToBaseD" 120 0 basechar 0
AnchorPoint: "DiaToBaseU" 70 0 basechar 0
AnchorPoint: "DiaToBase3" 75 0 basechar 0
AnchorPoint: "DiaToBase2" 80 0 basechar 0
AnchorPoint: "DiaToBase1" 75 0 basechar 0
LayerCount: 2
Back
SplineSet
275.179 755.188 m 5
 74.9521 -4 l 13
EndSplineSet
Fore
SplineSet
316.878 788.37 m 1
 327.203 773.625 l 1
 126.976 14.4385 l 1
 53.252 -37.1836 l 1
 42.9277 -22.4385 l 1
 243.154 736.748 l 1
 316.878 788.37 l 1
EndSplineSet
Substitution2: "VAV_SHORT subtable" vav.short
Comment: "%DiaToBase1+AD0A-75+AAoA%DiaToBase2+AD0A-80+AAoA%DiaToBaseU+AD0A-70+AAoA%DiaToBase3+AD0A-75+AAoA" 
EndChar

StartChar: afii57670
Encoding: 1494 1494 41
Width: 636
Flags: HMW
AnchorPoint: "DiaToBaseD" 280 -83 basechar 0
AnchorPoint: "DiaToBaseO" 130 0 basechar 0
AnchorPoint: "CustomDiaU" 199.25 -70 basechar 0
AnchorPoint: "CustomDia3" 180.833 -95.8333 basechar 0
AnchorPoint: "CustomDia2" 170.333 -90.1667 basechar 0
AnchorPoint: "CustomDia1" 170 -100 basechar 0
LayerCount: 2
Back
SplineSet
397.771 782.711 m 1
 408.095 767.967 l 1
 406.368 684.66 342.205 594.194 254.859 517.476 c 1
 314.435 536.584 379.123 542.408 443.275 534.013 c 0
 506.856 525.693 557.383 498.508 588.512 454.022 c 0
 598.836 439.278 l 0
 611.977 420.499 621.666 398.643 627.428 373.824 c 0
 657.9 242.561 605.764 115.131 466.449 17.5664 c 0
 392.726 -34.0557 l 0
 392.223 -34.4072 l 1
 364.24 -53.9453 333.432 -71.9111 298.883 -88.6846 c 0
 250.686 -112.083 180.847 -119.858 115.285 -110.163 c 0
 64.5732 -102.662 24.3682 -79.5459 -0.197266 -44.4902 c 0
 -10.5215 -29.7461 l 0
 -10.8691 -29.25 -10.499 -29.7783 -10.499 -29.7783 c 1
 -10.6133 -29.6133 -10.6445 -29.5693 -10.7598 -29.4053 c 0
 -20.9326 -14.7949 -28.3984 1.87793 -32.7881 20.3496 c 1
 40.9355 71.9707 l 1
 51.2598 57.2266 l 1
 54.9482 41.7031 60.6865 27.6963 68.5723 14.7119 c 1
 93.1416 -15.9824 131.618 -36.835 178.685 -43.7969 c 0
 244.247 -53.4912 314.084 -45.7168 362.281 -22.3174 c 0
 381.751 -12.8652 399.95 -3.07422 417.37 7.29785 c 1
 529.961 100.623 571.187 217.167 543.379 336.946 c 0
 538.364 358.55 530.441 377.778 519.748 394.905 c 1
 488.613 434.748 439.816 459.803 379.876 467.646 c 0
 294.641 478.8 208.299 464.816 134.762 428.043 c 1
 124.438 442.788 l 1
 235.046 526.712 322.029 633.79 324.047 731.09 c 1
 397.771 782.711 l 1
366.071 749.528 m 17
 364.044 652.223 277.078 545.155 166.462 461.227 c 1
 240 498 326.337 511.982 411.576 500.83 c 0
 502 489 566 439 585.403 355.385 c 0
 621.942 197.924 539.666 46.0059 330.582 -55.501 c 0
 282.385 -78.8994 212.548 -86.6748 146.985 -76.9795 c 0
 75.0195 -66.3359 24.2139 -24.2441 9.23633 38.7881 c 0
EndSplineSet
Fore
SplineSet
387.77 782.711 m 1
 398.093 767.967 l 1
 396.366 684.66 332.203 594.194 244.857 517.476 c 1
 304.434 536.584 369.121 542.408 433.273 534.013 c 0
 550.695 518.648 625.609 435.873 625.826 303 c 0
 625.998 198 570.518 97.4521 456.447 17.5664 c 0
 382.725 -34.0557 l 0
 382.221 -34.4072 l 1
 354.238 -53.9453 323.43 -71.9111 288.881 -88.6846 c 0
 254.717 -105.27 216.498 -114.234 175.498 -114.234 c 0
 88.9512 -114.234 27.498 -89.5 -13.002 -37.5 c 0
 -25.7725 -21.1025 -37.4717 -2.03223 -42.79 20.3496 c 1
 30.9336 71.9707 l 1
 41.2578 57.2266 l 1
 55.998 0 107.383 -34.7295 168.684 -43.7969 c 0
 234.245 -53.4912 304.082 -45.7168 352.279 -22.3174 c 0
 371.749 -12.8652 389.948 -3.07422 407.368 7.29785 c 1
 497.561 82.0566 543.498 178.215 543.498 272.5 c 0
 543.498 384.5 480.998 452.5 369.874 467.646 c 0
 284.7 479.255 198.297 464.816 124.76 428.043 c 1
 114.437 442.788 l 1
 225.044 526.712 312.027 633.79 314.045 731.09 c 1
 387.77 782.711 l 1
EndSplineSet
Comment: "%DiaToBaseO+AD0A-130+AAoA" 
EndChar

StartChar: afii57671
Encoding: 1495 1495 42
Width: 807
Flags: HMW
AnchorPoint: "DiaToBaseD" 432 0 basechar 0
AnchorPoint: "DiaToBaseO" 150 0 basechar 0
AnchorPoint: "DiaToBaseU" 350 0 basechar 0
AnchorPoint: "DiaToBase3" 310 0 basechar 0
AnchorPoint: "DiaToBase2" 330 0 basechar 0
AnchorPoint: "DiaToBase1" 330 0 basechar 0
LayerCount: 2
Back
SplineSet
194.396 523.739 m 0
 276.752 578.458 357.841 604.16 463.239 604.16 c 0
 655.275 604.16 740.704 473 740.704 344.5 c 0
 740.704 289 728.668 237.322 713.299 194.5 c 0
 686.921 121 647.622 57 603.28 -4 c 0
184.613 462.256 m 17
 59.6797 -4 l 9
EndSplineSet
Fore
SplineSet
152.372 505.301 m 1
 226.096 556.923 l 1
 308.454 611.644 389.537 637.341 494.938 637.344 c 0
 606.665 637.346 682.309 592.951 726.03 530.511 c 0
 736.354 515.767 l 0
 736.717 515.25 736.322 515.812 736.322 515.812 c 1
 736.593 515.426 l 0
 767.868 470.614 782.725 416.54 782.729 362.938 c 0
 782.732 307.441 770.688 255.759 755.323 212.938 c 0
 728.95 139.442 689.646 75.4385 645.304 14.4385 c 1
 571.58 -37.1836 l 1
 561.256 -22.4385 l 1
 605.6 38.5615 644.902 102.565 671.275 176.062 c 0
 686.641 218.882 698.684 270.562 698.681 326.062 c 0
 698.677 376.889 685.427 427.851 657.349 471.394 c 1
 613.174 529.66 538.797 570.979 431.539 570.977 c 0
 326.138 570.975 245.055 545.276 162.696 490.556 c 1
 152.372 505.301 l 1
216.312 495.439 m 1
 226.637 480.694 l 1
 101.704 14.4385 l 1
 27.9805 -37.1826 l 1
 17.6562 -22.4385 l 1
 142.589 443.817 l 1
 216.312 495.439 l 1
EndSplineSet
Comment: "%DiaToBase1+AD0A-330+AAoA%DiaToBase2+AD0A-330+AAoA%DiaToBaseU+AD0A-350+AAoA%DiaToBase3+AD0A-310+AAoA%DiaToBaseO+AD0A-150+AAoA" 
EndChar

StartChar: afii57672
Encoding: 1496 1496 43
Width: 698
Flags: HMW
AnchorPoint: "DiaToBaseD" 369 0 basechar 0
AnchorPoint: "DiaToBaseO" 120 0 basechar 0
AnchorPoint: "DiaToBaseU" 350 0 basechar 0
AnchorPoint: "DiaToBase3" 290 0 basechar 0
AnchorPoint: "DiaToBase2" 310 0 basechar 0
AnchorPoint: "DiaToBase1" 280 0 basechar 0
LayerCount: 2
Back
SplineSet
673.952 796.741 m 1
 600.229 745.12 l 1
 591.331 744.788 l 0
 521.906 741.258 440.412 714.927 381.252 682.026 c 1
 176.322 517.707 153.807 359.309 152.023 284.147 c 0
 150.426 216.812 163.88 157.204 192.286 112.407 c 1
 226.806 67.6592 278.8 41.0469 348.699 41.0488 c 0
 403.666 41.0498 457.912 54.6592 505.953 79.7158 c 1
 543.499 114.016 574.614 157.182 596.505 208.562 c 0
 614.181 250.049 613.671 299.531 593.012 335.349 c 1
 590.089 338.812 587.082 341.925 583.738 344.93 c 1
 573.414 359.674 l 1
 647.138 411.296 l 1
 652.702 406.295 657.6 400.707 661.843 394.65 c 0
 672.167 379.906 l 0
 697.712 343.447 699.552 290.029 680.553 245.438 c 0
 652.107 178.674 607.917 125.611 554.883 88.4355 c 0
 481.159 36.8135 l 0
 423.405 -3.66992 355.152 -25.3184 285.301 -25.3184 c 0
 211.885 -25.3174 158.111 4.12305 123.781 52.9756 c 0
 123.667 53.1396 l 0
 123.568 53.2793 123.795 52.9551 123.544 53.3145 c 0
 113.22 68.0586 l 0
 81.3115 113.666 66.2832 176.108 67.9756 247.271 c 0
 69.8711 327.004 95.2812 500.599 336.478 675.028 c 0
 337.589 675.833 338.715 676.635 339.855 677.434 c 0
 413.579 729.056 l 0
 473.505 771.077 572.505 806.974 654.73 811.154 c 0
 663.628 811.486 l 1
 673.952 796.741 l 1
631.928 778.303 m 1
 628.985 778.233 626.02 778.124 623.031 777.971 c 0
 539.234 773.705 438.037 736.521 378.501 693.467 c 0
 137.305 519.039 111.894 345.44 110 265.709 c 0
 106.49 118.007 175 7.86523 317 7.86523 c 0
 451 7.86523 579.101 87.5283 638.529 227 c 0
 660.687 279 654.502 343 615.438 378.113 c 0
EndSplineSet
Fore
SplineSet
663.956 796.741 m 5
 590.232 745.12 l 5
 581.335 744.788 l 4
 511.91 741.258 430.416 714.927 371.256 682.026 c 5
 166.326 517.707 141.286 360.497 142.027 264 c 4
 142.504 202 155.504 153.5 185.504 110.5 c 4
 220.724 60.0176 277.004 41.0488 338.703 41.0488 c 4
 393.67 41.0488 447.916 54.6592 495.957 79.7158 c 5
 533.503 114.016 564.618 157.182 586.509 208.562 c 4
 613.221 271.258 595.004 326 563.418 359.674 c 5
 637.142 411.296 l 5
 675.458 376.857 697.894 309.597 670.557 245.438 c 4
 642.111 178.674 597.921 125.611 544.887 88.4355 c 4
 471.163 36.8135 l 4
 413.409 -3.66992 345.156 -25.3184 275.305 -25.3184 c 4
 196.287 -25.3174 144.275 7.00391 107.517 59.5 c 4
 73.7236 107.761 56.1514 170.381 57.9795 247.271 c 4
 59.875 327.004 85.2852 500.599 326.481 675.028 c 4
 327.593 675.833 328.719 676.635 329.859 677.434 c 4
 403.583 729.056 l 4
 463.509 771.077 562.509 806.974 644.734 811.154 c 4
 653.632 811.486 l 5
 663.956 796.741 l 5
EndSplineSet
Comment: "%DiaToBase1+AD0A-280+AAoA%DiaToBase2+AD0A-310+AAoA%DiaToBaseU+AD0A-350+AAoA%DiaToBase3+AD0A-290+AAoA%DiaToBaseO+AD0A-120+AAoA" 
EndChar

StartChar: afii57673
Encoding: 1497 1497 44
Width: 254
Flags: HMW
AnchorPoint: "DiaToBaseD" 134 134 basechar 0
AnchorPoint: "DiaToBaseO" 70 0 basechar 0
AnchorPoint: "DiaToBaseU" 70 0 basechar 0
AnchorPoint: "DiaToBase3" 75 0 basechar 0
AnchorPoint: "DiaToBase2" 70 0 basechar 0
AnchorPoint: "DiaToBase1" 75 0 basechar 0
LayerCount: 2
Back
SplineSet
156.237 302.54 m 5
 235.811 604.16 l 5
EndSplineSet
Fore
SplineSet
109.537 269.356 m 1
 99.2129 284.102 l 1
 178.786 585.722 l 1
 252.51 637.344 l 1
 262.834 622.599 l 1
 183.261 320.979 l 1
 109.537 269.356 l 1
EndSplineSet
Comment: "%DiaToBase1+AD0A-75+AAoA%DiaToBase2+AD0A-70+AAoA%DiaToBaseU+AD0A-70+AAoA%DiaToBase3+AD0A-75+AAoA%DiaToBaseO+AD0A-70+AAoA" 
EndChar

StartChar: afii57674
Encoding: 1498 1498 45
Width: 652
Flags: HMW
AnchorPoint: "DiaToBaseD" 315 0 basechar 0
LayerCount: 2
Back
SplineSet
245.8 -398 m 25
 303 -180 l 18
 313.343 -140.582 326.67 -101.662 350 -69 c 0
 386.667 -17.6667 469.284 38.9014 518 77 c 0
 594.505 136.831 645.139 216.976 660.864 306.161 c 0
 689.87 470.656 566.558 604.16 385.612 604.16 c 0
 298.673 604.16 214.171 573.341 146.616 523.072 c 0
EndSplineSet
Fore
SplineSet
169.101 -431.184 m 1
 158.776 -416.438 l 1
 215.976 -198.438 l 0
 226.319 -159.02 239.645 -120.102 262.976 -87.4385 c 0
 299.645 -36.1045 382.258 20.4619 430.977 58.5615 c 0
 507.479 118.391 558.118 198.54 573.84 287.723 c 0
 585.588 354.361 572.084 416.421 540.26 465.773 c 1
 491.213 530.344 409.105 570.979 308.912 570.977 c 0
 230.075 570.975 153.55 545.646 89.541 503.63 c 1
 69.917 489.889 l 1
 59.5928 504.634 l 1
 62.7188 506.96 65.8809 509.245 69.0791 511.486 c 0
 142.803 563.108 l 0
 208.699 609.312 289.394 637.342 372.312 637.343 c 0
 475.965 637.345 560.693 593.531 608.731 525.192 c 0
 619.302 510.098 l 0
 654.949 459.188 670.247 394.705 657.889 324.6 c 0
 642.166 235.417 591.527 155.268 515.024 95.4385 c 0
 466.306 57.3389 383.692 0.772461 347.023 -50.5615 c 0
 323.692 -83.2246 310.367 -122.143 300.023 -161.562 c 0
 242.824 -379.561 l 1
 169.101 -431.184 l 1
EndSplineSet
EndChar

StartChar: afii57675
Encoding: 1499 1499 46
Width: 697
Flags: HMW
AnchorPoint: "DiaToBaseD" 335 0 basechar 0
AnchorPoint: "DiaToBaseO" 100 0 basechar 0
AnchorPoint: "DiaToBaseU" 270 0 basechar 0
AnchorPoint: "DiaToBase3" 260 0 basechar 0
AnchorPoint: "DiaToBase2" 270 0 basechar 0
AnchorPoint: "DiaToBase1" 250 0 basechar 0
LayerCount: 2
Back
SplineSet
146.616 523.072 m 0
 214.171 573.341 298.673 604.16 385.612 604.16 c 0
 566.558 604.16 689.87 470.656 660.864 306.161 c 0
 631.859 141.666 461.467 8.16309 280.522 8.16309 c 0
 191.269 8.16309 116.039 40.6445 66.1943 93.3057 c 0
EndSplineSet
Fore
SplineSet
99.917 489.889 m 1
 89.5928 504.634 l 1
 92.8535 507.062 96.1562 509.443 99.4961 511.778 c 0
 173.22 563.4 l 0
 239.038 609.43 319.569 637.342 402.312 637.344 c 0
 506.143 637.346 590.984 593.384 638.979 524.842 c 0
 649.302 510.098 l 0
 684.949 459.188 700.247 394.705 687.889 324.6 c 0
 672.168 235.428 614.888 155.357 536.907 100.733 c 0
 463.184 49.1113 l 0
 462.812 48.8506 l 1
 396.83 2.76953 316.478 -25.0205 233.823 -25.0205 c 0
 144.569 -25.0195 69.3398 7.46094 19.4951 60.1221 c 1
 9.16992 74.8672 l 1
 82.8936 126.489 l 1
 132.74 73.8291 207.966 41.3447 297.222 41.3467 c 0
 364.549 41.3477 430.279 59.7627 488.147 91.5527 c 1
 547.388 143.514 590.574 212.475 603.84 287.723 c 0
 615.604 354.455 602.306 416.076 570.26 465.773 c 1
 521.459 530.02 438.994 570.979 338.913 570.977 c 0
 260.345 570.976 184.177 546.059 119.541 503.63 c 1
 99.917 489.889 l 1
EndSplineSet
Substitution2: "WideLetters" uniFB24
Comment: "%DiaToBase1+AD0A-250+AAoA%DiaToBase2+AD0A-270+AAoA%DiaToBaseU+AD0A-270+AAoA%DiaToBase3+AD0A-260+AAoA%DiaToBaseO+AD0A-100+AAoA" 
EndChar

StartChar: afii57676
Encoding: 1500 1500 47
Width: 515
Flags: HMW
HStem: -37.1836 66.3672<159.847 243.767>
VStem: 400.027 84.0479<340.337 684.24> 807.637 84.0488<931.812 979.757>
AnchorPoint: "DiaToBaseD" 266 -43 basechar 0
AnchorPoint: "DiaToBaseO" 235 0 basechar 0
AnchorPoint: "DiaToBaseU" 230 0 basechar 0
AnchorPoint: "DiaToBase3" 210 0 basechar 0
AnchorPoint: "DiaToBase2" 210 0 basechar 0
AnchorPoint: "DiaToBase1" 190 0 basechar 0
LayerCount: 2
Back
SplineSet
907.023 1027.44 m 1
 833.3 975.816 l 1
 774.312 1016.82 696.3 1023.82 627.511 1002.84 c 0
 614.078 998.739 600.436 993.316 589.339 988.006 c 1
 561.184 960.756 538.99 929.037 521.024 895.438 c 0
 466.828 794.087 459.066 662.6 454.075 541.511 c 0
 448.309 401.604 430.442 290.135 383.794 174.992 c 0
 361.706 120.479 331.346 66.875 289.276 37.4775 c 0
 215.553 -14.1445 l 0
 194.89 -28.584 171.402 -37.1836 144.684 -37.1836 c 0
 115.01 -37.1826 92.4043 -22.2129 76.5273 0.449219 c 0
 66.2031 15.1943 l 0
 65.8359 15.7188 66.2334 15.1504 66.2334 15.1504 c 1
 65.959 15.5439 l 0
 44.1113 46.9736 35.1113 93.0273 38.0635 134.495 c 0
 47.1719 262.449 107.527 376.919 188.667 445.844 c 1
 262.391 497.466 l 1
 272.715 482.722 l 1
 191.573 413.795 131.224 299.328 122.111 171.372 c 0
 119.381 133.021 126.829 90.8828 145.268 59.7988 c 1
 160.541 41.3613 181.687 29.1836 208.083 29.1836 c 0
 219.513 29.1836 230.381 30.7637 240.632 33.6885 c 1
 264.776 62.5166 284.396 100.229 299.746 138.114 c 0
 346.395 253.258 364.261 364.727 370.027 504.634 c 0
 375.019 625.723 382.779 757.209 436.976 858.562 c 0
 461.827 905.036 494.933 948.152 540.046 979.925 c 1
 540.614 980.324 l 0
 614.338 1031.95 l 0
 636.845 1047.68 662.237 1060.46 690.91 1069.2 c 0
 759.699 1090.19 837.712 1083.19 896.699 1042.18 c 1
 907.023 1027.44 l 1
865 1009 m 1
 806 1050 728 1057 659.21 1036.02 c 0
 573.036 1009.74 516.447 947.026 479 877 c 0
 424.8 775.646 417.042 644.16 412.051 523.072 c 0
 406.283 383.164 388.422 271.699 341.77 156.553 c 0
 308.834 75.2656 257.502 -4 176.383 -4 c 0
 105.547 -4 74.9893 81.3076 80.0879 152.934 c 16
 89.1953 280.887 149.552 395.358 230.691 464.283 c 0
EndSplineSet
Fore
SplineSet
937.023 1027.44 m 1
 863.3 975.816 l 1
 804.312 1016.82 726.3 1023.82 657.511 1002.84 c 0
 644.078 998.739 630.436 993.316 619.339 988.006 c 1
 591.184 960.756 568.99 929.037 551.024 895.438 c 0
 496.828 794.087 489.066 662.6 484.075 541.511 c 0
 478.309 401.604 460.442 290.135 413.794 174.992 c 0
 391.706 120.479 361.346 66.875 319.276 37.4775 c 0
 245.553 -14.1445 l 0
 224.89 -28.584 201.5 -34.5 176.5 -34.5 c 0
 101.492 -34.5 61.5 47.5 68.0635 134.495 c 0
 77.7139 262.409 137.527 376.919 218.667 445.844 c 1
 292.391 497.466 l 1
 302.715 482.722 l 1
 221.573 413.795 161.224 299.328 152.111 171.372 c 0
 149.381 133.021 154 92 176.268 60.7988 c 0
 190.197 41.2803 211.687 29.1836 238.083 29.1836 c 0
 249.513 29.1836 260.381 30.7637 270.632 33.6885 c 1
 294.776 62.5166 314.396 100.229 329.746 138.114 c 0
 376.395 253.258 394.261 364.727 400.027 504.634 c 0
 405.019 625.723 412.779 757.209 466.976 858.562 c 0
 491.827 905.036 524.933 948.152 570.046 979.925 c 1
 570.614 980.324 l 0
 644.338 1031.95 l 0
 666.845 1047.68 692.237 1060.46 720.91 1069.2 c 0
 789.699 1090.19 867.712 1083.19 926.699 1042.18 c 1
 937.023 1027.44 l 1
EndSplineSet
Substitution2: "LAMED_MEDIAN subtable" lamed.median
Substitution2: "LAMED_SLANTED subtable" lamed.slanted
Substitution2: "LAMED_SHORT subtable" lamed.short
Substitution2: "WideLetters" uniFB25
Substitution2: "InitialGlyph" lamed.initial
Comment: "%DiaToBase2+AD0A-210+AAoA%DiaToBaseU+AD0A-230+AAoA%DiaToBaseO+AD0A-235+AAoA%DiaToBase1+AD0A-190+AAoA%DiaToBase3+AD0A-210+AAoA" 
EndChar

StartChar: afii57677
Encoding: 1501 1501 48
Width: 827
Flags: HMW
AnchorPoint: "DiaToBaseD" 512 26 basechar 0
LayerCount: 2
Back
SplineSet
204.025 478.208 m 1
 214.35 463.463 l 1
 214.393 459.608 214.686 455.748 214.414 451.91 c 0
 201.16 264.789 150.005 87.2158 56.2285 -81.8535 c 1
 -17.4951 -133.476 l 1
 -27.8193 -118.73 l 1
 65.9561 50.3389 117.112 227.911 130.366 415.032 c 0
 130.637 418.87 130.345 422.73 130.301 426.586 c 1
 204.025 478.208 l 1
282.301 126.056 m 0
 254.687 165.642 232.852 214.844 219.498 274.546 c 1
 293.222 326.168 l 1
 303.546 311.423 l 1
 316.116 255.225 336.215 208.302 361.563 169.975 c 1
 367.645 161.766 374.593 153.271 381.405 145.747 c 0
 436.698 84.6826 499.566 44.4043 593.552 44.4062 c 0
 605.895 44.4062 617.17 45.8652 628.238 48.9434 c 1
 630.87 51.9932 634.176 55.9736 637.102 59.6631 c 0
 698.71 137.347 751.332 228.405 751.325 339.188 c 0
 751.322 385.762 739.599 428.098 716.436 464.286 c 1
 694.523 492.97 664.171 517.799 626.141 537.021 c 0
 579.77 560.458 519.009 572.369 458.309 572.367 c 0
 367.721 572.366 301.919 551.991 254.438 527.597 c 1
 250.611 524.027 246.781 520.263 243.744 517.185 c 1
 170.021 465.562 l 1
 159.696 480.308 l 1
 169.45 490.193 184.206 504.186 205.059 518.797 c 0
 278.782 570.419 l 0
 279.227 570.729 l 1
 326.113 603.428 402.748 638.731 521.707 638.734 c 0
 582.408 638.735 643.169 626.824 689.54 603.388 c 0
 730.791 582.538 762.72 555.441 785.193 523.324 c 0
 795.519 508.579 l 0
 822.016 470.713 835.369 425.869 835.373 376.064 c 0
 835.38 265.282 782.758 174.225 721.149 96.54 c 0
 706.3 77.8164 691.655 63.1025 676.234 52.2998 c 0
 602.511 0.677734 l 0
 602.026 0.34082 l 1
 580.232 -14.75 557.359 -21.96 530.152 -21.96 c 0
 436.167 -21.9619 373.299 18.3154 318.006 79.3809 c 0
 309.263 89.0371 290.193 114.796 282.301 126.056 c 0
172.325 445.024 m 5
 172.368 441.169 172.661 437.309 172.39 433.471 c 4
 159.148 246.359 107.98 68.7754 14.2041 -100.292 c 13
201.72 498.746 m 4
 233.247 530.7 317.035 605.551 490.008 605.551 c 4
 550.707 605.551 611.47 593.642 657.84 570.204 c 4
 747.725 524.773 793.349 449.678 793.349 357.626 c 4
 793.349 246.839 740.739 155.789 679.126 78.1016 c 4
 643.402 33.0596 608.87 11.2227 561.852 11.2227 c 4
 467.868 11.2227 405 51.5 349.706 112.564 c 4
 310.24 156.148 278.754 215.951 261.522 292.984 c 13
EndSplineSet
Fore
SplineSet
194.025 478.208 m 1
 204.35 463.463 l 1
 204.393 459.608 204.686 455.748 204.414 451.91 c 0
 191.16 264.789 140.005 87.2158 46.2285 -81.8535 c 1
 -27.4951 -133.476 l 1
 -37.8193 -118.73 l 1
 55.9561 50.3389 107.112 227.911 120.366 415.032 c 0
 120.637 418.87 120.345 422.73 120.301 426.586 c 1
 194.025 478.208 l 1
268.782 570.419 m 0
 269.227 570.729 l 1
 316.113 603.428 392.748 638.731 511.707 638.734 c 0
 572.408 638.735 633.169 626.824 679.54 603.388 c 0
 724.999 580.411 758.5 549.5 781.672 516.5 c 0
 809.41 476.997 825.369 430.161 825.373 376.064 c 0
 825.38 265.282 772.758 174.225 711.149 96.54 c 0
 696.3 77.8164 681.655 63.1025 666.234 52.2998 c 0
 592.511 0.677734 l 0
 592.026 0.34082 l 1
 570.232 -14.75 547.359 -21.96 520.152 -21.96 c 0
 426.167 -21.9619 363.299 18.3154 308.006 79.3809 c 0
 299.263 89.0371 280.193 114.796 272.301 126.056 c 0
 244.687 165.642 222.852 214.844 209.498 274.546 c 1
 278.999 323.334 l 1
 289.323 308.589 l 1
 301.893 252.391 321.992 205.468 347.34 167.141 c 1
 353.422 158.932 360.37 150.437 367.182 142.913 c 0
 422.475 81.8486 485.343 41.5703 579.329 41.5723 c 0
 591.672 41.5723 604.933 43.4219 616 46.5 c 1
 618.633 49.5498 624.176 55.9736 627.102 59.6631 c 0
 688.71 137.347 741.332 228.405 741.325 339.188 c 0
 741.322 385.762 730.045 429.389 705.436 463.286 c 0
 683.5 493.5 654.171 517.799 616.141 537.021 c 0
 569.77 560.458 509.009 572.369 448.309 572.367 c 0
 357.721 572.366 291.919 551.991 244.438 527.597 c 1
 240.611 524.027 236.781 520.263 233.744 517.185 c 1
 160.021 465.562 l 1
 149.696 480.308 l 1
 159.45 490.193 174.206 504.186 195.059 518.797 c 0
 268.782 570.419 l 0
EndSplineSet
Substitution2: "WideLetters" uniFB26
EndChar

StartChar: afii57678
Encoding: 1502 1502 49
Width: 797
Flags: HMW
AnchorPoint: "DiaToBaseD" 290 -80 basechar 0
AnchorPoint: "DiaToBaseO" 100 0 basechar 0
AnchorPoint: "DiaToBaseU" 330 0 basechar 0
AnchorPoint: "DiaToBase3" 340 0 basechar 0
AnchorPoint: "DiaToBase2" 340 0 basechar 0
AnchorPoint: "DiaToBase1" 340 0 basechar 0
LayerCount: 2
Back
SplineSet
291.263 634.343 m 1
 301.587 619.599 l 1
 642.523 15.4385 l 1
 577.8 -29.1836 l 1
 567.476 -14.4385 l 1
 226.539 589.722 l 1
 291.263 634.343 l 1
611.949 -0.693359 m 1
 601.625 14.0508 l 1
 621.783 234.767 692.846 522.874 846.916 682.014 c 1
 920.64 733.635 l 1
 930.964 718.891 l 1
 776.894 559.752 705.831 271.645 685.673 50.9277 c 1
 611.949 -0.693359 l 1
235.469 586.663 m 1
 245.793 571.919 l 1
 238.812 379.067 186.021 191.436 85.0244 14.4385 c 1
 11.3008 -37.1826 l 1
 0.976562 -22.4385 l 1
 101.976 154.562 154.745 342.176 161.745 535.041 c 1
 235.469 586.663 l 1
296.263 637.343 m 1
 306.587 622.599 l 1
 647.523 18.4385 l 1
 573.8 -33.1836 l 1
 563.476 -18.4385 l 1
 222.539 585.722 l 1
 296.263 637.343 l 1
611.949 -0.693359 m 1
 601.625 14.0508 l 1
 621.783 234.767 692.846 522.874 846.916 682.014 c 1
 920.64 733.635 l 1
 930.964 718.891 l 1
 776.894 559.752 705.831 271.645 685.673 50.9277 c 1
 611.949 -0.693359 l 1
235.469 586.663 m 1
 245.793 571.919 l 1
 238.812 379.067 186.021 191.436 85.0244 14.4385 c 1
 11.3008 -37.1826 l 1
 0.976562 -22.4385 l 1
 101.976 154.562 154.745 342.176 161.745 535.041 c 1
 235.469 586.663 l 1
264.563 604.16 m 1
 605.5 0 l 1
643.649 32.4893 m 1
 663.8 253.201 734.874 541.316 888.94 700.452 c 1
203.769 553.48 m 1
 196.771 360.616 144 173 43 -4 c 1
EndSplineSet
Fore
SplineSet
286.263 634.343 m 1
 296.587 619.599 l 1
 603.422 75.8691 l 1
 630.412 286.164 701.874 537.364 841.916 682.014 c 1
 915.64 733.635 l 1
 925.964 718.891 l 1
 771.894 559.752 700.831 271.645 680.673 50.9277 c 1
 635.389 19.2207 l 1
 637.523 15.4385 l 1
 572.8 -29.1836 l 1
 562.476 -14.4385 l 1
 240.149 556.745 l 1
 231.008 369.225 178.37 186.79 80.0244 14.4385 c 1
 6.30078 -37.1826 l 1
 -4.02344 -22.4385 l 1
 96.9756 154.562 149.745 342.176 156.745 535.041 c 1
 225.305 583.047 l 1
 221.539 589.722 l 1
 286.263 634.343 l 1
EndSplineSet
Comment: "%DiaToBase1+AD0A-340+AAoA%DiaToBase2+AD0A-340+AAoA%DiaToBaseU+AD0A-330+AAoA%DiaToBase3+AD0A-340+AAoA%DiaToBaseO+AD0A-100+AAoA" 
EndChar

StartChar: afii57679
Encoding: 1503 1503 50
Width: 296
Flags: HMW
AnchorPoint: "DiaToBaseD" 0 0 basechar 0
LayerCount: 2
Back
SplineSet
231.114 604.16 m 25
 -38.0342 -400.317 l 25
EndSplineSet
Fore
SplineSet
277.812 637.344 m 1
 288.139 622.599 l 1
 18.9893 -381.879 l 1
 -54.7344 -433.501 l 1
 -65.0586 -418.756 l 1
 204.09 585.722 l 1
 277.812 637.344 l 1
EndSplineSet
EndChar

StartChar: afii57680
Encoding: 1504 1504 51
Width: 284
Flags: HMW
AnchorPoint: "DiaToBaseD" 120 0 basechar 0
AnchorPoint: "DiaToBaseO" 90 0 basechar 0
AnchorPoint: "CustomDiaU" -0.501953 -103 basechar 0
AnchorPoint: "CustomDia3" 75.749 -159.452 basechar 0
AnchorPoint: "CustomDia2" 52.3311 -255.167 basechar 0
AnchorPoint: "CustomDia1" -8.00195 -220 basechar 0
LayerCount: 2
Back
SplineSet
267.813 637.344 m 1
 278.138 622.599 l 1
 144.344 116.812 l 0
 123.041 36.2852 96.2324 -44.2676 57.0244 -111.562 c 0
 14.9326 -183.802 -39.4414 -242.864 -101.364 -286.182 c 0
 -175.088 -337.805 l 0
 -191.351 -349.181 -208.134 -359.472 -225.352 -368.631 c 0
 -297.853 -407.196 -379.504 -427.923 -459.295 -427.925 c 0
 -528.535 -427.926 -654.414 -407.631 -705.206 -335.141 c 0
 -715.53 -320.396 l 0
 -715.899 -319.868 -715.518 -320.414 -715.518 -320.414 c 1
 -715.793 -320.019 l 0
 -729.504 -300.311 -737.666 -276.754 -737.668 -248.723 c 0
 -737.67 -226.007 -730.313 -198.805 -715.109 -181.573 c 1
 -641.386 -129.951 l 1
 -631.062 -144.696 l 1
 -646.266 -161.928 -653.622 -189.13 -653.62 -211.846 c 0
 -653.618 -236.558 -647.265 -257.809 -636.374 -275.983 c 1
 -582.487 -342.49 -462.769 -361.559 -395.896 -361.558 c 0
 -316.104 -361.557 -234.453 -340.829 -161.952 -302.264 c 0
 -157.628 -299.964 -154.094 -298.02 -149.312 -295.292 c 1
 -102.989 -256.246 -60.8389 -206.475 -27.0234 -148.438 c 0
 12.1846 -81.1445 38.9932 -0.591797 60.2949 79.9355 c 0
 194.09 585.722 l 1
 267.813 637.344 l 1
236.114 604.16 m 9
 102.319 98.374 l 6
 81.0176 17.8467 54.2091 -62.706 15 -130 c 4
 -38.1455 -221.213 -110.872 -291.415 -193.652 -335.447 c 4
 -266.151 -374.012 -347.807 -394.741 -427.596 -394.741 c 4
 -515.735 -394.741 -695.645 -361.851 -695.645 -230.284 c 0
 -695.645 -207.567 -688.289 -180.366 -673.085 -163.135 c 0
EndSplineSet
Fore
SplineSet
277.81 637.344 m 1
 288.136 622.599 l 1
 154.342 116.812 l 0
 133.039 36.2852 106.23 -44.2676 67.0225 -111.562 c 0
 24.9307 -183.802 -29.4434 -242.864 -91.3662 -286.182 c 0
 -165.09 -337.805 l 0
 -181.353 -349.181 -198.136 -359.472 -215.354 -368.631 c 0
 -287.855 -407.196 -369.506 -427.923 -449.297 -427.925 c 0
 -526.187 -427.926 -647.502 -406 -701.558 -328.5 c 0
 -716.676 -306.825 -727.668 -281.32 -727.67 -248.723 c 0
 -727.672 -226.007 -720.314 -198.805 -705.111 -181.573 c 1
 -631.388 -129.951 l 1
 -621.064 -144.696 l 1
 -636.268 -161.928 -643.622 -189.13 -643.622 -211.846 c 0
 -643.622 -234.5 -638.109 -257.425 -625.376 -274.983 c 0
 -577.502 -341 -452.771 -361.559 -385.898 -361.558 c 0
 -306.106 -361.557 -224.455 -340.829 -151.954 -302.264 c 0
 -147.63 -299.964 -144.096 -298.02 -139.314 -295.292 c 1
 -92.9912 -256.246 -50.8408 -206.475 -17.0254 -148.438 c 0
 22.1826 -81.1445 48.9912 -0.591797 70.293 79.9355 c 0
 204.088 585.722 l 5
 277.81 637.344 l 1
EndSplineSet
Substitution2: "NUN_TINY2 subtable" nun.tiny2
Substitution2: "NUN_TINY subtable" nun.tiny
Substitution2: "NUN_SHORT2 subtable" nun.short2
Substitution2: "NUN_SHORT subtable" nun.short
Substitution2: "NUN_SMALL subtable" nun.small
Comment: "%DiaToBaseO+AD0A-90+AAoA" 
EndChar

StartChar: afii57681
Encoding: 1505 1505 52
Width: 766
Flags: HMW
AnchorPoint: "DiaToBaseD" 418 0 basechar 0
AnchorPoint: "DiaToBaseO" 160 0 basechar 0
AnchorPoint: "DiaToBaseU" 350 0 basechar 0
AnchorPoint: "DiaToBase3" 350 0 basechar 0
AnchorPoint: "DiaToBase2" 340 0 basechar 0
AnchorPoint: "DiaToBase1" 320 0 basechar 0
LayerCount: 2
Back
SplineSet
205.268 519.562 m 0
 276.266 572.052 365.973 604.16 459.553 604.16 c 0
 656.324 604.16 770.234 459.707 737.4 286.162 c 0
 709.4 138.162 538.579 8.16309 375.792 8.16309 c 0
 213.006 8.16309 86.1699 121.687 112.025 287.302 c 0
 124.112 364.724 153.343 408.569 220.396 465.13 c 0
EndSplineSet
Fore
SplineSet
163.568 486.379 m 1
 153.244 501.124 l 1
 156.186 503.299 159.159 505.438 162.164 507.542 c 0
 235.888 559.164 l 0
 305.407 607.842 391.548 637.342 481.253 637.344 c 0
 589.163 637.346 672.14 593.896 719.682 526.045 c 0
 730.006 511.3 l 0
 730.362 510.791 729.981 511.335 729.981 511.335 c 1
 730.248 510.953 l 0
 769.217 455.119 784.223 382.812 769.424 304.601 c 0
 754.406 225.227 698.312 151.029 624.405 99.2871 c 0
 550.682 47.666 l 0
 486.782 2.92969 409.577 -25.0186 334.092 -25.0205 c 0
 237.547 -25.0225 153.648 14.9092 106.748 81.9551 c 0
 96.4238 96.7002 l 0
 64.2432 142.702 49.4785 201.469 60.001 268.863 c 0
 72.0889 346.286 101.318 390.13 168.372 446.691 c 1
 242.096 498.312 l 1
 252.42 483.568 l 1
 185.369 427.009 156.133 383.16 144.049 305.74 c 0
 134.078 241.861 146.718 185.983 175.522 140.967 c 1
 223.181 78.5703 304.592 41.3447 397.491 41.3467 c 0
 458.428 41.3477 520.447 59.54 575.784 90.1309 c 1
 631.699 138.995 672.854 201.533 685.376 267.724 c 0
 699.555 342.662 686.434 412.015 651.009 466.914 c 1
 603.049 530.213 521.742 570.979 417.854 570.977 c 0
 332.025 570.975 249.467 543.975 181.588 498.996 c 1
 163.568 486.379 l 1
EndSplineSet
Comment: "%DiaToBase1+AD0A-320+AAoA%DiaToBase2+AD0A-340+AAoA%DiaToBaseU+AD0A-350+AAoA%DiaToBase3+AD0A-350+AAoA%DiaToBaseO+AD0A-160+AAoA" 
EndChar

StartChar: afii57682
Encoding: 1506 1506 53
Width: 696
Flags: HMW
AnchorPoint: "DiaToBaseD" 374 -54 basechar 0
AnchorPoint: "DiaToBaseO" 30 0 basechar 0
LayerCount: 2
Back
SplineSet
339.006 527.714 m 1
 281.681 546.271 216.522 560.562 144.447 570.977 c 1
 134.123 585.722 l 1
 207.847 637.344 l 1
 285.826 626.081 355.516 610.33 416.076 589.518 c 0
 422.603 587.242 l 1
 447.227 604.484 l 0
 541.663 670.596 648.501 723.672 766.574 763.03 c 1
 776.898 748.285 l 1
 703.175 696.664 l 1
 610.448 665.754 524.271 626.155 445.852 578.584 c 1
 513.153 552.172 567.797 518.66 608.254 477.194 c 0
 617.023 468.206 624.902 458.689 631.876 448.736 c 0
 642.2 433.991 l 0
 693.422 360.887 696.038 264.289 646.484 180.669 c 0
 620.768 137.273 588.681 98.8271 546.773 69.3662 c 1
 546.353 69.0713 l 0
 472.629 17.4492 l 0
 426.828 -14.5908 369.665 -35.4248 297.301 -39.1836 c 0
 229.473 -42.7061 160.288 -30.3789 124.303 20.9082 c 0
 113.979 35.6533 l 0
 109.113 42.5869 104.854 50.2334 101.288 58.6494 c 0
 58.3369 160.011 94.1064 278.908 170.678 368.812 c 0
 220.741 427.592 276.99 480.642 339.006 527.714 c 1
366.205 518.361 m 1
 326.261 483.553 288.959 445.882 254.726 405.688 c 0
 178.155 315.785 142.385 196.888 185.336 95.5264 c 0
 187.624 90.127 190.38 84.7373 193.062 80.2148 c 1
 230.519 34.6738 295.991 23.8213 360.699 27.1836 c 0
 414.174 29.9619 459.477 42.1943 497.559 61.0156 c 1
 522.9 85.0039 544.356 113.282 562.437 143.792 c 0
 610.244 224.466 609.309 317.703 563.217 389.567 c 1
 557.547 397.008 551.501 404.016 544.854 410.828 c 0
 502.093 454.655 443.621 489.548 371.021 516.586 c 0
 366.205 518.361 l 1
734.874 729.847 m 4
 522.018 658.895 345.651 543.344 212.702 387.25 c 4
 136.13 297.347 100.36 178.448 143.312 77.0879 c 4
 173.255 6.42773 252 -10 329 -6 c 4
 467.576 1.19875 550.398 71.0068 604.46 162.23 c 4
 660.76 257.233 649.731 369.005 576.554 444.011 c 4
 495.686 526.899 358.597 577.807 176.147 604.16 c 4
EndSplineSet
Fore
SplineSet
329.006 527.714 m 1
 271.681 546.271 206.522 560.562 134.447 570.977 c 1
 124.123 585.722 l 1
 197.847 637.344 l 1
 275.826 626.081 345.516 610.33 406.076 589.518 c 0
 412.603 587.242 l 1
 437.227 604.484 l 0
 531.663 670.596 638.501 723.672 756.574 763.03 c 1
 766.898 748.285 l 1
 693.175 696.664 l 1
 600.448 665.754 514.271 626.155 435.852 578.584 c 1
 503.153 552.172 557.797 518.66 598.254 477.194 c 0
 607.023 468.206 614.902 458.689 621.876 448.736 c 0
 632.2 433.991 l 0
 683.422 360.887 686.038 264.289 636.484 180.669 c 0
 610.768 137.273 578.681 98.8271 536.773 69.3662 c 1
 536.354 69.0713 l 0
 462.629 17.4492 l 0
 416.828 -14.5908 359.763 -39.1836 287.301 -39.1836 c 0
 205 -39.1836 142.5 -22 103.979 35.6533 c 0
 29.7842 146.697 82.123 276.58 160.678 368.812 c 0
 210.741 427.592 266.99 480.642 329.006 527.714 c 1
356.205 518.361 m 1
 316.261 483.553 278.484 446.282 244.726 405.688 c 0
 158.5 302 122.783 179.343 177 93.5 c 0
 213 36.5 285.904 27.1836 350.699 27.1836 c 0
 403 27.1836 449.477 42.1943 487.559 61.0156 c 1
 512.9 85.0039 534.356 113.282 552.438 143.792 c 0
 600.244 224.466 599.309 317.703 553.217 389.567 c 1
 547.547 397.008 541.501 404.016 534.854 410.828 c 0
 492.093 454.655 433.621 489.548 361.021 516.586 c 0
 356.205 518.361 l 1
EndSplineSet
Substitution2: "MiscSAlt" uniFB20
Substitution2: "Single Substitution lookup 14 subtable" uniFB20
Comment: "%DiaToBaseO+AD0A-30+AAoA" 
EndChar

StartChar: afii57683
Encoding: 1507 1507 54
Width: 624
Flags: HMW
AnchorPoint: "DiaToBaseD" 412 172 basechar 0
LayerCount: 2
Back
SplineSet
233.608 273.92 m 1
 193.561 245.879 l 1
 158.432 217.404 129.319 179.511 117.044 114.785 c 0
 112.568 91.1885 115.401 70.1445 123.904 53.8154 c 1
 138.35 38.1055 159.808 29.1836 186.795 29.1836 c 0
 201.553 29.1836 215.845 31.8301 229.104 36.4189 c 1
 255.053 64.8877 276.422 100.933 292.503 138.114 c 0
 356.334 285.696 383.588 452.243 421.204 585.722 c 0
 441.33 654.976 l 1
 435.658 654.346 l 0
 310.22 641.04 188.339 668.326 67.9131 606.703 c 1
 -17.0684 524.194 -39.8926 391.532 15.0234 303.854 c 1
 19.8037 297.719 25.0312 291.854 30.6992 286.313 c 1
 41.0244 271.568 l 1
 -32.6992 219.946 l 1
 -40.5449 227.615 -47.5361 235.895 -53.6904 244.679 c 0
 -64.0146 259.424 l 0
 -132.276 356.863 -97.707 516.436 15.749 596.226 c 1
 16.1172 596.483 l 0
 89.8408 648.105 l 0
 90.3564 648.466 90.873 648.825 91.3916 649.183 c 0
 213.437 733.26 335.813 711.351 461.573 717.82 c 1
 499.779 828.634 550.625 930.61 638.115 996.229 c 0
 640.025 997.662 641.957 999.061 643.907 1000.42 c 0
 717.631 1052.04 l 0
 776.708 1093.32 852.897 1102.02 881.407 1061.31 c 0
 891.731 1046.56 l 0
 892.154 1045.96 891.747 1046.54 891.747 1046.54 c 1
 892.062 1046.08 l 0
 892.549 1045.36 l 0
 940.089 973.526 852.183 875.271 749.644 803.449 c 0
 675.92 751.827 l 0
 675.354 751.432 l 1
 646.009 730.93 616.258 713.034 587.696 698.195 c 0
 564.712 686.254 541.766 677.25 519 670.486 c 1
 505.252 622.599 l 0
 467.636 489.12 440.383 322.573 376.551 174.991 c 0
 353.683 122.118 320.259 71.6514 277.764 41.6748 c 1
 277.37 41.3975 l 0
 203.646 -10.2236 l 0
 179.588 -27.0684 152.718 -37.1826 123.396 -37.1836 c 0
 92.6934 -37.1836 68.8613 -25.4482 54.9404 -5.62891 c 0
 44.6162 9.11621 l 0
 32.3398 26.5947 27.7715 50.3594 32.9961 77.9082 c 0
 47.2705 153.168 84.21 192.089 127.175 222.276 c 1
 127.658 222.615 l 0
 201.382 274.237 l 0
 208.556 279.255 215.883 284.021 223.284 288.665 c 1
 233.608 273.92 l 1
536.029 725.93 m 1
 543.692 727.37 l 0
 579.156 734.345 614.935 745.774 651.096 764.562 c 0
 667.442 773.055 683.996 782.448 701.091 793.02 c 1
 783.346 858.334 845.767 938.784 812.719 1001.38 c 1
 787.366 1027.62 737.711 1026.97 689.979 1005.86 c 1
 615.299 934.761 570.7 833.308 536.029 725.93 c 1
191.584 255.481 m 4
 139.891 223.047 91.7627 184.624 75.0195 96.3467 c 4
 63.8701 37.5576 97.3193 -4 155.095 -4 c 4
 236.213 -4 298.566 73.4111 334.527 156.553 c 4
 398.358 304.135 425.607 470.679 463.229 604.16 c 4
 507.703 761.957 558.507 923.444 680.14 1014.67 c 4
 740.493 1059.94 821.762 1070.38 850.524 1026.92 c 4
 911.575 934.663 749.239 798.839 619.396 731.379 c 4
 425.273 630.521 242.141 741.686 59.6924 615.999 c 4
 -65.4229 529.808 -96.4014 346.381 -1 253.13 c 4
EndSplineSet
Fore
SplineSet
393.608 273.92 m 1
 353.561 245.879 l 1
 318.432 217.404 285 168.667 275.333 114 c 0
 271.151 90.3496 273.689 69.415 284.904 54.8154 c 0
 298.333 37.333 319.808 29.1836 346.795 29.1836 c 0
 361.553 29.1836 375.845 31.8301 389.104 36.4189 c 1
 415.053 64.8877 436.422 100.933 452.503 138.114 c 0
 516.334 285.696 543.588 452.243 581.204 585.722 c 0
 601.33 654.976 l 1
 595.658 654.346 l 0
 470.22 641.04 348.339 668.326 227.913 606.703 c 1
 142.932 524.194 120.107 391.532 175.023 303.854 c 1
 179.804 297.719 185.031 291.854 190.699 286.312 c 1
 201.024 271.568 l 1
 127.301 219.946 l 1
 119.455 227.615 112.464 235.895 106.31 244.679 c 0
 95.9854 259.424 l 0
 27.7236 356.863 62.293 516.436 175.749 596.226 c 1
 176.117 596.483 l 0
 249.841 648.105 l 0
 250.356 648.466 250.873 648.825 251.392 649.183 c 0
 373.438 733.26 495.812 711.351 621.573 717.82 c 1
 659.779 828.634 710.625 930.61 798.115 996.229 c 0
 800.025 997.662 801.957 999.061 803.907 1000.42 c 0
 877.631 1052.04 l 2
 944.754 1098.94 1016 1100.33 1047.52 1055 c 0
 1102.86 975.429 1020.15 880.849 909.644 803.449 c 2
 835.92 751.827 l 0
 835.354 751.432 l 1
 806.009 730.93 776.258 713.034 747.696 698.195 c 0
 724.712 686.254 701.766 677.25 679 670.486 c 1
 665.252 622.599 l 0
 627.636 489.12 600.383 322.573 536.551 174.991 c 0
 513.683 122.118 480.259 71.6514 437.764 41.6748 c 1
 437.37 41.3975 l 0
 363.646 -10.2236 l 0
 339.588 -27.0684 312.718 -37.1826 283.396 -37.1836 c 0
 247.382 -37.1836 223.333 -20.333 209.299 0 c 0
 189.233 29.0713 188.113 69.9326 200.047 108 c 0
 216.427 160.247 250.82 196.733 287.175 222.276 c 1
 287.658 222.615 l 0
 361.382 274.237 l 0
 368.556 279.255 375.883 284.021 383.284 288.665 c 1
 393.608 273.92 l 1
696.029 725.93 m 1
 703.692 727.37 l 0
 739.156 734.345 774.935 745.774 811.096 764.562 c 0
 827.442 773.055 843.996 782.448 861.091 793.02 c 1
 943.346 858.334 1008.94 944.189 970.719 999.38 c 0
 950.667 1028.33 897.711 1026.97 849.979 1005.86 c 1
 775.299 934.761 730.7 833.308 696.029 725.93 c 1
EndSplineSet
EndChar

StartChar: afii57684
Encoding: 1508 1508 55
Width: 737
Flags: HMW
AnchorPoint: "DiaToBaseD" 414 -103 basechar 0
AnchorPoint: "DiaToBaseO" 130 0 basechar 0
AnchorPoint: "DiaToBaseU" 290 0 basechar 0
AnchorPoint: "DiaToBase3" 310 0 basechar 0
AnchorPoint: "DiaToBase2" 300 0 basechar 0
AnchorPoint: "DiaToBase1" 300 0 basechar 0
LayerCount: 2
Back
SplineSet
144.23 471.546 m 1
 133.906 486.291 l 1
 143.787 494.691 154.118 502.665 164.847 510.172 c 0
 238.57 561.794 l 0
 306.106 609.051 389.361 637.799 475.047 637.801 c 0
 574.346 637.803 656.759 599.184 707.24 537.912 c 0
 711.214 533.09 714.988 528.127 718.557 523.03 c 0
 728.881 508.285 l 0
 729.235 507.779 728.858 508.318 728.858 508.318 c 1
 729.124 507.938 l 0
 764.364 457.446 779.463 393.968 767.314 325.058 c 0
 753.91 249.028 709.651 179.611 647.7 126.947 c 0
 637.819 118.548 627.487 110.573 616.76 103.066 c 0
 543.035 51.4443 l 0
 475.502 4.18848 392.239 -24.5625 306.557 -24.5625 c 0
 220.776 -24.5615 149.939 6.95508 109.595 55.9346 c 0
 106.793 59.3359 104.165 62.7891 101.71 66.2959 c 0
 91.3857 81.041 l 0
 68.3223 113.993 60.5898 151.674 68.2842 195.308 c 0
 74.835 232.458 94.2578 269.912 126.334 297.182 c 0
 132.002 302 137.976 306.608 144.223 310.988 c 0
 217.946 362.609 l 0
 218.533 363.02 l 1
 264.352 394.887 323.911 414.299 385.465 414.301 c 0
 423.351 414.301 452.355 402.187 476.684 380.902 c 1
 487.009 366.157 l 1
 413.285 314.535 l 1
 388.956 335.82 359.951 347.935 322.066 347.934 c 0
 277.439 347.933 234.197 337.841 195.656 319.902 c 1
 172.863 295.153 157.829 263.365 152.332 232.185 c 0
 145.201 191.736 151.217 156.7 170.55 125.338 c 1
 171.123 124.609 172.201 123.265 172.994 122.302 c 0
 213.337 73.3203 284.174 41.8027 369.956 41.8047 c 0
 440.1 41.8057 508.729 61.1279 568.146 93.9463 c 1
 627.514 146.005 670.17 213.895 683.266 288.181 c 0
 694.855 353.922 681.729 414.479 649.87 463.918 c 1
 648.246 466.061 645.847 469.11 643.842 471.545 c 0
 593.359 532.816 510.946 571.436 411.647 571.434 c 0
 339.543 571.433 269.494 551.248 208.207 516.344 c 1
 144.23 471.546 l 1
175.93 504.729 m 5
 248.011 566.006 344.054 604.617 443.348 604.617 c 4
 542.643 604.617 625.068 566.006 675.541 504.729 c 4
 718.922 452.062 738.696 382.651 725.29 306.619 c 4
 711.883 230.587 667.629 161.175 605.676 108.509 c 4
 533.595 47.2314 437.551 8.62109 338.257 8.62109 c 4
 252.476 8.62109 181.639 40.1377 141.294 89.1182 c 4
 112.167 124.479 101.796 165.469 110.309 213.746 c 4
 116.859 250.896 136.281 288.351 168.358 315.62 c 4
 215.355 355.571 283.378 381.117 353.766 381.117 c 12
 391.65 381.117 420.657 369.005 444.984 347.719 c 4
EndSplineSet
Fore
SplineSet
119.23 471.546 m 1
 108.906 486.291 l 1
 118.787 494.691 129.118 502.665 139.847 510.172 c 0
 213.57 561.794 l 0
 281.106 609.051 364.361 637.799 450.047 637.801 c 0
 557.166 637.803 644.667 592 694.557 524.03 c 0
 733.005 471.649 756.302 404.399 742.314 325.058 c 0
 728.91 249.028 684.651 179.611 622.7 126.947 c 0
 612.819 118.548 602.487 110.573 591.76 103.066 c 0
 518.035 51.4443 l 0
 450.502 4.18848 367.239 -24.5625 281.557 -24.5625 c 0
 190.286 -24.5615 119.5 9 75.71 65.2959 c 0
 48.2441 100.605 33.8447 141.778 43.2842 195.308 c 0
 49.835 232.458 69.2578 269.912 101.334 297.182 c 0
 107.002 302 112.976 306.608 119.223 310.988 c 0
 192.946 362.609 l 0
 193.533 363.02 l 1
 239.352 394.887 298.911 414.299 360.465 414.301 c 0
 398.351 414.301 427.355 402.188 451.684 380.902 c 1
 462.009 366.157 l 1
 388.285 314.535 l 1
 363.956 335.82 334.951 347.935 297.066 347.934 c 0
 252.439 347.933 209.197 337.841 170.656 319.902 c 1
 147.863 295.153 132.829 263.365 127.332 232.185 c 0
 120.201 191.736 124.872 156.128 146.55 126.338 c 0
 185 73.5 257.504 41.8027 344.956 41.8047 c 0
 415.1 41.8057 483.729 61.1279 543.146 93.9463 c 1
 602.514 146.005 645.17 213.895 658.266 288.181 c 0
 669.855 353.922 658.191 415.155 623.87 462.918 c 0
 575.667 530 490.01 571.436 386.647 571.434 c 0
 314.543 571.433 244.494 551.248 183.207 516.344 c 1
 119.23 471.546 l 1
EndSplineSet
Comment: "%DiaToBase1+AD0A-300+AAoA%DiaToBase2+AD0A-300+AAoA%DiaToBaseU+AD0A-290+AAoA%DiaToBase3+AD0A-310+AAoA%DiaToBaseO+AD0A-130+AAoA" 
EndChar

StartChar: afii57685
Encoding: 1509 1509 56
Width: 614
Flags: HMW
AnchorPoint: "DiaToBaseD" 345 28 basechar 0
LayerCount: 2
Back
SplineSet
284.288 273.92 m 1
 244.24 245.879 l 1
 209.11 217.404 179.999 179.512 167.724 114.785 c 0
 163.249 91.1885 166.082 70.1445 174.585 53.8154 c 1
 189.03 38.1064 210.488 29.1836 237.475 29.1836 c 0
 252.232 29.1836 266.524 31.8301 279.784 36.4189 c 1
 305.733 64.8887 327.102 100.933 343.183 138.114 c 0
 387.517 240.616 419.435 352.284 447.183 455.714 c 1
 437.92 452.293 l 0
 344.786 418.509 254.117 404.246 167.992 412.854 c 0
 121.54 417.498 88.7109 437.664 68.0977 467.133 c 0
 57.7725 481.877 l 0
 11.2969 548.317 26.9492 662.074 88.7432 751.952 c 1
 162.467 803.574 l 1
 172.791 788.829 l 1
 113.229 702.201 96.5156 593.763 136.93 526.299 c 1
 157.507 501.021 188.902 483.469 231.392 479.222 c 0
 304.789 471.885 381.564 481.18 460.307 505.004 c 1
 482.021 585.722 l 0
 527.671 750.754 606 892.209 732.171 980.481 c 0
 805.895 1032.1 l 0
 825.409 1045.76 846.073 1058.14 867.934 1069.14 c 0
 926.111 1098.41 992.603 1089.23 1017.53 1053.57 c 0
 1027.86 1038.83 l 0
 1031.81 1033.18 1034.72 1026.86 1036.38 1019.93 c 0
 1061.77 914.045 915.461 743.658 769.736 641.656 c 0
 696.013 590.034 l 0
 693.67 588.395 691.326 586.771 688.983 585.167 c 0
 636.123 548.961 583.317 517.728 531.105 492.121 c 1
 503.396 388.836 471.521 277.394 427.23 174.991 c 0
 404.363 122.119 370.938 71.6514 328.443 41.6748 c 1
 328.05 41.3984 l 0
 254.326 -10.2236 l 0
 230.268 -27.0684 203.397 -37.1836 174.075 -37.1826 c 0
 143.373 -37.1836 119.541 -25.4482 105.62 -5.62891 c 0
 95.2959 9.11621 l 0
 83.0205 26.5938 78.4512 50.3594 83.6758 77.9082 c 0
 97.9492 153.167 134.895 192.093 177.849 222.272 c 1
 178.338 222.615 l 0
 252.062 274.237 l 0
 259.235 279.255 266.562 284.021 273.964 288.665 c 1
 284.288 273.92 l 1
542.472 534.783 m 1
 552.438 539.041 l 0
 607.505 562.943 663.198 593.286 719.364 629.561 c 1
 852.547 732.42 975.788 885.215 952.331 983.053 c 0
 951.373 987.052 950.142 990.502 948.314 994.292 c 1
 920.348 1023.61 858.619 1029.98 804.534 1002.77 c 0
 796.261 998.608 788.34 994.348 780.276 989.724 c 1
 675.181 901.088 607.261 771.516 566.069 622.599 c 0
 542.472 534.783 l 1
242.264 255.481 m 4
 190.57 223.047 142.442 184.624 125.7 96.3467 c 4
 114.551 37.5576 147.999 -4 205.774 -4 c 4
 286.893 -4 349.246 73.4121 385.207 156.553 c 4
 449.038 304.135 487.074 470.496 524.045 604.16 c 4
 576.752 794.717 673.044 953.852 836.233 1035.95 c 4
 903.628 1069.86 982.192 1052.17 994.355 1001.49 c 4
 1020.17 893.919 868.669 719.71 720.684 618.351 c 4
 540.199 494.731 361.869 429.82 199.692 446.038 c 4
 48.5156 461.156 41.5713 640.649 130.768 770.391 c 4
EndSplineSet
Fore
SplineSet
304.288 273.92 m 1
 264.24 245.879 l 1
 229.11 217.404 190.667 166.667 184.667 112.667 c 0
 182.015 88.7959 184.601 69.5908 195.585 54.8154 c 0
 208.333 37.667 230.488 29.1836 257.475 29.1836 c 0
 272.232 29.1836 286.524 31.8301 299.784 36.4189 c 1
 325.733 64.8887 347.102 100.933 363.183 138.114 c 0
 407.517 240.616 439.435 352.284 467.183 455.714 c 1
 457.92 452.293 l 0
 364.786 418.509 273.5 400 187.992 412.854 c 0
 144.247 419.43 105.19 440.297 82.2891 473 c 0
 33.2314 543.053 42.0508 654.949 108.743 751.952 c 1
 182.467 803.574 l 1
 192.791 788.829 l 1
 133.229 702.201 116 588 157.93 527.299 c 0
 176.455 500.48 209.155 485.502 251.392 479.222 c 0
 323.5 468.5 401.564 481.18 480.307 505.004 c 1
 502.021 585.722 l 0
 547.671 750.754 626 892.209 752.171 980.481 c 0
 825.895 1032.1 l 0
 845.409 1045.76 866.073 1058.14 887.934 1069.14 c 0
 954.148 1102.45 1017.4 1086.56 1043.83 1047 c 0
 1114 942 933.343 742.175 789.736 641.656 c 2
 716.013 590.034 l 0
 713.67 588.395 711.326 586.771 708.983 585.167 c 0
 656.123 548.961 603.317 517.729 551.105 492.121 c 1
 523.396 388.836 491.521 277.394 447.23 174.991 c 0
 424.363 122.119 390.938 71.6514 348.443 41.6748 c 1
 348.05 41.3984 l 0
 274.326 -10.2236 l 0
 250.268 -27.0684 223.397 -37.1836 194.075 -37.1826 c 0
 157.301 -37.1836 135.455 -22.1035 119.278 1 c 0
 105.274 21.001 97.3535 43.8701 101.334 77.334 c 0
 108.667 139 154.895 192.093 197.849 222.272 c 0
 222.572 239.614 247.324 256.915 272.062 274.237 c 0
 279.235 279.255 286.562 284.021 293.964 288.665 c 1
 304.288 273.92 l 1
562.472 534.783 m 1
 572.438 539.041 l 0
 627.505 562.943 683.198 593.286 739.364 629.561 c 1
 910 761 1009 928.5 966.314 992.292 c 0
 943.782 1025.97 878.619 1029.98 824.534 1002.77 c 0
 816.261 998.608 808.34 994.348 800.276 989.724 c 1
 695.181 901.088 627.261 771.516 586.069 622.599 c 0
 562.472 534.783 l 1
EndSplineSet
EndChar

StartChar: afii57686
Encoding: 1510 1510 57
Width: 685
Flags: HMW
AnchorPoint: "DiaToBaseD" 342 -53 basechar 0
AnchorPoint: "DiaToBaseU" 300 0 basechar 0
AnchorPoint: "DiaToBase3" 270 0 basechar 0
AnchorPoint: "DiaToBase2" 280 0 basechar 0
AnchorPoint: "DiaToBase1" 280 0 basechar 0
AnchorPoint: "CustomDiaO" 170 118 basechar 0
LayerCount: 2
Back
SplineSet
173.486 573.34 m 1
 163.162 588.084 l 1
 178.293 631.423 217.412 682.23 272.461 720.804 c 2
 346.185 772.426 l 1
 346.616 772.728 l 2
 396.875 807.798 459.803 832.49 529.915 832.492 c 0
 586.17 832.494 639.914 811.486 668.328 770.959 c 2
 678.644 756.214 l 1
 678.9 755.86 l 2
 691.92 737.132 699.548 714.261 699.55 687.39 c 0
 699.552 642.204 680.241 605.548 642.766 574.419 c 2
 605.017 543.064 l 1
 548.87 503.75 l 1
 563.829 495.479 577.676 485.525 590.7 474.184 c 0
 600.59 465.571 609.363 455.818 616.908 445.057 c 2
 627.232 430.312 l 2
 649.232 398.891 660.797 358.891 659.024 313.438 c 0
 656.151 239.785 625.325 168.027 573.018 113.341 c 0
 559.948 99.677 545.809 87.5449 530.592 76.8789 c 2
 456.868 25.2568 l 2
 395.529 -17.6935 316.736 -36.9316 219.814 -36.9316 c 0
 158.815 -36.9307 43.0205 -17.9297 -5.76758 51.2197 c 0
 -5.88284 51.3831 -5.94238 51.4443 -6.05762 51.6074 c 2
 -16.3643 66.3525 l 2
 -26.9484 81.4947 -34.3506 99.0146 -37.2715 119.259 c 1
 36.4521 170.88 l 1
 46.7773 156.136 l 1
 49.2236 139.177 54.9736 123.85 62.8271 110.717 c 1
 114.463 47.0068 224.179 29.4355 283.214 29.4355 c 0
 360.751 29.4355 426.939 41.9561 481.038 68.4863 c 1
 483.647 71.0098 486.378 73.754 488.97 76.4639 c 0
 541.276 131.151 572.104 202.908 574.977 276.562 c 0
 576.605 318.331 566.705 356.079 548.203 385.834 c 1
 541.763 394.015 534.992 401.119 527.301 407.816 c 0
 487.181 442.752 439.258 464.521 375.061 464.521 c 0
 350.633 464.521 331.725 462.716 312.908 457.926 c 1
 302.584 472.67 l 1
 376.307 524.292 l 1
 395.124 529.082 414.032 530.887 438.46 530.888 c 0
 473.085 530.888 502.975 524.556 529.46 513.24 c 1
 558.718 537.541 l 2
 596.193 568.671 615.504 605.326 615.502 650.513 c 0
 615.501 674.036 609.717 694.359 599.491 711.744 c 1
 570.146 747.361 519.284 766.127 466.516 766.126 c 0
 413.16 766.125 363.934 751.795 321.328 729.523 c 1
 285.238 696.633 258.909 658.47 247.21 624.962 c 1
 173.486 573.34 l 1
4.75293 137.697 m 0
 21.0801 24.541 177.086 -3.74805 251.514 -3.74805 c 0
 372.488 -3.74805 465.254 26.1729 530.994 94.9023 c 0
 583.301 149.586 614.131 221.35 617 295 c 0
 619.379 356.025 597.75 407.25 559 441 c 0
 518.885 475.939 470.955 497.704 406.76 497.704 c 0
 382.333 497.704 363.425 495.9 344.608 491.109 c 0
205.186 606.523 m 0
 234.081 689.293 350.496 799.309 498.215 799.309 c 0
 580.55 799.309 657.526 754.314 657.526 668.951 c 0
 657.526 623.763 638.219 587.111 600.742 555.98 c 2
 562.993 524.626 l 25
EndSplineSet
Fore
SplineSet
193.486 573.34 m 1
 183.162 588.084 l 1
 198.293 631.423 237.412 682.23 292.461 720.804 c 2
 366.185 772.426 l 1
 366.616 772.729 l 2
 416.875 807.798 479.803 832.49 549.915 832.492 c 0
 612.106 832.494 661.333 809.667 694.196 765 c 0
 709.32 744.444 720.55 718 720.55 687.39 c 0
 720.55 642.204 700.241 605.548 662.766 574.419 c 2
 625.017 543.064 l 1
 568.87 503.75 l 1
 583.829 495.479 597.676 485.525 610.7 474.184 c 0
 623.057 463.423 633.732 452.02 643.199 438.5 c 0
 666.706 404.927 680.989 363.803 679.024 313.438 c 0
 676.151 239.785 645.325 168.027 593.018 113.341 c 0
 579.948 99.6768 565.809 87.5449 550.592 76.8789 c 2
 476.868 25.2568 l 2
 415.529 -17.6934 336.736 -36.9316 239.814 -36.9316 c 0
 171.891 -36.9307 57.333 -14.333 8.00781 57.667 c 0
 -4.03711 75.249 -13.7588 94.9141 -17.2715 119.259 c 1
 56.4521 170.88 l 1
 66.7773 156.136 l 1
 69.2236 139.177 74.6807 123.985 83.8271 111.717 c 0
 131.333 48 244.179 29.4355 303.214 29.4355 c 0
 380.751 29.4355 446.939 41.9561 501.038 68.4863 c 1
 503.646 71.0098 506.378 73.7539 508.97 76.4639 c 0
 561.276 131.151 592.104 202.908 594.977 276.562 c 0
 596.605 318.331 587 355 567.203 384.834 c 0
 561.446 393.509 554.992 401.119 547.301 407.816 c 0
 507.181 442.752 459.258 464.521 395.061 464.521 c 0
 370.633 464.521 351.725 462.716 332.908 457.926 c 1
 322.584 472.67 l 1
 396.307 524.292 l 1
 415.124 529.082 434.032 530.887 458.46 530.888 c 0
 493.085 530.888 522.975 524.556 549.46 513.24 c 1
 578.718 537.541 l 2
 616.193 568.671 637.502 607.333 637.502 650.513 c 0
 637.502 674.036 630.764 694.739 618.491 710.744 c 0
 589.667 748.333 539.284 766.127 486.516 766.126 c 0
 433.16 766.125 383.934 751.795 341.328 729.523 c 1
 305.238 696.633 278.909 658.47 267.21 624.962 c 1
 193.486 573.34 l 1
EndSplineSet
Comment: "%DiaToBase1+AD0A-280+AAoA%DiaToBase2+AD0A-280+AAoA%DiaToBaseU+AD0A-300+AAoA%DiaToBase3+AD0A-270+AAoA" 
EndChar

StartChar: afii57687
Encoding: 1511 1511 58
Width: 761
Flags: HMW
AnchorPoint: "DiaToBaseD" 491 0 basechar 0
AnchorPoint: "DiaToBaseO" 150 0 basechar 0
AnchorPoint: "DiaToBaseU" 490 0 basechar 0
AnchorPoint: "DiaToBase3" 520 0 basechar 0
AnchorPoint: "DiaToBase2" 430 0 basechar 0
AnchorPoint: "DiaToBase1" 370 0 basechar 0
LayerCount: 2
Back
SplineSet
59.8164 384.716 m 4
 97.835 478.964 235.843 604.16 430.211 604.16 c 4
 611.155 604.16 734.468 470.656 705.463 306.161 c 4
 676.458 141.666 506.065 8.16309 325.121 8.16309 c 4
271 352.787 m 21
 81.709 99.3867 198.131 -107.387 6.91016 -400.317 c 13
EndSplineSet
Fore
SplineSet
53.1172 351.533 m 1
 42.793 366.277 l 1
 61.2793 412.107 103.409 465.252 164.164 507.765 c 0
 237.888 559.387 l 0
 302.077 604.303 387.055 637.342 486.911 637.344 c 0
 590.74 637.346 675.583 593.384 723.576 524.843 c 0
 733.9 510.098 l 0
 769.548 459.188 784.847 394.705 772.487 324.6 c 0
 756.767 235.428 699.485 155.357 621.506 100.732 c 0
 547.782 49.1113 l 0
 547.41 48.8506 l 1
 481.429 2.77051 401.076 -25.0205 318.422 -25.0205 c 1
 308.097 -10.2754 l 1
 381.82 41.3467 l 1
 449.147 41.3477 514.878 59.7627 572.746 91.5527 c 1
 631.985 143.514 675.173 212.475 688.439 287.723 c 0
 700.204 354.455 686.904 416.076 654.857 465.773 c 1
 606.058 530.02 523.593 570.979 423.512 570.977 c 0
 342.361 570.976 270.932 549.102 212.778 516.909 c 1
 171.163 480.491 141.51 439.52 126.841 403.154 c 1
 53.1172 351.533 l 1
327.699 385.97 m 1
 338.023 371.226 l 1
 148.742 117.83 265.146 -88.9531 73.9346 -381.879 c 1
 0.210938 -433.501 l 1
 -10.1143 -418.756 l 1
 181.098 -125.83 64.6943 80.9531 253.976 334.348 c 1
 327.699 385.97 l 1
EndSplineSet
Comment: "%DiaToBase1+AD0A-370+AAoA%DiaToBase2+AD0A-430+AAoA%DiaToBaseU+AD0A-490+AAoA%DiaToBase3+AD0A-520+AAoA%DiaToBaseO+AD0A-150+AAoA" 
EndChar

StartChar: afii57688
Encoding: 1512 1512 59
Width: 728
Flags: HMW
AnchorPoint: "DiaToBaseD" 360 0 basechar 0
AnchorPoint: "DiaToBaseO" 60 0 basechar 0
AnchorPoint: "DiaToBaseU" 450 0 basechar 0
AnchorPoint: "DiaToBase3" 400 0 basechar 0
AnchorPoint: "DiaToBase2" 470 0 basechar 0
AnchorPoint: "DiaToBase1" 480 0 basechar 0
LayerCount: 2
Back
SplineSet
145.879 523.739 m 0
 233.027 578.458 318.854 604.16 430.386 604.16 c 0
 633.6 604.16 724 473 724 344.5 c 0
 724 289 711.263 237.322 695 194.5 c 0
 667.086 121 625.5 57 578.578 -4 c 0
EndSplineSet
Fore
SplineSet
53.8535 505.301 m 1
 127.578 556.922 l 1
 214.729 611.643 300.55 637.342 412.086 637.344 c 0
 533.575 637.346 614.749 590.471 660.378 525.306 c 0
 670.703 510.561 l 0
 671.085 510.015 670.595 510.715 670.824 510.387 c 0
 670.938 510.223 l 0
 701.481 466.461 716.021 414.482 716.024 362.938 c 0
 716.027 307.441 703.287 255.761 687.023 212.938 c 0
 659.109 139.438 617.527 75.4395 570.604 14.4385 c 1
 496.879 -37.1836 l 1
 486.555 -22.4385 l 1
 533.479 38.5625 575.062 102.562 602.976 176.062 c 0
 619.239 218.883 631.979 270.564 631.976 326.062 c 0
 631.973 374.829 618.97 423.95 591.696 466.189 c 1
 545.264 527.396 465.593 570.979 348.688 570.977 c 0
 237.15 570.975 151.33 545.275 64.1797 490.556 c 1
 53.8535 505.301 l 1
EndSplineSet
Substitution2: "WideLetters" uniFB27
Comment: "%DiaToBase1+AD0A-480+AAoA%DiaToBase2+AD0A-470+AAoA%DiaToBaseU+AD0A-450+AAoA%DiaToBase3+AD0A-400+AAoA%DiaToBaseO+AD0A-60+AAoA" 
EndChar

StartChar: afii57689
Encoding: 1513 1513 60
Width: 698
Flags: HMW
AnchorPoint: "DiaToBaseD" 442 196 basechar 0
AnchorPoint: "DiaToBaseO" 150 0 basechar 0
AnchorPoint: "DiaToBaseU" 300 0 basechar 0
AnchorPoint: "DiaToBase3" 320 0 basechar 0
AnchorPoint: "DiaToBase2" 300 0 basechar 0
AnchorPoint: "DiaToBase1" 300 0 basechar 0
LayerCount: 2
Back
SplineSet
601.57 114.326 m 1
 611.896 99.5811 l 1
 609.039 97.4561 606.148 95.3691 603.227 93.3213 c 0
 529.503 41.7002 l 0
 528.873 41.2598 l 1
 469.365 -0.185547 397.301 -25.0205 323.074 -25.0205 c 0
 235.555 -25.0195 158.155 8.37305 114.399 70.8828 c 0
 104.075 85.6279 l 0
 66.4141 139.431 53.6768 214.801 80.8486 309.009 c 0
 114.711 426.408 186.302 529.15 281.771 596.037 c 0
 355.495 647.659 l 0
 355.893 647.938 l 1
 414.868 689.134 482.449 716.515 555.959 725.526 c 0
 624.717 733.956 694.26 719.741 724.996 675.846 c 0
 735.32 661.101 l 0
 740.223 654.1 744.138 646.343 746.905 637.803 c 0
 775.579 549.297 707.582 462.896 628.218 407.322 c 0
 554.494 355.7 l 0
 554.006 355.359 l 1
 544.87 348.986 536.244 343.432 527.224 338.052 c 0
 423.227 276.018 315.588 248.654 198.816 246.827 c 1
 188.492 261.572 l 1
 262.216 313.193 l 1
 374.649 314.953 478.36 340.255 579.172 397.736 c 1
 641.366 451.763 687.239 525.662 662.856 600.926 c 0
 661.058 606.478 658.744 611.758 656.032 616.624 c 1
 623.159 654.681 557.367 667.105 492.56 659.16 c 0
 434.216 652.007 379.506 633.219 330.082 605.273 c 1
 252.747 539.429 194.427 448.253 164.897 345.886 c 0
 138.94 255.903 149.286 183.433 183.145 129.973 c 1
 227.497 72.4229 302.508 41.3447 386.474 41.3467 c 0
 457.21 41.3477 525.86 63.833 583.907 101.958 c 1
 601.57 114.326 l 1
569.871 81.1426 m 4
 509.072 35.9004 433.02 8.16309 354.773 8.16309 c 4
 191.925 8.16309 64.123 123.781 122.873 327.447 c 4
 177.607 517.193 330.862 668.625 524.259 692.343 c 4
 603.988 702.121 684.764 681.445 704.881 619.364 c 4
 736.81 520.842 648.911 424.912 558.923 371.234 c 4
 454.929 309.202 347.283 281.835 230.517 280.011 c 4
EndSplineSet
Fore
SplineSet
596.569 114.326 m 1
 606.896 99.5811 l 1
 604.038 97.4561 601.146 95.3691 598.226 93.3213 c 0
 524.502 41.7002 l 0
 523.872 41.2598 l 1
 464.364 -0.185547 392.3 -25.0205 318.073 -25.0205 c 0
 224.611 -25.0195 149.276 11.498 103.415 77 c 0
 63.5723 133.904 46.7773 208.219 75.8477 309.009 c 0
 109.71 426.408 181.301 529.15 276.771 596.037 c 0
 350.494 647.659 l 0
 350.892 647.938 l 1
 409.867 689.134 477.448 716.515 550.958 725.526 c 0
 627.193 734.873 692.532 717.254 726.021 669.667 c 0
 752.999 631.333 754.909 577.402 733.562 530.333 c 0
 711.934 482.641 669.509 439.738 623.217 407.322 c 0
 549.493 355.7 l 0
 549.005 355.359 l 1
 539.869 348.986 531.243 343.432 522.223 338.052 c 0
 418.226 276.018 310.587 248.654 193.815 246.827 c 1
 183.491 261.572 l 1
 257.215 313.193 l 1
 369.648 314.953 473.359 340.255 574.171 397.736 c 1
 614.925 433.138 646.666 476.667 660.234 524.333 c 0
 669.155 555.673 667.327 594.129 650.031 615.624 c 0
 615.666 658.333 552.366 667.105 487.559 659.16 c 0
 429.215 652.007 374.505 633.219 325.081 605.273 c 1
 247.746 539.429 189.426 448.253 159.896 345.886 c 0
 133.939 255.903 142.811 182.783 179.144 130.973 c 0
 220.499 72 297.507 41.3447 381.473 41.3467 c 0
 452.209 41.3477 520.859 63.833 578.906 101.958 c 1
 596.569 114.326 l 1
EndSplineSet
Comment: "%DiaToBase1+AD0A-300+AAoA%DiaToBase2+AD0A-300+AAoA%DiaToBaseU+AD0A-300+AAoA%DiaToBase3+AD0A-320+AAoA%DiaToBaseO+AD0A-150+AAoA" 
EndChar

StartChar: numbersign
Encoding: 35 35 61
Width: 934
VWidth: 0
Flags: HMW
HStem: 114.573 77.8535<113.711 721.143> 407.573 77.8535<113.711 721.143>
VStem: 207 77.8535<21.2842 578.716> 550 77.8535<21.2842 578.716>
LayerCount: 2
Back
SplineSet
804.024 152.573 m 5
 103.024 152.573 l 5
882.533 445.573 m 5
 181.533 445.573 l 5
586.78 -8.28418 m 1
 752.104 608.716 l 1
243.78 -8.28418 m 1
 409.104 608.716 l 1
EndSplineSet
Fore
SplineSet
832.041 164.865 m 1
 782.892 130.451 l 1
 81.8916 130.451 l 1
 75.0088 140.281 l 1
 124.157 174.695 l 1
 825.158 174.695 l 1
 832.041 164.865 l 1
910.549 457.865 m 1
 861.4 423.451 l 1
 160.4 423.451 l 1
 153.517 433.281 l 1
 202.666 467.695 l 1
 903.666 467.695 l 1
 910.549 457.865 l 1
555.081 -41.4678 m 1
 544.756 -26.7227 l 1
 710.08 590.277 l 1
 783.804 641.899 l 1
 794.129 627.154 l 1
 628.805 10.1543 l 1
 555.081 -41.4678 l 1
212.081 -41.4678 m 1
 201.757 -26.7227 l 1
 367.081 590.277 l 1
 440.805 641.899 l 1
 451.129 627.154 l 1
 285.805 10.1543 l 1
 212.081 -41.4678 l 1
EndSplineSet
EndChar

StartChar: dollar
Encoding: 36 36 62
Width: 833
Flags: HMW
HStem: -12.4111 84.8379<296.609 392.674> 527.573 84.7881<445.73 543.378>
VStem: 119.399 84.8535<398.572 469.641> 376.8 84.8535<-91.7158 -28.2842 628.284 691.716> 639.699 84.8535<134.72 196.647>
LayerCount: 2
Back
SplineSet
587.2 740.188 m 1
 356.2 -136 l 9
666.043 390.477 m 1
 655.719 405.222 l 1
 687.61 427.813 720.538 478.269 688.089 521.603 c 0
 661.333 557.333 604.957 580.754 529.245 580.752 c 0
 460.484 580.751 399.49 568.2 334.387 535.304 c 1
 316.459 512.55 309.464 480.702 329.999 455.568 c 0
 378.667 396 496.493 367.435 594.699 330.184 c 0
 654.5 307.5 705 274 728.014 232.309 c 0
 763.566 167.901 730.72 105.275 685.882 73.8447 c 2
 612.158 22.2227 l 0
 611.819 21.9863 l 1
 555.421 -17.3057 467.682 -33.1816 379.5 -33.1836 c 0
 270.062 -33.1855 179.292 -14.6641 135.399 47.8613 c 0
 99.5 99 105.546 158.386 154 199.5 c 1
 205.229 235.123 l 1
 215.554 220.379 l 1
 179.598 189.871 178.292 139.426 204.217 107.005 c 0
 249 51 337.905 33.1816 442.899 33.1836 c 0
 511.426 33.1846 579.773 42.8213 633.164 65.4766 c 1
 657.911 95.4443 679.819 150.078 648.699 188.068 c 0
 625 217 586.791 240.675 531.3 263.816 c 0
 416.58 311.66 296 332.333 250.755 411.182 c 0
 224.433 457.054 250.668 504.344 277.08 522.924 c 2
 350.805 574.546 l 0
 353.955 576.75 357.203 578.861 360.52 580.878 c 0
 440.948 629.812 511.202 647.117 592.645 647.119 c 0
 680.562 647.121 733 617.333 764.113 575.5 c 0
 776.956 558.232 784.333 534 780.333 509.333 c 0
 775.12 477.187 753.667 452.333 725.333 432.333 c 1
 666.043 390.477 l 1
697.743 423.66 m 0
 722.419 441.141 740.077 462.752 742.122 495.255 c 0
 746.012 557.065 676.95 613.936 560.945 613.936 c 0
 479.505 613.936 409.247 596.627 328.82 547.695 c 24
 291.538 525.012 262.862 490.514 283.737 445.28 c 0
 319.189 368.461 454.507 342.245 563 297 c 0
 669.562 252.56 716 202 701 136 c 0
 678.461 36.8281 545.216 0 411.2 0 c 0
 287.816 0 188.041 23.4609 152.702 107.181 c 0
 138.44 140.97 145.339 178.021 173.529 201.94 c 0
EndSplineSet
Fore
SplineSet
666.043 390.477 m 1
 655.719 405.222 l 1
 687.61 427.813 720.538 478.269 688.089 521.603 c 0
 666.823 550.002 626.844 570.625 573.317 577.891 c 1
 514.764 355.801 l 1
 541.035 346.72 567.512 337.737 592.699 328.184 c 0
 652.5 305.5 703 272 726.014 230.309 c 0
 761.566 165.901 728.72 103.275 683.882 71.8447 c 2
 612.158 22.2227 l 1
 611.819 21.9863 l 2
 562.454 -12.4055 489.078 -28.8577 412.411 -32.4276 c 1
 388.886 -121.659 l 1
 331.545 -161.809 l 1
 323.515 -150.341 l 1
 354.493 -32.8409 l 1
 256.322 -30.0624 175.902 -9.83547 135.399 47.8613 c 0
 99.5 99 105.546 158.386 154 199.5 c 1
 205.229 235.123 l 1
 215.554 220.379 l 1
 179.598 189.871 178.292 139.426 204.217 107.005 c 0
 238.603 64.002 299.003 43.5131 372.726 36.3185 c 1
 442.186 299.782 l 1
 359.851 328.742 285.985 355.272 252.755 413.182 c 0
 226.433 459.054 254.668 508.344 281.08 526.924 c 2
 350.805 574.546 l 2
 353.955 576.75 357.203 578.861 360.52 580.878 c 0
 420.668 617.473 475.126 636.379 532.828 643.587 c 1
 554.516 725.848 l 1
 611.855 765.998 l 1
 619.886 754.529 l 1
 591.568 647.118 l 1
 592.645 647.119 l 2
 680.562 647.121 733 617.333 764.113 575.5 c 0
 776.956 558.232 784.333 534 780.333 509.333 c 0
 775.12 477.187 753.667 452.333 725.333 432.333 c 2
 666.043 390.477 l 1
516.221 580.598 m 1
 452.712 579.073 395.351 566.109 334.387 535.304 c 1
 316.459 512.55 307.464 478.702 327.999 453.568 c 0
 355.697 419.666 405.796 395.806 461.931 374.672 c 1
 516.221 580.598 l 1
429.734 33.2795 m 1
 434.093 33.215 438.482 33.1835 442.899 33.1836 c 0
 511.426 33.1846 579.773 42.8213 633.164 65.4766 c 1
 657.911 95.4443 681.819 152.078 650.699 190.068 c 0
 627 219 588.791 242.675 533.3 265.816 c 0
 520.57 271.125 507.769 276.1 495.006 280.856 c 1
 429.734 33.2795 l 1
EndSplineSet
Comment: "stick 70 14 35+AAoA-S 90 18 35" 
EndChar

StartChar: sterling
Encoding: 163 163 63
Width: 803
Flags: HMW
HStem: -21.4268 84.8536<231.55 691.293> 272.174 84.852<246.813 463.536> 557.573 84.854<381.461 596.26>
LayerCount: 2
Back
SplineSet
92.7627 272.549 m 1
 166.486 324.171 l 1
 265.803 352.55 356.509 354.048 450.699 332.271 c 1
 461.024 317.526 l 1
 387.301 265.904 l 1
 293.109 287.681 202.403 286.183 103.087 257.804 c 1
 92.7627 272.549 l 1
638.144 405.222 m 1
 641.807 407.786 l 1
 665.584 424.877 682.713 445.907 686.275 476.816 c 0
 689.18 502.013 683.159 532.013 667.436 557.982 c 1
 642.609 588.833 601.755 611.906 542.331 611.904 c 0
 489.864 611.903 443.422 600.629 399.077 577.03 c 1
 398.4 576.445 399.169 577.111 398.494 576.526 c 0
 307.356 497.528 263.43 384.525 262.143 264.526 c 0
 261.254 181.601 229.641 115.057 131.372 42.3203 c 1
 312.861 85.9512 476.299 84.9648 648.582 45.1396 c 1
 658.906 30.3945 l 1
 585.183 -21.2275 l 1
 396.794 22.3203 218.363 19.3291 16.7578 -37.4277 c 1
 6.43359 -22.6826 l 1
 56.7119 12.5225 l 1
 147.655 82.5781 177.234 147.433 178.095 227.649 c 0
 179.382 347.647 223.309 460.65 314.446 539.649 c 0
 326.993 550.525 339.44 560.307 351.894 569.036 c 0
 425.617 620.658 l 0
 482.237 660.348 538.971 678.27 605.73 678.271 c 0
 669.674 678.272 712.167 651.53 736.227 617.17 c 0
 746.551 602.426 l 0
 766.14 574.449 773.521 541.433 770.323 513.693 c 0
 766.669 481.988 748.695 460.645 724.062 443.392 c 0
 650.338 391.77 l 0
 649.719 391.336 649.096 390.905 648.468 390.477 c 1
 638.144 405.222 l 1
134.787 290.987 m 1
 234.102 319.365 324.811 320.865 419 299.088 c 9
680.168 423.66 m 0
 705.761 441.141 724.551 462.752 728.3 495.255 c 0
 735.429 557.065 690.035 645.088 574.03 645.088 c 0
 492.59 645.088 426.062 618.41 356.471 558.088 c 0
 265.33 479.088 221.408 366.088 220.119 246.088 c 0
 219.117 152.788 179.42 80.0879 48.458 -4.24414 c 1
 250.06 52.5117 428.505 55.5117 616.882 11.9561 c 9
EndSplineSet
Fore
SplineSet
107.763 272.549 m 5
 181.486 324.171 l 5
 280.803 352.55 371.509 354.048 465.699 332.271 c 5
 476.024 317.526 l 5
 402.301 265.904 l 5
 308.109 287.681 217.403 286.183 118.087 257.804 c 5
 107.763 272.549 l 5
653.144 405.222 m 5
 656.807 407.786 l 5
 680.584 424.877 697.713 445.907 701.275 476.816 c 4
 704.18 502.013 699 533 681.436 556.982 c 4
 658.038 588.93 616.755 611.906 557.331 611.904 c 4
 504.864 611.903 458.422 600.629 414.077 577.03 c 5
 413.4 576.445 414.169 577.111 413.494 576.526 c 4
 322.356 497.528 278.43 384.525 277.143 264.526 c 4
 276.254 181.601 244.641 115.057 146.372 42.3203 c 5
 327.861 85.9512 491.299 84.9648 663.582 45.1396 c 5
 673.906 30.3945 l 5
 600.183 -21.2275 l 5
 411.794 22.3203 233.363 19.3291 31.7578 -37.4277 c 5
 21.4336 -22.6826 l 5
 71.7119 12.5225 l 5
 162.655 82.5781 192.234 147.433 193.095 227.649 c 4
 194.382 347.647 238.309 460.65 329.446 539.649 c 4
 341.993 550.525 354.44 560.307 366.894 569.036 c 4
 440.617 620.658 l 4
 497.237 660.348 553.971 678.27 620.73 678.271 c 4
 690.59 678.272 730.734 648.863 757.247 611 c 4
 777.459 582.135 785 544.667 778.333 510 c 4
 772.306 478.659 753.633 453.252 728.999 435.999 c 4
 665.338 391.77 l 4
 664.719 391.336 664.096 390.905 663.468 390.477 c 5
 653.144 405.222 l 5
EndSplineSet
EndChar

StartChar: afii57793
Encoding: 1460 1460 64
Width: 0
Flags: HMW
HStem: -221.422 141.422
VStem: -70.7109 141.422
AnchorPoint: "DiaToBase1" 0 0 mark 0
AnchorPoint: "CustomDia1" 0 0 mark 0
LayerCount: 2
Back
SplineSet
-59.3301 -221.422 m 5
 -111.094 -150.711 l 5
 -21.4355 -80 l 5
 30.3281 -150.711 l 5
 -59.3301 -221.422 l 5
EndSplineSet
Fore
SplineSet
-45.7432 -219.503 m 1
 -103.102 -137.588 l 1
 -21.1855 -80.2295 l 1
 36.1719 -162.146 l 1
 -45.7432 -219.503 l 1
EndSplineSet
EndChar

StartChar: afii57799
Encoding: 1456 1456 65
Width: 0
Flags: HMW
HStem: -401.375 321.375
VStem: -70.71 141.422
AnchorPoint: "DiaToBase1" 0 0 mark 0
AnchorPoint: "CustomDia1" 0 0 mark 0
LayerCount: 2
Back
SplineSet
-107.547 -401.375 m 1
 -159.312 -330.664 l 1
 -69.6533 -259.953 l 1
 -17.8896 -330.664 l 1
 -107.547 -401.375 l 1
-59.3311 -221.422 m 1
 -111.095 -150.711 l 1
 -21.4365 -80 l 1
 30.3271 -150.711 l 1
 -59.3311 -221.422 l 1
EndSplineSet
Fore
SplineSet
-94.0576 -399.273 m 1
 -151.416 -317.358 l 1
 -69.5 -260 l 1
 -12.1426 -341.916 l 1
 -94.0576 -399.273 l 1
-46.0576 -219.273 m 1
 -103.416 -137.358 l 1
 -21.5 -80 l 1
 35.8574 -161.916 l 1
 -46.0576 -219.273 l 1
EndSplineSet
EndChar

StartChar: afii57794
Encoding: 1461 1461 66
Width: 0
Flags: HMW
HStem: -221.422 141.422
AnchorPoint: "DiaToBase2" 0 0 mark 0
AnchorPoint: "CustomDia2" 0 0 mark 0
LayerCount: 2
Back
SplineSet
-164.119 -221.422 m 1
 -215.883 -150.711 l 1
 -126.225 -80 l 1
 -74.4609 -150.711 l 1
 -164.119 -221.422 l 1
45.459 -221.422 m 1
 -6.30469 -150.711 l 1
 83.3535 -80 l 1
 135.117 -150.711 l 1
 45.459 -221.422 l 1
EndSplineSet
Fore
SplineSet
-150.657 -219.484 m 5
 -208.016 -137.569 l 5
 -126.1 -80.2109 l 5
 -68.7422 -162.127 l 5
 -150.657 -219.484 l 5
58.8428 -219.484 m 1
 1.48535 -137.568 l 1
 83.4004 -80.2109 l 1
 140.759 -162.126 l 1
 58.8428 -219.484 l 1
EndSplineSet
EndChar

StartChar: afii57801
Encoding: 1457 1457 67
Width: 0
Flags: HMW
HStem: -401.375 321.375
AnchorPoint: "DiaToBase3" 0 0 mark 0
AnchorPoint: "CustomDia3" 0 0 mark 0
LayerCount: 2
Back
SplineSet
-209.841 -386.211 m 1
 -261.605 -315.5 l 1
 -171.947 -244.789 l 1
 -120.184 -315.5 l 1
 -209.841 -386.211 l 1
-260.476 -221.422 m 1
 -312.239 -150.711 l 1
 -222.582 -80 l 1
 -170.818 -150.711 l 1
 -260.476 -221.422 l 1
-70.8975 -221.422 m 1
 -122.661 -150.711 l 1
 -33.0029 -80 l 1
 18.7607 -150.711 l 1
 -70.8975 -221.422 l 1
96.2773 -391.375 m 1
 44.5137 -320.664 l 1
 134.171 -249.953 l 1
 185.935 -320.664 l 1
 96.2773 -391.375 l 1
141.814 -221.422 m 1
 90.0498 -150.711 l 1
 179.708 -80 l 1
 231.471 -150.711 l 1
 141.814 -221.422 l 1
EndSplineSet
Fore
SplineSet
-196.058 -384.273 m 1
 -253.416 -302.357 l 1
 -171.5 -245 l 1
 -114.143 -326.915 l 1
 -196.058 -384.273 l 1
-246.558 -219.273 m 1
 -303.914 -137.357 l 1
 -222 -80 l 1
 -164.642 -161.915 l 1
 -246.558 -219.273 l 1
-57.5576 -219.273 m 1
 -114.916 -137.357 l 1
 -33 -80 l 1
 24.3574 -161.915 l 1
 -57.5576 -219.273 l 1
109.942 -389.273 m 1
 52.584 -307.358 l 1
 134.5 -250 l 1
 191.856 -331.916 l 1
 109.942 -389.273 l 1
155.442 -219.273 m 1
 98.084 -137.357 l 1
 180 -80 l 1
 237.357 -161.915 l 1
 155.442 -219.273 l 1
EndSplineSet
Comment: "%DiaToBase1+AD0A-0+AAoA%DiaToBase2+AD0A-0+AAoA%DiaToBase3+AD0A-0+AAoA%DiaToBaseO+AD0A-0+AAoA%DiaToBaseU+AD0A-0+AAoA" 
EndChar

StartChar: afii57800
Encoding: 1458 1458 68
Width: 0
Flags: HMW
HStem: -401.375 321.375
VStem: 142.647 141.422
AnchorPoint: "DiaToBase3" 0 0 mark 0
AnchorPoint: "CustomDia3" 0 0 mark 0
LayerCount: 2
Back
SplineSet
105.354 -401.375 m 1
 53.5898 -330.664 l 1
 143.248 -259.953 l 1
 195.012 -330.664 l 1
 105.354 -401.375 l 1
153.57 -221.422 m 1
 101.806 -150.711 l 1
 191.464 -80 l 1
 243.229 -150.711 l 1
 153.57 -221.422 l 1
-11.4082 -166.724 m 5
 60.3184 -110.155 l 1
 52.0352 -98.8408 l 1
 -253.529 -98.8408 l 1
 -325.255 -155.409 l 1
 -316.973 -166.724 l 5
 -215.117 -166.724 -113.263 -166.724 -11.4082 -166.724 c 5
EndSplineSet
Fore
SplineSet
-326.523 -151.438 m 1
 -252.8 -99.8164 l 1
 52.7646 -99.8164 l 1
 63.0889 -114.562 l 1
 -10.6348 -166.183 l 1
 -316.199 -166.183 l 1
 -326.523 -151.438 l 1
119.299 -399.273 m 1
 61.9404 -317.358 l 1
 143.856 -260 l 1
 201.214 -341.916 l 1
 119.299 -399.273 l 1
167.299 -219.273 m 1
 109.94 -137.358 l 1
 191.856 -80 l 1
 249.214 -161.916 l 1
 167.299 -219.273 l 1
EndSplineSet
EndChar

StartChar: afii57802
Encoding: 1459 1459 69
Width: 0
Flags: HMW
HStem: -166.724 67.8832<-267.045 -122.928 -82.9473 33.2656>
VStem: -150.83 67.8827<-331.373 -194.627>
AnchorPoint: "DiaToBase3" 0 0 mark 0
AnchorPoint: "CustomDia3" 0 0 mark 0
LayerCount: 2
Back
SplineSet
105.354 -401.375 m 1
 53.5898 -330.664 l 1
 143.248 -259.953 l 1
 195.012 -330.664 l 1
 105.354 -401.375 l 1
153.57 -221.422 m 1
 101.806 -150.711 l 1
 191.464 -80 l 1
 243.229 -150.711 l 1
 153.57 -221.422 l 1
-231.747 -376.627 m 1
 -182.98 -194.627 l 1
 -147.602 -166.724 l 1
 -316.973 -166.724 l 1
 -325.255 -155.409 l 1
 -253.529 -98.8408 l 1
 52.0352 -98.8408 l 1
 60.3184 -110.155 l 1
 -11.4082 -166.724 l 1
 -107.621 -166.724 l 1
 -151.738 -331.373 l 1
 -223.465 -387.941 l 1
 -231.747 -376.627 l 1
EndSplineSet
Fore
SplineSet
118.942 -399.273 m 1
 61.584 -317.358 l 1
 143.5 -260 l 1
 200.857 -341.916 l 1
 118.942 -399.273 l 1
166.942 -219.273 m 1
 109.585 -137.358 l 1
 191.5 -80 l 1
 248.858 -161.916 l 1
 166.942 -219.273 l 1
-231.747 -376.627 m 1
 -182.98 -194.627 l 1
 -147.602 -166.724 l 1
 -316.973 -166.724 l 1
 -325.255 -155.409 l 1
 -253.529 -98.8408 l 1
 52.0352 -98.8408 l 1
 60.3184 -110.155 l 1
 -11.4082 -166.724 l 1
 -107.621 -166.724 l 1
 -151.738 -331.373 l 1
 -223.465 -387.941 l 1
 -231.747 -376.627 l 1
EndSplineSet
EndChar

StartChar: afii57795
Encoding: 1462 1462 70
Width: 0
Flags: HMW
HStem: -386.211 306.211
AnchorPoint: "DiaToBase2" 0 0 mark 0
AnchorPoint: "CustomDia2" 0 0 mark 0
LayerCount: 2
Back
SplineSet
-103.485 -386.211 m 1
 -155.249 -315.5 l 1
 -65.5908 -244.789 l 1
 -13.8271 -315.5 l 1
 -103.485 -386.211 l 1
-164.119 -221.422 m 1
 -215.883 -150.711 l 1
 -126.225 -80 l 1
 -74.4609 -150.711 l 1
 -164.119 -221.422 l 1
45.459 -221.422 m 1
 -6.30469 -150.711 l 1
 83.3535 -80 l 1
 135.117 -150.711 l 1
 45.459 -221.422 l 1
EndSplineSet
Fore
SplineSet
-90.0576 -384.773 m 1
 -147.416 -302.857 l 1
 -65.5 -245.5 l 1
 -8.14258 -327.415 l 1
 -90.0576 -384.773 l 1
-150.558 -219.273 m 1
 -207.916 -137.358 l 1
 -126 -80 l 1
 -68.6426 -161.916 l 1
 -150.558 -219.273 l 1
59.4424 -219.273 m 1
 2.08496 -137.357 l 1
 84 -80 l 1
 141.358 -161.915 l 1
 59.4424 -219.273 l 1
EndSplineSet
EndChar

StartChar: afii57798
Encoding: 1463 1463 71
Width: 0
Flags: HMW
HStem: -166.724 67.8832<-170.155 170.155>
AnchorPoint: "DiaToBase2" 0 0 mark 0
AnchorPoint: "CustomDia2" 0 0 mark 0
LayerCount: 2
Back
SplineSet
95.4814 -166.724 m 1
 -230.083 -166.724 l 1
 -238.365 -155.409 l 1
 -166.64 -98.8408 l 1
 158.925 -98.8408 l 1
 167.208 -110.155 l 1
 95.4814 -166.724 l 1
EndSplineSet
Fore
SplineSet
170.559 -113.924 m 1
 96.835 -165.546 l 1
 -228.729 -165.545 l 1
 -239.053 -150.801 l 1
 -165.329 -99.1787 l 1
 160.233 -99.1787 l 1
 170.559 -113.924 l 1
EndSplineSet
Substitution2: "DIAC_SHORT subtable" patah.short
EndChar

StartChar: afii57797
Encoding: 1464 1464 72
Width: 0
Flags: HMW
HStem: -166.724 67.8832<-140.155 -6.03809 33.9414 140.155>
VStem: -33.9414 67.8828<-291.373 -194.627>
AnchorPoint: "DiaToBase2" 0 0 mark 0
AnchorPoint: "CustomDia2" 0 0 mark 0
LayerCount: 2
Back
SplineSet
-85.2529 -315.79 m 5
 -47.2041 -173.79 l 5
-197.696 -133.42 m 1
 127.868 -133.42 l 1
-124.141 -336.627 m 1
 -86.0918 -194.627 l 1
 -50.7119 -166.724 l 1
 -230.083 -166.724 l 1
 -238.365 -155.409 l 1
 -166.64 -98.8408 l 1
 158.925 -98.8408 l 1
 167.208 -110.155 l 1
 95.4814 -166.724 l 1
 -10.7324 -166.724 l 1
 -44.1318 -291.373 l 1
 -115.857 -347.941 l 1
 -124.141 -336.627 l 1
EndSplineSet
Fore
SplineSet
-229.396 -166.604 m 1
 -239.721 -151.858 l 1
 -165.996 -100.236 l 1
 159.567 -100.236 l 1
 169.893 -114.981 l 1
 96.168 -166.604 l 1
 -8.19554 -166.604 l 1
 -43.2285 -297.352 l 1
 -116.952 -348.974 l 1
 -127.277 -334.229 l 1
 -89.2285 -192.229 l 1
 -52.6317 -166.604 l 1
 -229.396 -166.604 l 1
EndSplineSet
Substitution2: "DIAC_SHORT subtable" qamats.short
EndChar

StartChar: afii57796
Encoding: 1467 1467 73
Width: 0
Flags: HMW
HStem: -396.421 316.421
AnchorPoint: "DiaToBaseU" 0 0 mark 0
AnchorPoint: "CustomDiaU" 0 0 mark 0
LayerCount: 2
Back
SplineSet
-82.7754 -308.922 m 1
 -134.539 -238.211 l 1
 -44.8818 -167.5 l 1
 6.88281 -238.211 l 1
 -82.7754 -308.922 l 1
51.2793 -396.421 m 1
 -0.484375 -325.71 l 1
 89.1729 -254.999 l 1
 140.938 -325.71 l 1
 51.2793 -396.421 l 1
-216.83 -221.422 m 1
 -268.594 -150.711 l 1
 -178.936 -80 l 1
 -127.172 -150.711 l 1
 -216.83 -221.422 l 1
EndSplineSet
Fore
SplineSet
-69.0576 -306.773 m 1
 -126.416 -224.858 l 1
 -44.5 -167.5 l 1
 12.8574 -249.416 l 1
 -69.0576 -306.773 l 1
74.4424 -394.273 m 1
 17.085 -312.357 l 1
 99 -255 l 1
 156.357 -336.916 l 1
 74.4424 -394.273 l 1
-213.558 -219.774 m 1
 -270.916 -137.858 l 1
 -189 -80.5 l 1
 -131.643 -162.416 l 1
 -213.558 -219.774 l 1
EndSplineSet
EndChar

StartChar: afii57636
Encoding: 8362 8362 74
Width: 1134
Flags: HMW
LayerCount: 2
Back
SplineSet
298.34 473 m 21
 171.6 0 l 13
311.109 520.658 m 5
 402 574.514 514.19 601.235 601.89 600 c 4
 785.011 600 836.356 465.6 808.062 360 c 4
 790.753 295.405 766.047 244.173 737.029 200 c 4
535.368 406 m 21
 448.285 81 l 5
 500.471 24 567.579 0 666.611 0 c 4
 872.622 0 1015.92 168 1051.29 300 c 4
 1087.19 434 1076.75 522 1054.18 600 c 4
EndSplineSet
Fore
SplineSet
290.04 506.184 m 1
 300.364 491.438 l 1
 173.624 18.4385 l 1
 99.9004 -33.1836 l 1
 89.5762 -18.4385 l 1
 216.316 454.562 l 1
 290.04 506.184 l 1
229.086 502.22 m 1
 302.81 553.842 l 1
 393.698 607.697 505.892 634.419 593.59 633.184 c 0
 684.47 633.186 742.888 600.081 775.231 553.829 c 0
 785.556 539.084 l 0
 818.386 492.137 824.34 431.633 810.086 378.438 c 0
 792.776 313.844 768.074 262.613 739.053 218.438 c 1
 665.329 166.816 l 1
 655.005 181.562 l 1
 684.026 225.736 708.729 276.967 726.038 341.562 c 0
 739.548 391.977 734.878 449.026 706.411 494.776 c 1
 673.312 536.922 616.147 566.818 530.19 566.817 c 0
 442.492 568.053 330.3 541.331 239.41 487.475 c 1
 229.086 502.22 l 1
527.067 439.184 m 1
 537.393 424.438 l 1
 451.18 102.686 l 1
 501.673 53.9834 566.236 33.1816 658.311 33.1836 c 0
 725.59 33.1846 786.43 51.2988 838.167 79.6455 c 1
 905.932 138.782 951.342 214.687 969.262 281.562 c 0
 1005.17 415.562 994.743 503.574 972.157 581.562 c 1
 1045.88 633.184 l 1
 1056.21 618.438 l 1
 1078.79 540.45 1089.2 452.427 1053.31 318.438 c 0
 1032.42 240.448 973.911 149.94 886.81 88.7666 c 1
 886.39 88.4727 l 0
 812.666 36.8506 l 0
 752.566 -5.22266 678.959 -33.1816 594.911 -33.1836 c 0
 495.876 -33.1855 428.775 -9.18066 376.586 47.8174 c 1
 366.262 62.5615 l 1
 453.344 387.562 l 1
 527.067 439.184 l 1
EndSplineSet
EndChar

StartChar: dong
Encoding: 8363 8363 75
Width: 1000
LayerCount: 2
Back
SplineSet
506 235 m 29
 39 235 l 29
100 365 m 29
 567 365 l 29
674.816 87 m 4
 615.167 33.2285 533.076 0 442.5 0 c 4
 260.341 0 112.5 134.4 112.5 300 c 4
 112.5 465.6 260.341 600 442.5 600 c 4
 528.746 600 607.3 569.871 666.11 520.568 c 4
EndSplineSet
EndChar

StartChar: Euro
Encoding: 8364 8364 76
Width: 839
Flags: HMW
HStem: -42.4268 84.8536<417.735 607.591> 201.059 67.882<131.627 140.087 256.02 553.373> 331.059 67.882<234.145 614.373> 557.573 84.854<416.807 606.983>
VStem: 140.073 84.854<268.941 330.832>
LayerCount: 2
Back
SplineSet
528.583 235 m 29
 61.583 235 l 25
157.417 365 m 25
 624.417 365 l 29
657.743 87 m 0
 583.686 33.2285 492.691 0 402.115 0 c 0
 219.956 0 108.128 134.4 152.5 300 c 0
 196.872 465.6 380.726 600 562.885 600 c 0
 649.131 600 719.611 569.871 765.211 520.568 c 0
EndSplineSet
Fore
SplineSet
719.442 120.183 m 1
 729.767 105.438 l 1
 727.515 103.803 725.246 102.186 722.962 100.589 c 2
 649.238 48.9668 l 2
 576.45 -1.94727 488.237 -33.1816 400.416 -33.1836 c 0
 301.763 -33.1855 223.744 6.23633 179.985 68.6797 c 2
 169.661 83.417 l 1
 169.417 83.7725 l 2
 145.349 118.27 131.717 159.764 130.81 205.504 c 1
 63.4053 205.504 l 1
 54.2285 218.61 l 1
 119.761 264.496 l 1
 136.429 264.496 l 1
 137.594 270.145 138.941 275.834 140.476 281.562 c 0
 145.409 299.976 152.067 318.003 160.257 335.504 c 1
 159.239 335.504 l 1
 150.062 348.61 l 1
 177.417 367.765 l 1
 207.784 418.566 251.061 463.719 301.859 499.285 c 2
 375.583 550.907 l 2
 448.408 601.895 536.689 633.182 624.585 633.184 c 0
 710.833 633.186 781.306 603.051 826.911 553.752 c 1
 837.235 539.007 l 1
 763.512 487.385 l 1
 717.906 536.685 647.435 566.818 561.186 566.816 c 0
 488.133 566.815 414.79 545.19 350.338 508.639 c 1
 311.863 475.758 279.253 436.972 255.634 394.496 c 1
 682.595 394.496 l 1
 691.771 381.39 l 1
 626.239 335.504 l 1
 229.623 335.504 l 1
 227.76 329.855 226.058 324.166 224.523 318.438 c 0
 219.588 300.014 216.58 281.988 215.386 264.496 c 1
 586.761 264.496 l 1
 595.938 251.39 l 1
 530.405 205.504 l 1
 218.453 205.504 l 1
 223.538 177.241 233.817 151.111 248.664 127.84 c 1
 293.029 69.8926 369.112 33.1816 463.814 33.1836 c 0
 548.899 33.1855 633.983 62.2676 706.125 110.858 c 1
 719.442 120.183 l 1
EndSplineSet
Comment: "+AD0A 80 16 35+AAoA-C 90 18 35" 
EndChar

StartChar: uni05EC
Encoding: 1516 1516 77
Width: 1000
Flags: HM
LayerCount: 2
Back
SplineSet
660.404 520 m 0
 602.5 569.594 524.493 600 438.721 600 c 0
 260.203 600 115.321 468.288 115.321 306 c 0
 115.321 143.712 260.203 12 438.721 12 c 0
 526.775 12 606.646 44.0459 664.984 96 c 0
196 800 m 25
 55 0 l 25
EndSplineSet
EndChar

StartChar: lamed.initial
Encoding: 57344 57344 78
Width: 515
GlyphClass: 2
Flags: HMW
HStem: -37.1836 66.3672<159.847 243.767>
VStem: 400.027 84.0479<340.337 722.836> 807.637 84.0488<931.812 978.252>
AnchorPoint: "CustomDiaD" 266 -43 basechar 0
AnchorPoint: "CustomDia1" 190 0 basechar 0
AnchorPoint: "CustomDia2" 210 0 basechar 0
AnchorPoint: "CustomDia3" 210 0 basechar 0
AnchorPoint: "CustomDiaU" 230 0 basechar 0
AnchorPoint: "CustomDiaO" 235 0 basechar 0
LayerCount: 2
Back
SplineSet
819.661 913.373 m 4
 842 1038 732.833 1064.01 659.21 1036.02 c 4
 575 1004 516.447 947.026 479 877 c 4
 424.8 775.646 417.042 644.16 412.051 523.072 c 4
 406.283 383.164 388.422 271.699 341.77 156.553 c 4
 308.834 75.2656 257.502 -4 176.383 -4 c 4
 105.547 -4 74.9893 81.3076 80.0879 152.934 c 20
 89.1953 280.887 149.552 395.358 230.691 464.283 c 4
EndSplineSet
Fore
SplineSet
817.962 880.189 m 1
 807.637 894.935 l 1
 814.054 930.755 809.301 959.156 798.174 979.197 c 1
 765.441 1016.68 704.419 1020.67 657.511 1002.84 c 0
 644.532 997.902 632.127 992.332 620.475 986.344 c 1
 592.094 959.995 569.09 929.225 551.024 895.438 c 0
 496.828 794.087 489.066 662.6 484.075 541.511 c 0
 478.309 401.604 460.442 290.135 413.794 174.992 c 0
 391.706 120.479 361.346 66.875 319.276 37.4775 c 0
 245.553 -14.1445 l 0
 224.89 -28.584 201.402 -37.1836 174.684 -37.1836 c 0
 145.01 -37.1826 122.404 -22.2129 106.527 0.449219 c 0
 96.2031 15.1943 l 0
 95.8359 15.7188 96.2334 15.1504 96.2334 15.1504 c 1
 95.959 15.5439 l 0
 74.1113 46.9736 65.1113 93.0273 68.0635 134.495 c 0
 77.1719 262.449 137.527 376.919 218.667 445.844 c 1
 292.391 497.466 l 1
 302.715 482.722 l 1
 221.573 413.795 161.224 299.328 152.111 171.372 c 0
 149.381 133.021 156.829 90.8828 175.268 59.7988 c 1
 190.541 41.3613 211.687 29.1836 238.083 29.1836 c 0
 249.513 29.1836 260.381 30.7637 270.632 33.6885 c 1
 294.776 62.5166 314.396 100.229 329.746 138.114 c 0
 376.395 253.258 394.261 364.727 400.027 504.634 c 0
 405.019 625.723 412.779 757.209 466.976 858.562 c 0
 491.816 905.016 525.752 945.581 570.877 977.346 c 1
 571.499 977.781 l 0
 645.223 1029.4 l 0
 667.722 1045.14 692.9 1058.55 720.91 1069.2 c 0
 770.435 1088.03 836.026 1082.42 866.881 1038.81 c 0
 867.133 1038.45 l 1
 867.133 1038.45 866.82 1038.9 867.154 1038.42 c 0
 877.479 1023.68 l 0
 892.306 1002.48 898.949 972.358 891.686 931.812 c 1
 817.962 880.189 l 1
EndSplineSet
EndChar

StartChar: nun.small
Encoding: 57345 57345 79
Width: 284
GlyphClass: 2
Flags: HMW
HStem: -356.978 66.3672<-452.439 -256.414>
VStem: -607.53 84.0479<-241.839 -169.512>
AnchorPoint: "CustomDia1" -8.00195 -220 basechar 0
AnchorPoint: "CustomDia2" 52.3311 -255.167 basechar 0
AnchorPoint: "CustomDia3" 75.749 -159.452 basechar 0
AnchorPoint: "CustomDiaU" -0.501953 -103 basechar 0
LayerCount: 2
Back
SplineSet
256.387 604.16 m 13
 128 120 l 6
 108.784 47.5371 84.7002 -24.9717 49.4121 -85.5371 c 4
 1.58203 -167.628 -63.8721 -230.811 -138.374 -270.439 c 4
 -203.623 -305.147 -277.113 -323.804 -348.612 -323.794 c 4
 -427.938 -323.794 -555.508 -296.93 -555.508 -210.773 c 4
 -555.508 -190.328 -548.889 -165.848 -535.205 -150.34 c 4
EndSplineSet
Fore
SplineSet
278.088 637.344 m 1
 288.411 622.599 l 1
 160.025 138.438 l 0
 140.808 65.9746 116.726 -6.5332 81.4385 -67.0986 c 0
 43.5977 -132.042 -5.27051 -185.149 -60.9238 -224.126 c 0
 -134.647 -275.747 l 0
 -135.353 -276.241 l 1
 -150.247 -286.615 -164.748 -295.472 -180.072 -303.623 c 0
 -245.323 -338.332 -318.809 -356.984 -390.311 -356.978 c 0
 -453.582 -356.979 -547.533 -339.884 -582.984 -289.255 c 0
 -593.309 -274.511 l 0
 -602.306 -261.662 -607.529 -246.65 -607.53 -229.211 c 0
 -607.532 -208.768 -600.912 -184.286 -587.229 -168.778 c 1
 -513.504 -117.156 l 1
 -503.18 -131.901 l 1
 -516.863 -147.409 -523.483 -171.891 -523.482 -192.334 c 0
 -523.481 -206.539 -520.178 -218.725 -513.952 -230.104 c 1
 -475.325 -274.794 -386.932 -290.612 -326.911 -290.61 c 0
 -255.415 -290.622 -181.921 -271.963 -116.673 -237.256 c 0
 -114.146 -235.911 -111.811 -234.641 -109.182 -233.175 c 1
 -68.7041 -198.331 -32.1865 -154.735 -2.61133 -103.976 c 0
 32.6777 -43.4102 56.7598 29.0977 75.9766 101.562 c 0
 204.364 585.722 l 1
 278.088 637.344 l 1
EndSplineSet
LCarets2: 1 0 
EndChar

StartChar: nun.short
Encoding: 57346 57346 80
Width: 284
GlyphClass: 2
Flags: HMW
HStem: -392.994 73.74<-348.89 -214.788>
AnchorPoint: "CustomDia1" -8.00195 -220 basechar 0
AnchorPoint: "CustomDia2" 52.3311 -255.167 basechar 0
AnchorPoint: "CustomDia3" 75.749 -159.452 basechar 0
AnchorPoint: "CustomDiaU" -0.501953 -103 basechar 0
LayerCount: 2
Back
SplineSet
236.113 604.16 m 21
 98.1152 85.8828 l 6
 79.0371 14.2305 56.2871 -57.4785 25.627 -117.37 c 4
 -15.9316 -198.55 -69.875 -261.029 -129.353 -300.219 c 4
 -181.443 -334.541 -238.897 -352.99 -293.952 -352.99 c 4
 -337.748 -352.991 -413.453 -337.873 -449.887 -285.878 c 4
 -450.264 -285.34 -449.873 -285.896 -449.873 -285.896 c 5
 -450.156 -285.491 l 6
 -474.406 -250.587 -479.156 -184.772 -451.242 -147.343 c 4
EndSplineSet
Fore
SplineSet
277.812 637.343 m 1
 288.137 622.599 l 1
 150.14 104.321 l 0
 131.062 32.6689 108.312 -39.0391 77.6514 -98.9316 c 0
 38.0117 -176.361 -12.8936 -236.779 -69.123 -276.201 c 0
 -142.847 -327.823 l 0
 -143.46 -328.252 l 1
 -146.382 -330.288 -148.449 -331.688 -151.053 -333.402 c 0
 -203.144 -367.725 -260.596 -386.173 -315.652 -386.174 c 0
 -359.447 -386.175 -435.154 -371.058 -471.586 -319.061 c 0
 -482.073 -304.085 l 1
 -481.254 -303.511 -482.065 -304.094 -482.18 -303.93 c 0
 -506.431 -269.025 -511.18 -203.211 -483.266 -165.781 c 1
 -409.543 -114.159 l 1
 -399.219 -128.904 l 1
 -425.461 -164.094 -422.891 -224.038 -402.365 -260.305 c 1
 -364.485 -305.815 -293.652 -319.808 -252.253 -319.808 c 0
 -207.627 -319.807 -161.657 -307.793 -117.684 -284.764 c 1
 -76.1807 -247.417 -37.5977 -196.756 -6.39648 -135.809 c 0
 24.2627 -75.917 47.0127 -4.20801 66.0918 67.4443 c 0
 204.089 585.722 l 1
 277.812 637.343 l 1
EndSplineSet
EndChar

StartChar: nun.short2
Encoding: 57347 57347 81
Width: 284
GlyphClass: 2
Flags: HMW
HStem: -313.455 66.3662<-308.833 -172.478>
AnchorPoint: "CustomDia1" -8.00195 -220 basechar 0
AnchorPoint: "CustomDia2" 52.3311 -255.167 basechar 0
AnchorPoint: "CustomDia3" 75.749 -159.452 basechar 0
AnchorPoint: "CustomDiaU" -0.501953 -103 basechar 0
LayerCount: 2
Back
SplineSet
-409.757 -97.2744 m 1
 -420.19 -110.874 -425.957 -132.345 -426.886 -150.273 c 0
 -432 -249 -322.584 -280.275 -258.885 -280.272 c 0
 -207.819 -280.272 -154.698 -263.793 -106.697 -233.134 c 0
 -51.8896 -198.129 -2.42871 -142.318 35.3721 -69.8037 c 0
 63.2607 -16.3047 84.1963 48.0771 101.114 112.112 c 2
 231.114 604.16 l 9
EndSplineSet
Fore
SplineSet
-363.057 -64.0908 m 1
 -352.732 -78.8359 l 1
 -363.167 -92.4355 -368.933 -113.906 -369.862 -131.835 c 0
 -371.061 -154.951 -365.896 -174.455 -356.656 -190.586 c 1
 -321.88 -232.162 -256.085 -247.09 -212.185 -247.089 c 0
 -170.282 -247.088 -126.215 -235.521 -86.9062 -215.388 c 1
 -50.5205 -181.965 -18.3096 -139.381 8.34766 -88.2422 c 0
 36.2363 -34.7432 57.1719 29.6387 74.0898 93.6738 c 0
 204.09 585.722 l 1
 277.812 637.344 l 1
 288.139 622.599 l 1
 158.139 130.551 l 0
 141.221 66.5156 120.284 2.13379 92.3965 -51.3652 c 0
 57.2402 -118.807 11.9961 -171.802 -38.2529 -207.046 c 0
 -111.977 -258.667 l 0
 -115.756 -261.318 -119.562 -263.868 -123.396 -266.317 c 0
 -171.399 -296.977 -224.517 -313.454 -275.584 -313.455 c 0
 -321.938 -313.456 -392.504 -296.896 -425.524 -249.83 c 0
 -435.849 -235.086 l 0
 -448.203 -217.475 -455.303 -195.595 -453.91 -168.712 c 0
 -452.98 -150.783 -447.215 -129.313 -436.78 -115.713 c 1
 -363.057 -64.0908 l 1
EndSplineSet
EndChar

StartChar: nun.tiny
Encoding: 57348 57348 82
Width: 474
GlyphClass: 2
Flags: HMW
HStem: -47.4531 74.7431<74.8645 197.206>
AnchorPoint: "CustomDiaO" 312 0 basechar 0
AnchorPoint: "CustomDiaD" 342 0 basechar 0
AnchorPoint: "CustomDiaU" 150 0 basechar 0
AnchorPoint: "CustomDia3" 140 0 basechar 0
AnchorPoint: "CustomDia2" 130 0 basechar 0
AnchorPoint: "CustomDia1" 150 0 basechar 0
LayerCount: 2
Back
SplineSet
499.881 637.344 m 1
 510.205 622.599 l 1
 410.778 246.332 l 0
 400.521 207.512 387.524 172.438 368.023 136.256 c 0
 347.876 98.8711 320.962 69.1396 290.843 48.0146 c 0
 217.119 -3.60742 l 0
 216.444 -4.0791 l 1
 210.696 -8.06836 205.723 -11.207 200.182 -14.3926 c 0
 167.848 -32.9805 131.765 -43.2656 96.6562 -43.2656 c 0
 47.3604 -43.5596 13.7832 -33.1289 -14.5703 -9.81543 c 0
 -19.1914 -6.0166 -23.168 -1.67773 -26.5098 3.11035 c 0
 -36.834 17.8545 l 0
 -48.3936 34.4141 -52.3662 56.3467 -49.2217 79.9355 c 1
 24.502 131.558 l 1
 34.8262 116.812 l 1
 32.1416 96.6758 34.5684 78.0029 42.5752 62.4316 c 1
 44.2578 60.624 46.6416 58.3496 48.8291 56.5508 c 0
 77.1826 33.2383 110.76 22.8076 160.056 23.1006 c 0
 187.287 23.1016 214.753 29.1572 241.378 40.7705 c 1
 256.748 56.6826 271.896 76.9639 283.977 99.3789 c 0
 303.476 135.562 316.473 170.635 326.73 209.455 c 0
 426.157 585.722 l 1
 499.881 637.344 l 1
388.181 604.16 m 9
 288.754 227.894 l 2
 278.496 189.073 265.5 154 246 117.817 c 0
 222.143 73.55 188.8 40.0146 151.882 18.791 c 0
 119.548 0.203125 83.4639 -10.082 48.3564 -10.082 c 0
 -0.94043 -10.376 -34.5166 0.0546875 -62.8711 23.3672 c 0
 -83.4766 40.3096 -91.252 67.9658 -87.1973 98.374 c 0
EndSplineSet
Fore
SplineSet
499.881 637.344 m 1
 510.205 622.599 l 1
 410.778 246.332 l 0
 400.521 207.512 387.524 172.438 368.023 136.256 c 0
 347.876 98.8711 320.962 69.1396 290.843 48.0146 c 0
 217.119 -3.60742 l 0
 216.444 -4.0791 l 1
 210.696 -8.06836 205.723 -11.207 200.182 -14.3926 c 0
 167.848 -32.9805 131.765 -43.2656 96.6562 -43.2656 c 0
 20 -43.2656 -43.5 -6 -49.2217 79.9355 c 1
 24.502 131.558 l 1
 34.8262 116.812 l 1
 35 40.5 99.5 23.1006 160.056 23.1006 c 0
 187.287 23.1006 214.753 29.1572 241.378 40.7705 c 1
 256.748 56.6826 271.896 76.9639 283.977 99.3789 c 0
 303.476 135.562 316.473 170.635 326.73 209.455 c 0
 426.157 585.722 l 1
 499.881 637.344 l 1
EndSplineSet
EndChar

StartChar: uni05ED
Encoding: 1517 1517 83
Width: 1000
Flags: HM
LayerCount: 2
Back
SplineSet
16 -400 m 21
 133.25 45.7148 l 5
 174.401 24.1872 223.442 12 277.745 12 c 4
 456.262 12 624.368 143.712 652.984 306 c 4
 681.6 468.288 559.942 600 381.425 600 c 4
 295.652 600 212.284 569.594 145.636 520 c 4
EndSplineSet
EndChar

StartChar: nun.tiny2
Encoding: 57349 57349 84
Width: 444
Flags: HMW
HStem: -188.874 74.7431<-48.002 90.6478>
AnchorPoint: "CustomDiaD" 282 0 basechar 0
AnchorPoint: "CustomDiaO" 252 0 basechar 0
AnchorPoint: "CustomDia1" 38 -141 basechar 0
AnchorPoint: "CustomDia2" 18 -141 basechar 0
AnchorPoint: "CustomDia3" 28 -141 basechar 0
AnchorPoint: "CustomDiaU" 38 -141 basechar 0
LayerCount: 2
Back
SplineSet
387.141 604.16 m 13
 255.342 98.374 l 6
 244.734 57.667 229.17 17.0283 209.899 -16.9551 c 4
 183.778 -63.0176 148.399 -98.4697 108.37 -120.706 c 4
 73.3115 -140.181 34.1318 -151.467 -4.32129 -151.467 c 4
 -60.2871 -151.467 -97.2021 -140.858 -128.703 -116.38 c 4
 -151.597 -98.5908 -160.52 -69.5518 -156.467 -37.623 c 4
EndSplineSet
Fore
SplineSet
438.84 637.344 m 1
 449.165 622.599 l 1
 317.366 116.812 l 0
 306.757 76.1045 291.194 35.4668 271.924 1.4834 c 0
 250.42 -36.4385 222.638 -67.1709 191.153 -89.2559 c 0
 117.43 -140.878 l 0
 116.74 -141.359 l 1
 109.771 -146.201 103.527 -150.08 96.6699 -153.89 c 0
 61.6123 -173.363 22.4316 -184.65 -16.0215 -184.65 c 0
 -71.9863 -184.65 -108.902 -174.042 -140.402 -149.563 c 0
 -146.111 -145.127 -150.952 -139.991 -154.939 -134.285 c 0
 -165.264 -119.54 l 0
 -177.265 -102.366 -181.533 -80.0283 -178.491 -56.0615 c 1
 -104.768 -4.43945 l 1
 -94.4434 -19.1846 l 1
 -97.0557 -39.7686 -94.3613 -58.8682 -85.8936 -74.9834 c 1
 -83.3682 -77.749 -80.2227 -80.6953 -77.0029 -83.1963 c 0
 -45.5029 -107.675 -8.58691 -118.283 47.3779 -118.283 c 0
 79.2305 -118.283 111.213 -110.685 141.768 -96.7705 c 1
 158.185 -80.1875 174.621 -58.7676 187.876 -35.3936 c 0
 207.146 -1.41016 222.711 39.2285 233.318 79.9355 c 0
 365.117 585.722 l 1
 438.84 637.344 l 1
EndSplineSet
EndChar

StartChar: vav.short
Encoding: 57350 57350 85
Width: 291
GlyphClass: 2
Flags: HMW
VStem: 42.9277 244.197
AnchorPoint: "CustomDia1" 75 0 basechar 0
AnchorPoint: "CustomDia2" 80 0 basechar 0
AnchorPoint: "CustomDia3" 75 0 basechar 0
AnchorPoint: "CustomDiaU" 70 0 basechar 0
LayerCount: 2
Back
SplineSet
235.101 604.16 m 1
 74.9521 -4 l 9
EndSplineSet
Fore
SplineSet
276.801 637.344 m 1
 287.125 622.599 l 1
 126.976 14.4385 l 1
 53.252 -37.1836 l 1
 42.9277 -22.4385 l 1
 203.077 585.722 l 1
 276.801 637.344 l 1
EndSplineSet
EndChar

StartChar: lamed.short
Encoding: 57351 57351 86
Width: 515
Flags: HMW
HStem: -37.1836 66.3672<159.847 243.767>
VStem: 400.027 84.048<340.337 685.425>
AnchorPoint: "CustomDiaD" 266 -43 basechar 0
AnchorPoint: "CustomDiaO" 235 0 basechar 0
AnchorPoint: "CustomDiaU" 230 0 basechar 0
AnchorPoint: "CustomDia3" 210 0 basechar 0
AnchorPoint: "CustomDia2" 210 0 basechar 0
AnchorPoint: "CustomDia1" 190 0 basechar 0
LayerCount: 2
Back
SplineSet
956.299 982.911 m 0
 855.662 1056.28 715.627 1051.02 613.502 985.773 c 0
 459.01 887.085 419.779 710.544 412.051 523.072 c 0
 406.283 383.164 388.422 271.699 341.77 156.553 c 0
 308.834 75.2656 257.502 -4 176.383 -4 c 0
 105.547 -4 74.9893 81.3076 80.0879 152.934 c 16
 89.1953 280.887 149.552 395.358 230.691 464.283 c 0
EndSplineSet
Fore
SplineSet
1028.32 1001.35 m 1
 954.6 949.729 l 1
 861.559 1017.55 734.693 1017.89 635.987 966.562 c 1
 522.085 863.81 490.897 707.016 484.075 541.512 c 0
 478.309 401.604 460.441 290.136 413.793 174.991 c 0
 391.705 120.478 361.346 66.875 319.275 37.4775 c 0
 245.553 -14.1445 l 0
 224.89 -28.584 201.402 -37.1836 174.684 -37.1836 c 0
 145.01 -37.1826 122.404 -22.2129 106.527 0.449219 c 0
 96.2031 15.1943 l 0
 95.8359 15.7188 96.2334 15.1504 96.2334 15.1504 c 1
 95.959 15.5439 l 0
 74.1113 46.9736 65.1123 93.0273 68.0635 134.495 c 0
 77.1719 262.449 137.527 376.919 218.668 445.845 c 1
 292.392 497.467 l 1
 302.715 482.722 l 1
 221.573 413.795 161.224 299.328 152.112 171.372 c 0
 149.381 133.021 156.829 90.8828 175.268 59.7988 c 1
 190.541 41.3613 211.687 29.1836 238.083 29.1836 c 0
 249.513 29.1836 260.381 30.7637 270.632 33.6885 c 1
 294.775 62.5166 314.395 100.229 329.745 138.114 c 0
 376.394 253.259 394.261 364.727 400.027 504.634 c 0
 407.521 686.427 444.639 857.934 587.748 958.15 c 0
 661.472 1009.77 l 0
 665.944 1012.9 670.521 1015.97 675.201 1018.96 c 0
 777.33 1084.2 917.356 1089.45 1018 1016.09 c 1
 1028.32 1001.35 l 1
EndSplineSet
EndChar

StartChar: lamed.slanted
Encoding: 57352 57352 87
Width: 515
Flags: HMW
HStem: -37.1836 66.3672<159.847 243.767>
AnchorPoint: "CustomDiaD" 266 -43 basechar 0
AnchorPoint: "CustomDiaO" 235 0 basechar 0
AnchorPoint: "CustomDiaU" 230 0 basechar 0
AnchorPoint: "CustomDia3" 210 0 basechar 0
AnchorPoint: "CustomDia2" 210 0 basechar 0
AnchorPoint: "CustomDia1" 190 0 basechar 0
LayerCount: 2
Back
SplineSet
1249.21 888.373 m 4
 1153.96 1062.31 943.877 1090.38 766.655 1011.02 c 28
 556.345 916.841 478 727.819 433.458 523.072 c 4
 403.02 383.164 388.422 271.699 341.77 156.553 c 4
 308.834 75.2656 257.502 -4 176.383 -4 c 4
 105.547 -4 74.9893 81.3076 80.0879 152.934 c 20
 89.1953 280.887 149.552 395.358 230.691 464.283 c 4
EndSplineSet
Fore
SplineSet
1247.51 855.189 m 1
 1237.18 869.935 l 1
 1232.74 878.064 1227.79 886.251 1223.01 893.502 c 1
 1119.49 1032.85 928.239 1050.96 764.956 977.836 c 0
 748.078 970.279 731.19 961.621 716.771 953.342 c 1
 595.018 850.155 540.089 700.63 505.482 541.511 c 0
 475.055 401.61 460.442 290.135 413.794 174.992 c 0
 391.706 120.479 361.346 66.875 319.276 37.4775 c 0
 245.553 -14.1445 l 0
 224.89 -28.584 201.402 -37.1836 174.684 -37.1836 c 0
 145.01 -37.1826 122.404 -22.2129 106.527 0.449219 c 0
 96.2031 15.1943 l 0
 95.8359 15.7188 96.2334 15.1504 96.2334 15.1504 c 1
 95.959 15.5439 l 0
 74.1113 46.9736 65.1113 93.0273 68.0635 134.495 c 0
 77.1719 262.449 137.527 376.919 218.667 445.844 c 1
 292.391 497.466 l 1
 302.715 482.722 l 1
 221.573 413.795 161.224 299.328 152.111 171.372 c 0
 149.381 133.021 156.829 90.8828 175.268 59.7988 c 1
 190.541 41.3613 211.687 29.1836 238.083 29.1836 c 0
 249.513 29.1836 260.381 30.7637 270.632 33.6885 c 1
 294.776 62.5166 314.396 100.229 329.746 138.114 c 0
 376.394 253.258 391.007 364.732 421.434 504.634 c 0
 459.196 678.262 521.159 840.491 667.705 943.462 c 1
 668.204 943.811 l 0
 741.928 995.433 l 0
 767.962 1013.66 796.662 1030.01 828.354 1044.2 c 0
 994.4 1118.56 1189.4 1098.63 1291.61 952.66 c 0
 1301.93 937.916 l 0
 1308.79 928.117 1315.24 917.755 1321.23 906.812 c 1
 1247.51 855.189 l 1
EndSplineSet
EndChar

StartChar: uni05EE
Encoding: 1518 1518 88
Width: 1000
Flags: HM
LayerCount: 2
Back
SplineSet
264.563 604.16 m 1
 607.948 -4.88184 l 1
643.649 32.4893 m 1
 663.8 253.201 734.874 541.316 888.94 700.452 c 1
203.769 553.48 m 1
 196.771 360.616 140.904 75.0605 -6.06836 -100.292 c 1
EndSplineSet
EndChar

StartChar: uni05EF
Encoding: 1519 1519 89
Width: 1000
Flags: HM
LayerCount: 2
Back
SplineSet
59.8164 384.716 m 0
 97.835 478.964 235.843 604.16 430.211 604.16 c 0
 611.155 604.16 734.468 470.656 705.463 306.161 c 0
 676.458 141.666 506.065 8.16309 325.121 8.16309 c 0
270.622 352.787 m 17
 72.4824 99.3867 181.683 -107.387 -19.7666 -400.317 c 9
EndSplineSet
EndChar

StartChar: tav.longtail
Encoding: 57353 57353 90
Width: 927
Flags: HMW
HStem: 570.977 66.3672<476.775 705.451>
VStem: 312.946 84.0488<387.128 471.86> 861.225 84.0479<234.61 430.283>
AnchorPoint: "CustomDia1" 425 0 basechar 0
AnchorPoint: "CustomDia2" 435 0 basechar 0
AnchorPoint: "CustomDia3" 405 0 basechar 0
AnchorPoint: "CustomDiaU" 445 0 basechar 0
AnchorPoint: "CustomDiaO" 235 0 basechar 0
LayerCount: 2
Back
SplineSet
356.67 523.482 m 1
 366.995 508.737 l 1
 355.025 424.439 336.21 335.023 310.304 237.715 c 0
 288.343 155.228 252.598 93.8643 201.942 58.3662 c 0
 128.219 6.74414 l 0
 127.759 6.42285 l 1
 121.799 2.28125 116.227 -1.15527 110.162 -4.46191 c 0
 48.3027 -38.1826 -28.251 -34.4521 -65.001 -3.95508 c 0
 -71.1191 1.12305 -76.5645 7.13965 -81.2822 13.8691 c 0
 -91.6074 28.6143 l 0
 -91.9502 29.1035 -91.5957 28.5986 -91.5957 28.5986 c 1
 -91.8525 28.9658 l 0
 -112.949 59.332 -119.329 104.029 -106.021 142.562 c 0
 -96.5234 170.062 -78.0244 188.561 -57.5244 203.062 c 1
 16.1992 254.683 l 1
 26.5234 239.938 l 1
 6.02344 225.438 -12.4766 206.938 -21.9727 179.439 c 0
 -34.2598 143.863 -29.8564 103.376 -12.4902 73.2354 c 1
 -9.25 69.416 -5.50879 65.6543 -1.60156 62.4121 c 0
 31.0195 35.3418 94.9092 29.335 152.264 51.9551 c 1
 184.665 87.6279 209.61 138.314 226.256 200.838 c 0
 252.161 298.146 270.978 387.562 282.946 471.86 c 1
 356.67 523.482 l 1
696.126 -37.1836 m 1
 685.802 -22.4385 l 1
 732.727 38.5625 774.31 102.562 802.225 176.062 c 0
 818.487 218.884 831.228 270.564 831.225 326.062 c 0
 831.221 374.738 818.002 424.284 790.944 466.188 c 1
 744.269 527.715 664.929 570.979 547.935 570.977 c 0
 444.835 570.975 334.183 547.202 238.194 487.52 c 1
 193.809 456.439 l 1
 183.484 471.185 l 1
 190.562 476.74 197.743 482.064 205.019 487.164 c 0
 278.742 538.786 l 0
 380.316 609.983 500.241 637.341 611.334 637.344 c 0
 732.823 637.346 813.997 590.471 859.626 525.306 c 0
 869.95 510.561 l 0
 900.646 466.723 915.269 414.615 915.272 362.938 c 0
 915.276 307.441 902.535 255.761 886.272 212.938 c 0
 858.357 139.438 816.769 75.4375 769.85 14.4385 c 1
 696.126 -37.1836 l 1
324.971 490.299 m 1
 313 406 294.186 316.585 268.279 219.276 c 0
 243.796 127.31 202.177 61.6016 141.861 28.7217 c 0
 80.002 -4.99902 3.44922 -1.26855 -33.3018 29.2285 c 0
 -67.0303 57.2236 -80.3164 113.748 -63.9971 161.001 c 0
 -54.5 188.5 -36 207 -15.5 221.5 c 0
727.826 -4 m 0
 774.748 57 816.334 121 844.248 194.5 c 0
 860.511 237.322 873.248 289 873.248 344.5 c 0
 873.248 473 782.848 604.16 579.634 604.16 c 0
 460.587 604.16 331.388 572.738 225.508 489.623 c 0
EndSplineSet
Fore
SplineSet
356.67 523.482 m 1
 366.995 508.737 l 1
 355.025 424.439 336.21 335.023 310.304 237.715 c 0
 288.343 155.228 252.598 93.8643 201.942 58.3662 c 0
 128.219 6.74414 l 0
 127.759 6.42285 l 1
 121.799 2.28125 116.227 -1.15527 110.162 -4.46191 c 0
 35.9625 -44.9095 -33 -36.5 -82.2822 12.8691 c 0
 -110.564 41.201 -126 93.5 -106.021 142.562 c 0
 -95.0483 169.507 -78.0244 188.561 -57.5244 203.062 c 1
 16.1992 254.683 l 1
 26.5234 239.938 l 1
 6.02344 225.438 -11.5771 205.307 -24 179 c 0
 -41 143 -35.3716 99.5281 -11.4902 74.2354 c 0
 26.5 34 87.1478 26.274 152.264 51.9551 c 1
 184.665 87.6279 209.61 138.314 226.256 200.838 c 0
 252.161 298.146 270.978 387.562 282.946 471.86 c 1
 356.67 523.482 l 1
696.126 -37.1836 m 1
 685.802 -22.4385 l 1
 732.727 38.5625 774.31 102.562 802.225 176.062 c 0
 818.487 218.884 831.228 270.564 831.225 326.062 c 0
 831.221 374.738 818.002 424.284 790.944 466.188 c 1
 744.269 527.715 664.929 570.979 547.935 570.977 c 0
 444.835 570.975 334.183 547.202 238.194 487.52 c 1
 193.809 456.439 l 1
 183.484 471.185 l 1
 190.562 476.74 197.743 482.064 205.019 487.164 c 0
 278.742 538.786 l 0
 380.316 609.983 500.241 637.341 611.334 637.344 c 0
 732.823 637.346 813.997 590.471 859.626 525.306 c 0
 869.95 510.561 l 0
 900.646 466.723 915.269 414.615 915.272 362.938 c 0
 915.276 307.441 902.535 255.761 886.272 212.938 c 0
 858.357 139.438 816.769 75.4375 769.85 14.4385 c 1
 696.126 -37.1836 l 1
EndSplineSet
EndChar

StartChar: lamed.median
Encoding: 57354 57354 91
Width: 515
Flags: HMW
HStem: -37.1836 66.3672<160.038 243.767>
VStem: 400.027 84.048<340.337 686.058>
AnchorPoint: "CustomDiaD" 266 -43 basechar 0
AnchorPoint: "CustomDiaO" 235 0 basechar 0
AnchorPoint: "CustomDiaU" 230 0 basechar 0
AnchorPoint: "CustomDia3" 210 0 basechar 0
AnchorPoint: "CustomDia2" 210 0 basechar 0
AnchorPoint: "CustomDia1" 190 0 basechar 0
LayerCount: 2
Back
SplineSet
1163.39 888.373 m 0
 1037.47 1062.31 831.598 1094.83 659.21 1011.02 c 24
 466.795 917.468 420.491 727.819 412.051 523.072 c 0
 406.283 383.164 388.422 271.699 341.77 156.553 c 0
 308.834 75.2656 257.502 -4 176.383 -4 c 0
 105.547 -4 75.2256 84.6309 80.0879 152.934 c 16
 89.1953 280.887 149.552 395.358 230.691 464.283 c 0
EndSplineSet
Fore
SplineSet
1235.42 906.812 m 1
 1161.69 855.189 l 1
 1035.75 1029.11 829.913 1061.66 657.511 977.837 c 0
 651.094 974.717 644.674 971.395 638.718 968.146 c 1
 523.012 865.233 490.953 708.373 484.075 541.512 c 0
 478.309 401.604 460.441 290.136 413.793 174.991 c 0
 391.705 120.478 361.346 66.875 319.275 37.4775 c 0
 245.553 -14.1445 l 0
 224.89 -28.584 201.402 -37.1836 174.684 -37.1836 c 0
 145.391 -37.1826 123.026 -22.0264 107.212 0.582031 c 0
 96.8877 15.3262 l 0
 74.4619 47.3887 65.2119 94.4375 68.0635 134.495 c 0
 77.1719 262.449 137.527 376.919 218.668 445.845 c 1
 292.392 497.467 l 1
 302.715 482.722 l 1
 221.573 413.795 161.224 299.328 152.112 171.372 c 0
 149.479 134.395 157.158 91.4648 175.995 59.8574 c 1
 191.173 41.4727 212.068 29.1836 238.083 29.1836 c 0
 249.513 29.1836 260.381 30.7637 270.632 33.6885 c 1
 294.775 62.5166 314.395 100.229 329.745 138.114 c 0
 376.394 253.259 394.261 364.727 400.027 504.634 c 0
 407.542 686.948 444.936 857.182 589.223 958.592 c 1
 589.634 958.88 l 0
 663.357 1010.5 l 0
 680.918 1022.8 700.055 1034.06 720.91 1044.2 c 0
 893.312 1128.03 1099.15 1095.48 1225.09 921.557 c 0
 1235.42 906.812 l 1
EndSplineSet
EndChar

StartChar: endash
Encoding: 8211 8211 96
Width: 761
Flags: W
HStem: 265.816 66.3672<131.399 630.276>
LayerCount: 2
Back
SplineSet
687.711 337.427 m 1
 701.854 323.284 l 1
 641.143 262.573 l 1
 74.1426 262.573 l 1
 60 276.716 l 1
 120.711 337.427 l 1
 687.711 337.427 l 1
EndSplineSet
Fore
SplineSet
704 317.438 m 1
 630.276 265.816 l 1
 68 265.816 l 1
 57.6758 280.562 l 1
 131.399 332.184 l 1
 693.676 332.184 l 1
 704 317.438 l 1
EndSplineSet
EndChar

StartChar: emdash
Encoding: 8212 8212 97
Width: 1061
Flags: W
HStem: 265.816 66.3672<131.399 930.276>
LayerCount: 2
Fore
SplineSet
1004 317.438 m 5
 930.276 265.816 l 5
 68 265.816 l 1
 57.6758 280.562 l 1
 131.399 332.184 l 1
 993.676 332.184 l 5
 1004 317.438 l 5
EndSplineSet
EndChar

StartChar: afii00208
Encoding: 8213 8213 98
Width: 1361
Flags: W
HStem: 265.816 66.3672<131.399 1230.28>
LayerCount: 2
Fore
SplineSet
1304 317.438 m 5
 1230.28 265.816 l 5
 68 265.816 l 1
 57.6758 280.562 l 1
 131.399 332.184 l 1
 1293.68 332.184 l 5
 1304 317.438 l 5
EndSplineSet
EndChar

StartChar: quotesinglbase
Encoding: 8218 8218 101
Width: 214
Flags: HW
LayerCount: 2
Back
SplineSet
-10.6006 -234.489 m 5
 -20.9258 -219.744 l 5
 20.0771 -182.825 52.8047 -136.019 67.7432 -80.2676 c 4
 80.7686 -31.6543 76.707 13.2236 59.2471 49.333 c 5
 139.524 105.543 l 5
 149.849 90.7979 l 5
 167.31 54.6904 171.369 9.81055 158.345 -38.8018 c 4
 143.407 -94.5518 110.678 -141.359 69.6758 -178.278 c 5
 -10.6006 -234.489 l 5
EndSplineSet
Fore
Refer: 25 39 S 1 0 0 1 -127 -700 2
EndChar

StartChar: quotedblbase
Encoding: 8222 8222 104
Width: 423
Flags: HW
LayerCount: 2
Back
SplineSet
-10.6006 -234.489 m 5
 -20.9258 -219.744 l 5
 20.0771 -182.825 52.8047 -136.019 67.7432 -80.2676 c 4
 80.7686 -31.6543 76.707 13.2236 59.2471 49.333 c 5
 139.524 105.543 l 5
 149.849 90.7979 l 5
 167.31 54.6904 171.369 9.81055 158.345 -38.8018 c 4
 143.407 -94.5518 110.678 -141.359 69.6758 -178.278 c 5
 -10.6006 -234.489 l 5
EndSplineSet
Fore
Refer: 2 34 S 1 0 0 1 -127 -700 2
EndChar

StartChar: minus
Encoding: 8722 8722 106
Width: 820
Flags: HW
LayerCount: 2
Back
SplineSet
757.909 228.438 m 1
 684.186 176.816 l 1
 104.186 176.816 l 1
 93.8613 191.562 l 1
 167.585 243.184 l 1
 747.585 243.184 l 1
 757.909 228.438 l 1
806.139 408.438 m 1
 732.415 356.816 l 1
 152.415 356.816 l 1
 142.091 371.562 l 1
 215.814 423.184 l 1
 795.814 423.184 l 1
 806.139 408.438 l 1
EndSplineSet
Fore
SplineSet
784.31 327.438 m 1
 710.586 275.816 l 1
 130.586 275.816 l 1
 120.262 290.562 l 1
 193.985 342.184 l 1
 773.985 342.184 l 1
 784.31 327.438 l 1
EndSplineSet
EndChar

StartChar: uniFB29
Encoding: 64297 64297 107
Width: 820
Flags: HW
LayerCount: 2
Fore
SplineSet
127.021 252.504 m 1
 117.845 265.61 l 1
 183.377 311.496 l 1
 415.996 311.496 l 1
 474.963 531.562 l 1
 548.687 583.184 l 1
 559.012 568.438 l 1
 490.164 311.496 l 1
 763.378 311.496 l 1
 772.554 298.39 l 1
 707.021 252.504 l 1
 513.688 252.504 320.355 252.504 127.021 252.504 c 1
EndSplineSet
EndChar

StartChar: afii57645
Encoding: 1470 1470 108
Width: 573
Flags: W
HStem: 526.817 66.3662<214.58 489.42>
LayerCount: 2
Back
SplineSet
122.88 600 m 21
 236 584.32 341.279 584.32 461.12 600 c 13
EndSplineSet
Fore
SplineSet
140.856 541.562 m 1
 214.58 593.184 l 1
 327.699 577.503 432.979 577.503 552.819 593.184 c 1
 563.144 578.438 l 1
 489.42 526.816 l 1
 369.579 511.137 264.3 511.137 151.181 526.817 c 1
 140.856 541.562 l 1
EndSplineSet
EndChar

StartChar: afii57806
Encoding: 1465 1465 109
Width: 0
Flags: HW
HStem: 614.999 141.422
VStem: -70.7119 141.422
AnchorPoint: "DiaToBaseO" 0 0 mark 0
AnchorPoint: "CustomDiaO" 0 0 mark 0
LayerCount: 2
Fore
SplineSet
-12.2803 616.073 m 1
 -69.6377 697.989 l 1
 12.2783 755.347 l 1
 69.6357 673.432 l 1
 -12.2803 616.073 l 1
EndSplineSet
EndChar

StartChar: uni05BA
Encoding: 1466 1466 110
Width: 0
Flags: HW
HStem: -196.422 141.422
VStem: -70.7109 141.422
LayerCount: 2
Fore
SplineSet
-12.2803 616.073 m 5
 -69.6377 697.989 l 5
 12.2783 755.347 l 5
 69.6357 673.432 l 5
 -12.2803 616.073 l 5
EndSplineSet
EndChar

StartChar: afii57807
Encoding: 1468 1468 111
Width: 0
Flags: HW
HStem: 223.399 153.202
VStem: -76.6016 153.201
AnchorPoint: "DiaToBaseD" 0 0 mark 0
AnchorPoint: "CustomDiaD" 0 0 mark 0
LayerCount: 2
Back
SplineSet
-0.000976562 222.218 m 5
 -77.7832 300 l 5
 -0.000976562 377.782 l 5
 77.7812 300 l 5
 -0.000976562 222.218 l 5
EndSplineSet
Fore
SplineSet
-13.5078 223.399 m 1
 -76.6016 313.507 l 1
 13.5059 376.601 l 1
 76.5996 286.493 l 1
 -13.5078 223.399 l 1
EndSplineSet
EndChar

StartChar: afii57839
Encoding: 1469 1469 112
Width: 0
Flags: HW
HStem: -156.724 67.8832<-170.155 -6.03809 33.9414 170.155>
VStem: -33.9414 67.8828<-281.373 -184.627>
LayerCount: 2
Back
SplineSet
-98.9072 -365 m 5
 -33.0049 -120.371 l 1
EndSplineSet
Fore
SplineSet
-130.606 -398.183 m 1
 -140.931 -383.438 l 1
 -75.0293 -138.81 l 1
 -1.30566 -87.1875 l 1
 9.01953 -101.933 l 1
 -56.8828 -346.562 l 1
 -130.606 -398.183 l 1
EndSplineSet
EndChar

StartChar: afii57841
Encoding: 1471 1471 113
Width: 0
VWidth: 1817
Flags: HW
LayerCount: 2
Back
SplineSet
-163.5 740 m 1
 162.065 740 l 1
EndSplineSet
Fore
SplineSet
-204.807 721.562 m 1
 -131.083 773.184 l 1
 194.482 773.184 l 1
 204.807 758.438 l 1
 131.083 706.816 l 1
 -194.482 706.817 l 1
 -204.807 721.562 l 1
EndSplineSet
EndChar

StartChar: afii57842
Encoding: 1472 1472 114
Width: 230
Flags: W
VStem: 81.0596 67.8818<-281.432 877.373>
LayerCount: 2
Fore
SplineSet
92.373 -338 m 1
 81.0596 -326.688 l 1
 81.0586 877.373 l 1
 137.628 933.941 l 1
 148.941 922.628 l 1
 148.941 -281.432 l 1
 92.373 -338 l 1
EndSplineSet
EndChar

StartChar: afii57804
Encoding: 1473 1473 115
Width: 0
Flags: HW
HStem: 614.999 141.423
VStem: 676.574 141.423
LayerCount: 2
Back
SplineSet
596.569 114.326 m 5
 606.896 99.5811 l 5
 604.038 97.4561 601.146 95.3691 598.226 93.3213 c 4
 524.502 41.7002 l 4
 523.872 41.2598 l 5
 464.364 -0.185547 392.3 -25.0205 318.073 -25.0205 c 4
 224.611 -25.0195 149.276 11.498 103.415 77 c 4
 63.5723 133.904 46.7773 208.219 75.8477 309.009 c 4
 109.71 426.408 181.301 529.15 276.771 596.037 c 4
 350.494 647.659 l 4
 350.892 647.938 l 5
 409.867 689.134 477.448 716.515 550.958 725.526 c 4
 627.193 734.873 692.532 717.254 726.021 669.667 c 4
 752.999 631.333 754.909 577.402 733.562 530.333 c 4
 711.934 482.641 669.509 439.738 623.217 407.322 c 4
 549.493 355.7 l 4
 549.005 355.359 l 5
 539.869 348.986 531.243 343.432 522.223 338.052 c 4
 418.226 276.018 310.587 248.654 193.815 246.827 c 5
 183.491 261.572 l 5
 257.215 313.193 l 5
 369.648 314.953 473.359 340.255 574.171 397.736 c 5
 614.925 433.138 646.666 476.667 660.234 524.333 c 4
 669.155 555.673 667.327 594.129 650.031 615.624 c 4
 615.666 658.333 552.366 667.105 487.559 659.16 c 4
 429.215 652.007 374.505 633.219 325.081 605.273 c 5
 247.746 539.429 189.426 448.253 159.896 345.886 c 4
 133.939 255.903 142.811 182.783 179.144 130.973 c 4
 220.499 72 297.507 41.3447 381.473 41.3467 c 4
 452.209 41.3477 520.859 63.833 578.906 101.958 c 5
 596.569 114.326 l 5
EndSplineSet
Fore
SplineSet
833.283 645 m 1
 775.926 726.916 l 1
 857.841 784.274 l 1
 915.2 702.357 l 1
 833.283 645 l 1
EndSplineSet
EndChar

StartChar: afii57803
Encoding: 1474 1474 116
Width: 0
Flags: HW
HStem: -196.422 141.422
VStem: 203.864 141.422
LayerCount: 2
Back
SplineSet
596.569 114.326 m 5
 606.896 99.5811 l 5
 604.038 97.4561 601.146 95.3691 598.226 93.3213 c 4
 524.502 41.7002 l 4
 523.872 41.2598 l 5
 464.364 -0.185547 392.3 -25.0205 318.073 -25.0205 c 4
 224.611 -25.0195 149.276 11.498 103.415 77 c 4
 63.5723 133.904 46.7773 208.219 75.8477 309.009 c 4
 109.71 426.408 181.301 529.15 276.771 596.037 c 4
 350.494 647.659 l 4
 350.892 647.938 l 5
 409.867 689.134 477.448 716.515 550.958 725.526 c 4
 627.193 734.873 692.532 717.254 726.021 669.667 c 4
 752.999 631.333 754.909 577.402 733.562 530.333 c 4
 711.934 482.641 669.509 439.738 623.217 407.322 c 4
 549.493 355.7 l 4
 549.005 355.359 l 5
 539.869 348.986 531.243 343.432 522.223 338.052 c 4
 418.226 276.018 310.587 248.654 193.815 246.827 c 5
 183.491 261.572 l 5
 257.215 313.193 l 5
 369.648 314.953 473.359 340.255 574.171 397.736 c 5
 614.925 433.138 646.666 476.667 660.234 524.333 c 4
 669.155 555.673 667.327 594.129 650.031 615.624 c 4
 615.666 658.333 552.366 667.105 487.559 659.16 c 4
 429.215 652.007 374.505 633.219 325.081 605.273 c 5
 247.746 539.429 189.426 448.253 159.896 345.886 c 4
 133.939 255.903 142.811 182.783 179.144 130.973 c 4
 220.499 72 297.507 41.3447 381.473 41.3467 c 4
 452.209 41.3477 520.859 63.833 578.906 101.958 c 5
 596.569 114.326 l 5
EndSplineSet
Fore
SplineSet
232.163 648.016 m 5
 174.806 729.932 l 5
 256.721 787.289 l 5
 314.08 705.373 l 5
 232.163 648.016 l 5
EndSplineSet
EndChar

StartChar: uni05C4
Encoding: 1476 1476 118
Width: 0
Flags: HW
HStem: -196.422 141.422
VStem: -70.7109 141.422
LayerCount: 2
Fore
SplineSet
-12.2803 616.073 m 5
 -69.6377 697.989 l 5
 12.2783 755.347 l 5
 69.6357 673.432 l 5
 -12.2803 616.073 l 5
EndSplineSet
EndChar

StartChar: uni05C5
Encoding: 1477 1477 119
Width: 0
Flags: HW
HStem: 614.999 141.422
VStem: -70.7119 141.422
LayerCount: 2
Fore
SplineSet
-12.2803 616.073 m 5
 -69.6377 697.989 l 5
 12.2783 755.347 l 5
 69.6357 673.432 l 5
 -12.2803 616.073 l 5
EndSplineSet
EndChar

StartChar: uni05C7
Encoding: 1479 1479 120
Width: 0
Flags: HW
HStem: -166.724 67.8832<-150.155 -6.03809 33.9424 150.155>
VStem: -33.9404 67.8828<-331.373 -194.627>
AnchorPoint: "DiaToBase2" 0 0 mark 0
AnchorPoint: "CustomDia2" 0 0 mark 0
LayerCount: 2
Back
SplineSet
-99.332 -375.002 m 1
 -45.207 -173.002 l 1
-177.095 -133.088 m 1
 108.47 -133.088 l 1
-140.216 -396.627 m 5
 -86.0908 -194.627 l 5
 -50.7119 -166.724 l 1
 -210.083 -166.724 l 1
 -218.365 -155.409 l 1
 -146.64 -98.8408 l 1
 138.925 -98.8408 l 1
 147.208 -110.155 l 1
 75.4814 -166.724 l 1
 -10.7314 -166.724 l 1
 -60.208 -351.373 l 1
 -131.935 -407.941 l 1
 -140.216 -396.627 l 5
EndSplineSet
Fore
SplineSet
-219.118 -151.526 m 1
 -145.395 -99.9043 l 1
 140.17 -99.9043 l 1
 150.494 -114.649 l 1
 76.7705 -166.271 l 1
 -6.32065 -166.271 l 1
 -57.3076 -356.563 l 1
 -131.031 -408.186 l 1
 -141.355 -393.44 l 1
 -87.2314 -191.44 l 1
 -51.2866 -166.271 l 1
 -208.794 -166.271 l 1
 -219.118 -151.526 l 1
EndSplineSet
EndChar

StartChar: uni25CC
Encoding: 9676 9676 126
Width: 615
Flags: HW
LayerCount: 2
Fore
SplineSet
76.8984 232.913 m 0
 92.3281 232.913 104.853 220.39 104.853 204.96 c 0
 104.853 189.529 92.3281 177.007 76.8984 177.007 c 0
 61.4678 177.007 48.9453 189.529 48.9453 204.96 c 0
 48.9453 220.39 61.4678 232.913 76.8984 232.913 c 0
211.383 98.4277 m 0
 226.814 98.4277 239.336 85.9043 239.336 70.4746 c 0
 239.336 55.0439 226.814 42.5215 211.383 42.5215 c 0
 195.954 42.5215 183.43 55.0439 183.43 70.4746 c 0
 183.43 85.9043 195.954 98.4277 211.383 98.4277 c 0
401.463 98.4277 m 0
 416.893 98.4277 429.416 85.9043 429.416 70.4746 c 0
 429.416 55.0439 416.893 42.5215 401.463 42.5215 c 0
 386.032 42.5215 373.511 55.0439 373.511 70.4746 c 0
 373.511 85.9043 386.032 98.4277 401.463 98.4277 c 0
535.948 232.913 m 0
 551.378 232.913 563.901 220.39 563.901 204.96 c 0
 563.901 189.529 551.378 177.007 535.948 177.007 c 0
 520.519 177.007 507.994 189.529 507.994 204.96 c 0
 507.994 220.39 520.519 232.913 535.948 232.913 c 0
535.948 422.993 m 0
 551.378 422.993 563.901 410.47 563.901 395.039 c 0
 563.901 379.609 551.378 367.086 535.948 367.086 c 0
 520.519 367.086 507.994 379.609 507.994 395.039 c 0
 507.994 410.47 520.519 422.993 535.948 422.993 c 0
401.463 557.477 m 0
 416.893 557.477 429.416 544.955 429.416 529.525 c 0
 429.416 514.095 416.893 501.571 401.463 501.571 c 0
 386.032 501.571 373.511 514.095 373.511 529.525 c 0
 373.511 544.955 386.032 557.477 401.463 557.477 c 0
211.383 557.477 m 0
 226.814 557.477 239.336 544.955 239.336 529.525 c 0
 239.336 514.095 226.814 501.571 211.383 501.571 c 0
 195.954 501.571 183.43 514.095 183.43 529.525 c 0
 183.43 544.955 195.954 557.477 211.383 557.477 c 0
76.8984 422.993 m 0
 92.3281 422.993 104.853 410.47 104.853 395.039 c 0
 104.853 379.609 92.3281 367.086 76.8984 367.086 c 0
 61.4678 367.086 48.9453 379.609 48.9453 395.039 c 0
 48.9453 410.47 61.4678 422.993 76.8984 422.993 c 0
57.9521 327.953 m 0
 73.3828 327.953 85.9053 315.429 85.9053 300 c 0
 85.9053 284.57 73.3828 272.046 57.9521 272.046 c 0
 42.5225 272.046 30 284.57 30 300 c 0
 30 315.429 42.5225 327.953 57.9521 327.953 c 0
130.733 503.642 m 0
 146.164 503.642 158.687 491.119 158.687 475.688 c 0
 158.687 460.259 146.164 447.735 130.733 447.735 c 0
 115.304 447.735 102.781 460.259 102.781 475.688 c 0
 102.781 491.119 115.304 503.642 130.733 503.642 c 0
130.733 152.264 m 0
 146.164 152.264 158.687 139.74 158.687 124.311 c 0
 158.687 108.88 146.164 96.3574 130.733 96.3574 c 0
 115.304 96.3574 102.781 108.88 102.781 124.311 c 0
 102.781 139.74 115.304 152.264 130.733 152.264 c 0
482.113 152.264 m 0
 497.543 152.264 510.065 139.74 510.065 124.311 c 0
 510.065 108.88 497.543 96.3574 482.113 96.3574 c 0
 466.682 96.3574 454.16 108.88 454.16 124.311 c 0
 454.16 139.74 466.682 152.264 482.113 152.264 c 0
482.113 503.642 m 0
 497.543 503.642 510.065 491.119 510.065 475.688 c 0
 510.065 460.259 497.543 447.735 482.113 447.735 c 0
 466.682 447.735 454.16 460.259 454.16 475.688 c 0
 454.16 491.119 466.682 503.642 482.113 503.642 c 0
306.423 576.424 m 0
 321.853 576.424 334.376 563.9 334.376 548.471 c 0
 334.376 533.04 321.853 520.518 306.423 520.518 c 0
 290.992 520.518 278.471 533.04 278.471 548.471 c 0
 278.471 563.9 290.992 576.424 306.423 576.424 c 0
306.423 79.4805 m 0
 321.853 79.4805 334.376 66.959 334.376 51.5283 c 0
 334.376 36.0986 321.853 23.5762 306.423 23.5762 c 0
 290.992 23.5762 278.471 36.0986 278.471 51.5283 c 0
 278.471 66.959 290.992 79.4805 306.423 79.4805 c 0
554.895 327.953 m 0
 570.325 327.953 582.847 315.429 582.847 300 c 0
 582.847 284.57 570.325 272.046 554.895 272.046 c 0
 539.465 272.046 526.94 284.57 526.94 300 c 0
 526.94 315.429 539.465 327.953 554.895 327.953 c 0
EndSplineSet
EndChar

StartChar: uniFB1E
Encoding: 64286 64286 132
Width: 0
VWidth: 1817
Flags: HW
HStem: 655.283 57.4336<-126.515 -62.1058 49.4834 153.264>
LayerCount: 2
Back
SplineSet
-156.02 750.622 m 5
 -49.5039 716.794 69.0684 723.055 172.231 756.793 c 5
EndSplineSet
Fore
SplineSet
-198.044 732.184 m 1
 -124.32 783.806 l 1
 -17.7988 749.979 100.771 756.244 203.931 789.977 c 1
 214.255 775.231 l 1
 140.531 723.609 l 1
 37.3721 689.877 -81.1973 683.612 -187.719 717.438 c 1
 -198.044 732.184 l 1
EndSplineSet
EndChar

StartChar: uniFB4F
Encoding: 64335 64335 172
Width: 995
Flags: HW
HStem: -37.1836 66.3672<160.038 243.767>
VStem: 400.027 84.048<340.337 686.058>
AnchorPoint: "CustomDiaD" 266 -43 basechar 0
AnchorPoint: "CustomDiaO" 235 0 basechar 0
AnchorPoint: "CustomDiaU" 230 0 basechar 0
AnchorPoint: "CustomDia3" 210 0 basechar 0
AnchorPoint: "CustomDia2" 210 0 basechar 0
AnchorPoint: "CustomDia1" 190 0 basechar 0
LayerCount: 2
Back
SplineSet
1247.51 855.189 m 1
 1237.19 869.935 l 1
 1232.74 878.062 1227.79 886.254 1223.01 893.5 c 0
 1119.49 1032.85 928.237 1050.95 764.955 977.837 c 0
 748.076 970.278 731.189 961.621 716.771 953.342 c 1
 595.018 850.155 540.089 700.63 505.482 541.511 c 0
 499.145 512.37 493.493 484.464 488.095 457.5 c 1
 497.571 465.558 507.495 473.22 517.814 480.449 c 2
 591.538 532.07 l 1
 591.902 532.325 l 2
 658.896 579.11 742.077 607.542 828.025 607.544 c 0
 899.345 607.545 961.911 587.909 1009.91 554.583 c 1
 1020.23 539.838 l 1
 946.506 488.217 l 1
 898.512 521.543 835.945 541.179 764.626 541.178 c 0
 694.376 541.176 625.97 522.166 566.733 489.691 c 1
 511.481 440.9 472.087 378.122 460.023 309.7 c 0
 449.327 249.025 461.568 192.842 491.195 146.711 c 1
 539.925 82.7002 625.049 41.3438 728.189 41.3467 c 0
 812.479 41.3477 894.211 68.7637 960.32 113.812 c 1
 970.645 99.0664 l 1
 896.921 47.4443 l 1
 830.812 2.39648 749.079 -25.0186 664.79 -25.0205 c 0
 533.662 -25.0225 426 41.5 402.5 150.5 c 1
 386.5 113 361.547 67.0762 319.276 37.4775 c 2
 245.553 -14.1445 l 2
 224.89 -28.584 201.402 -37.1836 174.684 -37.1836 c 0
 145.01 -37.1826 122.404 -22.2129 106.527 0.449219 c 2
 96.2334 15.1504 l 1
 95.959 15.5439 l 2
 74.1113 46.9736 65.1113 93.0273 68.0635 134.495 c 0
 77.1719 262.449 137.527 376.919 218.667 445.844 c 1
 292.391 497.466 l 1
 302.715 482.722 l 1
 221.573 413.795 161.224 299.328 152.111 171.372 c 0
 149.381 133.021 156.829 90.8828 175.268 59.7988 c 1
 190.541 41.3613 211.687 29.1836 238.083 29.1836 c 0
 249.513 29.1836 260.381 30.7637 270.632 33.6885 c 1
 294.776 62.5166 314.396 100.229 329.746 138.114 c 0
 376.394 253.258 391.007 364.732 421.434 504.634 c 0
 459.196 678.261 521.16 840.492 667.704 943.461 c 2
 668.203 943.812 l 1
 741.928 995.434 l 2
 767.963 1013.66 796.661 1030.01 828.354 1044.2 c 0
 994.399 1118.55 1189.4 1098.63 1291.61 952.66 c 2
 1301.93 937.916 l 2
 1308.79 928.117 1315.24 917.755 1321.23 906.812 c 1
 1247.51 855.189 l 1
EndSplineSet
Fore
SplineSet
1235.42 906.812 m 1
 1161.69 855.189 l 1
 1035.75 1029.11 829.913 1061.66 657.511 977.837 c 0
 651.094 974.717 644.674 971.395 638.718 968.146 c 1
 523.012 865.233 490.953 708.373 484.075 541.512 c 0
 482.744 509.21 480.767 478.424 477.941 448.759 c 1
 490.345 460.055 503.605 470.65 517.594 480.449 c 2
 591.317 532.07 l 1
 591.681 532.325 l 2
 658.675 579.11 741.856 607.542 827.803 607.544 c 0
 899.124 607.545 961.689 587.909 1009.68 554.583 c 1
 1020.01 539.838 l 1
 946.285 488.217 l 1
 898.29 521.543 835.725 541.179 764.404 541.177 c 0
 694.154 541.176 625.748 522.165 566.513 489.691 c 1
 511.262 440.9 471.865 378.121 459.803 309.7 c 0
 449.105 249.025 461.348 192.841 490.974 146.712 c 1
 539.704 82.6992 624.828 41.3447 727.969 41.3467 c 0
 812.258 41.3486 893.99 68.7627 960.1 113.811 c 1
 970.424 99.0664 l 1
 896.7 47.4443 l 1
 830.591 2.39648 748.858 -25.0186 664.569 -25.0195 c 0
 533.522 -25.0231 424 43 402.5 150.5 c 1
 382.5 104.5 356.378 63.4581 319.275 37.4775 c 2
 245.553 -14.1445 l 2
 224.89 -28.584 201.402 -37.1836 174.684 -37.1836 c 0
 145.391 -37.1826 123.026 -22.0264 107.212 0.582031 c 2
 96.8877 15.3262 l 2
 74.4619 47.3887 65.2119 94.4375 68.0635 134.495 c 0
 77.1719 262.449 137.527 376.919 218.668 445.845 c 1
 292.392 497.467 l 1
 302.715 482.722 l 1
 221.573 413.795 161.224 299.328 152.112 171.372 c 0
 149.479 134.395 157.158 91.4648 175.995 59.8574 c 1
 191.173 41.4727 212.068 29.1836 238.083 29.1836 c 0
 249.513 29.1836 260.381 30.7637 270.632 33.6885 c 1
 294.775 62.5166 314.395 100.229 329.745 138.114 c 0
 376.394 253.259 394.261 364.727 400.027 504.634 c 0
 407.542 686.948 444.936 857.182 589.223 958.592 c 2
 589.634 958.88 l 1
 663.357 1010.5 l 2
 680.918 1022.8 700.055 1034.06 720.91 1044.2 c 0
 893.312 1128.03 1099.15 1095.48 1225.09 921.557 c 1
 1235.42 906.812 l 1
EndSplineSet
LCarets2: 1 0 
Ligature2: "AlephLamed2" afii57664 afii57676
Ligature2: "AlephLamed" afii57664 afii57676
EndChar

StartChar: patah.short
Encoding: 57358 57358 174
Width: 0
Flags: W
HStem: -165.545 66.3662<-95.3291 26.835>
VStem: -169.053 269.611
AnchorPoint: "DiaToBase2" 0 0 mark 0
AnchorPoint: "CustomDia2" 0 0 mark 0
LayerCount: 2
Fore
SplineSet
100.559 -113.924 m 1
 26.835 -165.546 l 1
 -158.729 -165.545 l 5
 -169.053 -150.801 l 5
 -95.3291 -99.1787 l 5
 90.2334 -99.1787 l 1
 100.559 -113.924 l 1
EndSplineSet
EndChar

StartChar: qamats.short
Encoding: 57359 57359 175
Width: 0
Flags: W
HStem: -166.604 66.3677<-95.9961 -52.6317 -8.19554 26.168>
VStem: -169.721 269.613
AnchorPoint: "DiaToBase2" 0 0 mark 0
AnchorPoint: "CustomDia2" 0 0 mark 0
LayerCount: 2
Fore
SplineSet
-159.396 -166.604 m 5
 -169.721 -151.858 l 5
 -95.9961 -100.236 l 5
 89.5674 -100.236 l 1
 99.8926 -114.981 l 1
 26.168 -166.604 l 1
 -8.19554 -166.604 l 1
 -43.2285 -297.352 l 1
 -116.952 -348.974 l 1
 -127.277 -334.229 l 1
 -89.2285 -192.229 l 1
 -52.6317 -166.604 l 1
 -159.396 -166.604 l 5
EndSplineSet
EndChar
